<svg id="Group_2122" data-name="Group 2122" xmlns="http://www.w3.org/2000/svg" width="417.645" height="421.848" viewBox="0 0 417.645 421.848">
  <defs>
    <style>
      .cls-1 {
        fill: #f5f5f5;
      }

      .cls-2 {
        fill: #e0e0e0;
      }

      .cls-3 {
        fill: #001164;
      }

      .cls-14, .cls-4 {
        fill: #fff;
      }

      .cls-22, .cls-5 {
        fill: #0090ff;
      }

      .cls-6 {
        opacity: 0.2;
      }

      .cls-7 {
        fill: #37474f;
      }

      .cls-8 {
        fill: #455a64;
      }

      .cls-9 {
        fill: #263238;
      }

      .cls-10, .cls-14 {
        opacity: 0.5;
      }

      .cls-11 {
        fill: #e6e6e6;
      }

      .cls-12 {
        fill: #fafafa;
      }

      .cls-13 {
        fill: #ebebeb;
      }

      .cls-15 {
        fill: #d1d5e1;
      }

      .cls-16 {
        opacity: 0.3;
      }

      .cls-17 {
        fill: #2b2716;
      }

      .cls-18 {
        fill: #3a4a96;
      }

      .cls-19 {
        fill: #ffa8a7;
      }

      .cls-20 {
        fill: #f28f8f;
      }

      .cls-21 {
        fill: #ba68c8;
      }

      .cls-22 {
        opacity: 0.4;
      }
    </style>
  </defs>
  <g id="Floor" transform="translate(0 180.72)">
    <ellipse id="Ellipse_13" data-name="Ellipse 13" class="cls-1" cx="208.822" cy="120.564" rx="208.822" ry="120.564"/>
  </g>
  <g id="Shadows" transform="translate(37.947 237.072)">
    <ellipse id="Ellipse_14" data-name="Ellipse 14" class="cls-2" cx="45.158" cy="26.072" rx="45.158" ry="26.072" transform="translate(158.486 96.491)"/>
    <path id="Path_938" data-name="Path 938" class="cls-2" d="M259.3,327.05,138.513,396.8c-3.4,1.962-9.334,1.716-13.258-.55L82.371,371.491c-3.924-2.265-4.35-5.692-.952-7.654l120.789-69.751c3.4-1.962,9.334-1.715,13.258.55l42.884,24.759C262.274,321.66,262.7,325.088,259.3,327.05Z" transform="translate(-79.125 -292.762)"/>
  </g>
  <g id="Plants" transform="translate(15.947 243.309)">
    <g id="Group_2084" data-name="Group 2084" transform="translate(328.537 0.221)">
      <g id="Group_2082" data-name="Group 2082">
        <path id="Path_939" data-name="Path 939" class="cls-3" d="M389.365,351.4l9.515,5.527s-4.8-15.326-2.137-30.743a29.556,29.556,0,0,1,3.87-10.263c.747-1.553,6.484-11.169,1.434-15.6s-16.9,4.384-16.368,28.129A92.3,92.3,0,0,0,389.365,351.4Z" transform="translate(-385.662 -299.219)"/>
        <path id="Path_941" data-name="Path 941" class="cls-4" d="M393.788,354.406a.431.431,0,0,1-.4-.283c-.036-.1-3.634-10.09-3.444-26.113.19-16.12,8.661-24.716,8.746-24.8a.432.432,0,0,1,.609.613c-.083.082-8.307,8.451-8.492,24.2-.188,15.852,3.355,25.709,3.391,25.806a.432.432,0,0,1-.257.554A.42.42,0,0,1,393.788,354.406Z" transform="translate(-385.662 -299.219)"/>
      </g>
      <g id="Group_2083" data-name="Group 2083" transform="translate(7.246 19.166)">
        <path id="Path_942" data-name="Path 942" class="cls-3" d="M396.744,355.723l15.719,9.244s7.2-1.06,6.652-7.835-3.468-8.371.173-11.348,4.58-3.174,4.406-6.091-2.137-4.191-3.06-5.347-3.5-3.582-1.687-7.1,4.266-6.918.622-8.53c-2.176-.963-5.834.243-8.26,2.817s-4.425,4.426-6.723,5.023-7.089.646-6.927,4.6,1.189,5.326.229,7.084C396.078,341.554,388.352,343.337,396.744,355.723Z" transform="translate(-392.908 -318.385)"/>
        <path id="Path_944" data-name="Path 944" class="cls-4" d="M403.145,359.919a.432.432,0,0,1-.43-.4c-.019-.235-1.73-23.673,14.554-39.063a.432.432,0,0,1,.593.627c-15.976,15.1-14.3,38.134-14.286,38.365a.431.431,0,0,1-.395.465Z" transform="translate(-392.908 -318.385)"/>
        <path id="Path_945" data-name="Path 945" class="cls-4" d="M405.964,339.834a.432.432,0,0,1-.431-.4,13.342,13.342,0,0,0-4.778-9.343.432.432,0,0,1,.505-.7,13.968,13.968,0,0,1,5.135,9.98.433.433,0,0,1-.4.462Z" transform="translate(-392.908 -318.385)"/>
        <path id="Path_946" data-name="Path 946" class="cls-4" d="M404.8,343.833a.432.432,0,0,1-.322-.72c.17-.189,4.268-4.62,13.747-3.318a.432.432,0,1,1-.118.855c-8.992-1.234-12.948,3-12.987,3.041A.43.43,0,0,1,404.8,343.833Z" transform="translate(-392.908 -318.385)"/>
      </g>
    </g>
    <g id="Group_2087" data-name="Group 2087">
      <g id="Group_2085" data-name="Group 2085" transform="translate(4.395)">
        <path id="Path_947" data-name="Path 947" class="cls-5" d="M101.124,337.943l-4.7,9.949s-4.742-15.344-15.683-26.527a29.548,29.548,0,0,0-9.01-6.255c-1.5-.855-11.676-5.519-10.033-12.035s16.4-5.977,29.438,13.877A92.26,92.26,0,0,1,101.124,337.943Z" transform="translate(-61.52 -298.999)"/>
        <path id="Path_948" data-name="Path 948" class="cls-6" d="M101.124,337.943l-4.7,9.949s-4.742-15.344-15.683-26.527a29.548,29.548,0,0,0-9.01-6.255c-1.5-.855-11.676-5.519-10.033-12.035s16.4-5.977,29.438,13.877A92.26,92.26,0,0,1,101.124,337.943Z" transform="translate(-61.52 -299.352)"/>
        <path id="Path_949" data-name="Path 949" class="cls-4" d="M98.94,343a.43.43,0,0,1-.418-.324c-.027-.1-2.7-10.228-11.849-23.174-9.088-12.862-20.608-15.087-20.723-15.108a.432.432,0,0,1,.154-.85c.119.021,11.971,2.293,21.274,15.459,9.247,13.088,11.953,23.356,11.979,23.458a.431.431,0,0,1-.31.525A.4.4,0,0,1,98.94,343Z" transform="translate(-61.52 -298.999)"/>
      </g>
      <g id="Group_2086" data-name="Group 2086" transform="translate(0 25.335)">
        <path id="Path_950" data-name="Path 950" class="cls-3" d="M97.5,345.685l-7.7,16.531s-6.529,3.211-9.924-2.677-1.893-8.862-6.58-9.247-5.573-.014-7.085-2.516-.618-4.663-.514-6.139.849-4.934-2.64-6.8-7.438-3.276-5.352-6.672c1.245-2.027,4.942-3.11,8.4-2.366s6.155,1.133,8.387.321,6.2-3.49,8.316-.139,2.042,5.061,3.83,5.963C90.007,333.64,97.381,330.724,97.5,345.685Z" transform="translate(-57.125 -324.334)"/>
        <path id="Path_952" data-name="Path 952" class="cls-4" d="M94.363,352.849a.431.431,0,0,1-.374-.217c-.115-.2-11.808-20.116-33.533-23.486a.432.432,0,0,1,.133-.853C82.73,331.727,94.62,352,94.737,352.2a.432.432,0,0,1-.374.647Z" transform="translate(-57.125 -324.334)"/>
        <path id="Path_953" data-name="Path 953" class="cls-4" d="M80.647,337.909a.432.432,0,0,1-.373-.214,13.962,13.962,0,0,1-1.435-11.131.431.431,0,1,1,.812.291,13.344,13.344,0,0,0,1.368,10.4.432.432,0,0,1-.155.591A.427.427,0,0,1,80.647,337.909Z" transform="translate(-57.125 -324.334)"/>
        <path id="Path_954" data-name="Path 954" class="cls-4" d="M71.06,345.509a.431.431,0,0,1-.29-.75c7.063-6.448,12.956-5.125,13.2-5.066a.431.431,0,0,1-.2.839c-.058-.012-5.717-1.255-12.42,4.864A.431.431,0,0,1,71.06,345.509Z" transform="translate(-57.125 -324.334)"/>
      </g>
    </g>
  </g>
  <g id="Device" transform="translate(48.142)">
    <g id="Group_2093" data-name="Group 2093">
      <g id="Group_2088" data-name="Group 2088">
        <path id="Path_955" data-name="Path 955" class="cls-7" d="M219.574,66.394Z" transform="translate(-89.32 -55.69)"/>
        <path id="Path_956" data-name="Path 956" class="cls-7" d="M97.608,136.505a16.592,16.592,0,0,1,8.3-14.371L211.424,61.212a5.435,5.435,0,0,1,7.893,3.061,9.4,9.4,0,0,0-4.341-5.97l-.376-.224a16.964,16.964,0,0,0-8.681-2.389h0a5.38,5.38,0,0,0-2.783.735L97.617,117.347a16.594,16.594,0,0,0-8.3,14.371V359.912a5.434,5.434,0,0,0,8.151,4.706l.137-.079Z" transform="translate(-89.32 -55.69)"/>
      </g>
      <path id="Path_957" data-name="Path 957" class="cls-8" d="M211.277,308.483,105.758,369.4a5.433,5.433,0,0,1-8.15-4.7V136.505a16.592,16.592,0,0,1,8.3-14.371L211.424,61.212a5.434,5.434,0,0,1,8.15,4.706V294.112A16.594,16.594,0,0,1,211.277,308.483Z" transform="translate(-89.32 -55.69)"/>
      <path id="Path_958" data-name="Path 958" class="cls-9" d="M97.608,364.7V136.505a16.571,16.571,0,0,1,1.64-7.183l-8.159-5.052a16.585,16.585,0,0,0-1.769,7.448v230.1a5.228,5.228,0,0,0,2.553,4.491l4.206,2.505a9.421,9.421,0,0,0,4.819,1.326h2.078A5.439,5.439,0,0,1,97.608,364.7Z" transform="translate(-89.32 -55.69)"/>
      <g id="Group_2091" data-name="Group 2091" transform="translate(15.119 27.456)">
        <path id="Path_959" data-name="Path 959" class="cls-7" d="M207.645,83.146v191.8a14.651,14.651,0,0,1-7.326,12.69l-93.179,53.8a4.745,4.745,0,0,1-2.311.641,4.805,4.805,0,0,0,6.808,2.245l93.179-53.8a14.653,14.653,0,0,0,7.326-12.69V87.932A4.8,4.8,0,0,0,207.645,83.146Z" transform="translate(-104.439 -83.146)"/>
        <g id="Group_2089" data-name="Group 2089" transform="translate(0 0)">
          <path id="Path_960" data-name="Path 960" class="cls-3" d="M104.829,342.074a4.745,4.745,0,0,0,2.311-.641l93.179-53.8a14.651,14.651,0,0,0,7.326-12.69V83.146a6.312,6.312,0,0,0-2.7.631l-93.179,53.8a14.656,14.656,0,0,0-7.327,12.69v189.9a4.776,4.776,0,0,0,.4,1.937Z" transform="translate(-104.439 -83.146)"/>
        </g>
        <g id="Group_2090" data-name="Group 2090" class="cls-10" transform="translate(0.39)">
          <path id="Path_961" data-name="Path 961" class="cls-4" d="M104.829,342.074a4.745,4.745,0,0,0,2.311-.641l93.179-53.8a14.651,14.651,0,0,0,7.326-12.69V83.146a6.312,6.312,0,0,0-2.7.631l-93.179,53.8a14.656,14.656,0,0,0-7.327,12.69v189.9a4.776,4.776,0,0,0,.4,1.937Z" transform="translate(-104.439 -83.146)"/>
        </g>
      </g>
      <g id="Group_2092" data-name="Group 2092" transform="translate(51.148 33.511)">
        <path id="Path_962" data-name="Path 962" class="cls-9" d="M143.824,109.463a3.71,3.71,0,0,1-1.678,2.906c-.927.535-1.678.1-1.678-.969a3.708,3.708,0,0,1,1.678-2.906C143.072,107.959,143.824,108.393,143.824,109.463Z" transform="translate(-140.468 -89.201)"/>
        <path id="Path_963" data-name="Path 963" class="cls-9" d="M150.066,105.859a3.71,3.71,0,0,1-1.678,2.906c-.927.535-1.678.1-1.678-.968a3.708,3.708,0,0,1,1.678-2.907C149.314,104.355,150.066,104.789,150.066,105.859Z" transform="translate(-140.468 -89.201)"/>
        <path id="Path_964" data-name="Path 964" class="cls-9" d="M175.261,93.25l-20.295,11.718c-.8.463-1.454-.029-1.454-1.1h0a3.478,3.478,0,0,1,1.454-2.776l20.295-11.718c.8-.463,1.453.029,1.453,1.1h0A3.48,3.48,0,0,1,175.261,93.25Z" transform="translate(-140.468 -89.201)"/>
      </g>
      <path id="Path_965" data-name="Path 965" class="cls-9" d="M171.827,315.682h0c1.212,0,2,1.286,2,3.275,0,3.127-1.956,6.9-4.271,8.234l-9.707,5.6a2.939,2.939,0,0,1-1.446.452c-1.212,0-1.995-1.286-1.995-3.276,0-3.126,1.955-6.9,4.27-8.233l9.707-5.605a2.947,2.947,0,0,1,1.446-.451m0-.829a3.759,3.759,0,0,0-1.86.562l-9.707,5.6c-2.588,1.494-4.686,5.5-4.686,8.951,0,2.57,1.163,4.1,2.825,4.1a3.757,3.757,0,0,0,1.861-.563l9.707-5.6c2.587-1.494,4.685-5.5,4.685-8.952,0-2.569-1.163-4.1-2.825-4.1Z" transform="translate(-89.32 -55.69)"/>
    </g>
  </g>
  <g id="Screen" transform="translate(76.507 32.367)">
    <g id="Group_2109" data-name="Group 2109">
      <g id="Group_2098" data-name="Group 2098">
        <g id="Group_2096" data-name="Group 2096">
          <g id="Group_2094" data-name="Group 2094" transform="translate(0 66.23)">
            <path id="Path_966" data-name="Path 966" class="cls-11" d="M118.185,163.707V378.694c0,3.894,1.431,6.511,3.618,7.369l.062.021.01.01,9.29,5.09-.051-8.269-1.032-222.928-9.812-5.019A21.19,21.19,0,0,0,118.185,163.707Z" transform="translate(-117.685 -154.287)"/>
            <path id="Path_967" data-name="Path 967" class="cls-11" d="M131.67,392.031l-10.056-5.51c-2.492-1.029-3.929-3.935-3.929-7.827V163.707a21.755,21.755,0,0,1,2.132-8.95l.22-.47,10.544,5.393v.3l1.032,222.929Zm-9.555-6.375,8.545,4.681-.046-7.419-1.031-222.625-9.073-4.641a20.528,20.528,0,0,0-1.825,8.055V378.694c0,3.512,1.235,6.093,3.3,6.9l.128.06Z" transform="translate(-117.685 -154.287)"/>
          </g>
          <g id="Group_2095" data-name="Group 2095" transform="translate(2.086)">
            <path id="Path_968" data-name="Path 968" class="cls-2" d="M120.27,154.968l9.812,5.019L235.089,98.9,242.1,94.82l-9.689-5.458-.276-.164v-.01c-1.544-.93-3.567-.869-5.795.419L126.944,147A17.918,17.918,0,0,0,120.27,154.968Z" transform="translate(-119.771 -88.057)"/>
            <path id="Path_969" data-name="Path 969" class="cls-2" d="M130.082,160.487a.5.5,0,0,1-.228-.055l-9.811-5.018a.5.5,0,0,1-.226-.656,18.407,18.407,0,0,1,6.877-8.195l99.4-57.389c2.3-1.329,4.539-1.478,6.3-.414a.417.417,0,0,1,.073.054l.2.118,9.68,5.452a.5.5,0,0,1,.006.868L130.333,160.419A.5.5,0,0,1,130.082,160.487Zm-9.15-5.742,9.134,4.672,111.028-64.59-9.213-5.2a.511.511,0,0,1-.075-.054c-1.428-.819-3.276-.654-5.215.466l-99.4,57.389A17.108,17.108,0,0,0,120.932,154.745Z" transform="translate(-119.771 -88.057)"/>
          </g>
          <path id="Path_970" data-name="Path 970" class="cls-12" d="M127.813,169.114V383.13c0,3.372,1.073,5.795,2.79,6.929l.562.307c1.493.705,3.363.552,5.4-.624L184.609,362,235.958,331.1a18.645,18.645,0,0,0,8.759-15.465v-214c0-3.261-1-5.622-2.616-6.807a3.828,3.828,0,0,0-.889-.5,5.844,5.844,0,0,0-5.254.695l-99.4,58.356a14.92,14.92,0,0,0-6.48,6.617A21.275,21.275,0,0,0,127.813,169.114Z" transform="translate(-117.685 -88.057)"/>
        </g>
        <g id="Group_2097" data-name="Group 2097" transform="translate(9.93 5.54)">
          <path id="Path_971" data-name="Path 971" class="cls-12" d="M235.959,331.1c-20.453,12.2-73.661,43.957-100,59.821a5.171,5.171,0,0,1-7.838-4.436V166.416a14.353,14.353,0,0,1,7.1-12.384L236.436,94.71a5.174,5.174,0,0,1,7.791,4.464V316.533A16.956,16.956,0,0,1,235.959,331.1Z" transform="translate(-127.615 -93.597)"/>
          <path id="Path_972" data-name="Path 972" class="cls-13" d="M235.706,330.665q-24.085,14.368-48.159,28.756-14.251,8.519-28.5,17.05-6.508,3.9-13.012,7.8l-5.689,3.417c-1.75,1.053-3.615,2.551-5.548,3.222-3.208,1.115-6.1-1.451-6.182-4.62-.014-.511,0-1.024,0-1.535V182.992c0-5.374-.013-10.748,0-16.122a14.282,14.282,0,0,1,7.136-12.575c2.32-1.372,4.651-2.726,6.976-4.088l32.7-19.165,38.747-22.708c7.349-4.307,14.68-8.647,22.049-12.922,2.281-1.324,5.154-1.194,6.74,1.195a5.493,5.493,0,0,1,.759,3.159c.006,1.917,0,3.835,0,5.753V315.693a17.012,17.012,0,0,1-8.021,14.972c-.547.336-.046,1.2.505.864a17.967,17.967,0,0,0,8.516-15.7V115.111c0-5.226.056-10.455,0-15.68a5.764,5.764,0,0,0-8.878-4.956c-2.437,1.4-4.854,2.845-7.281,4.267l-33.6,19.692-39.1,22.914c-6.913,4.051-13.849,8.068-20.741,12.155a15.229,15.229,0,0,0-7.509,13.308c-.005,1.8,0,3.6,0,5.4V385.436c0,.344-.011.69,0,1.033a5.739,5.739,0,0,0,7.448,5.408c1.888-.631,3.67-2.049,5.37-3.072l5.8-3.485q6.484-3.894,12.973-7.78,28.365-17,56.764-33.936,10.116-6.041,20.234-12.075A.5.5,0,0,0,235.706,330.665Z" transform="translate(-127.615 -93.597)"/>
        </g>
        <path id="Path_973" data-name="Path 973" class="cls-13" d="M135.216,154.032,236.437,94.71a5.174,5.174,0,0,1,7.79,4.464v9.548l-.03,0L128.12,175.74v-9.324A14.355,14.355,0,0,1,135.216,154.032Z" transform="translate(-117.685 -88.057)"/>
      </g>
      <g id="Group_2102" data-name="Group 2102" transform="translate(24.145 64.345)">
        <ellipse id="Ellipse_15" data-name="Ellipse 15" class="cls-3" cx="37.174" cy="21.462" rx="37.174" ry="21.462" transform="translate(7.17 64.386) rotate(-60)"/>
        <ellipse id="Ellipse_16" data-name="Ellipse 16" class="cls-14" cx="37.174" cy="21.462" rx="37.174" ry="21.462" transform="translate(0 64.386) rotate(-60)"/>
        <g id="Group_2101" data-name="Group 2101" transform="translate(33.798 24.093)">
          <path id="Path_974" data-name="Path 974" class="cls-7" d="M181.458,195.443a1.18,1.18,0,0,1-1.179-1.18v-7.774a11.57,11.57,0,0,1,5.3-9.188,4.028,4.028,0,0,1,6.485,3.744v7.773a1.179,1.179,0,1,1-2.359,0v-7.773a1.743,1.743,0,0,0-2.946-1.7,9.275,9.275,0,0,0-4.125,7.145v7.774A1.18,1.18,0,0,1,181.458,195.443Z" transform="translate(-175.628 -176.494)"/>
          <g id="Group_2099" data-name="Group 2099" transform="translate(0 7.177)">
            <path id="Path_975" data-name="Path 975" class="cls-15" d="M195.7,183.806a1.758,1.758,0,0,0-1.666.186l-15.723,9.078a5,5,0,0,0-1.666,1.739,6.751,6.751,0,0,0-1.018,3.389V211.81a2.524,2.524,0,0,0,.783,2.073,1.363,1.363,0,0,0,.274.158h0a1.777,1.777,0,0,0,1.627-.2l15.723-9.077a6.429,6.429,0,0,0,2.684-5.128V186.021A2.3,2.3,0,0,0,195.7,183.806Z" transform="translate(-175.628 -183.672)"/>
          </g>
          <g id="Group_2100" data-name="Group 2100" transform="translate(8.52 15.913)">
            <path id="Path_976" data-name="Path 976" class="cls-8" d="M187.961,197.991l1.515,4.358-5.328,3.075,1.334-5.382.188-.762c-.9.026-1.522-.67-1.522-1.9a4.733,4.733,0,0,1,.249-1.451,5.921,5.921,0,0,1,2.415-3.162c1.471-.849,2.664-.163,2.664,1.538a5.905,5.905,0,0,1-1.525,3.656Z" transform="translate(-184.148 -192.408)"/>
            <path id="Path_977" data-name="Path 977" class="cls-7" d="M185.482,200.042l.188-.762c-.9.026-1.522-.67-1.522-1.9a4.733,4.733,0,0,1,.249-1.451l3.564,2.057,1.515,4.358Z" transform="translate(-184.148 -192.408)"/>
          </g>
        </g>
      </g>
      <g id="Group_2107" data-name="Group 2107" transform="translate(23.906 129.665)">
        <path id="Path_978" data-name="Path 978" class="cls-3" d="M224.947,245.657,147.4,290.429c-3.208,1.852-5.809-.114-5.809-4.392V274.289c0-4.277,2.6-9.246,5.809-11.1l77.547-44.772c3.208-1.852,5.809.114,5.809,4.391v11.748C230.756,238.835,228.155,243.8,224.947,245.657Z" transform="translate(-141.591 -217.722)"/>
        <g id="Group_2106" data-name="Group 2106" transform="translate(13.255 15.806)">
          <g id="Group_2103" data-name="Group 2103" transform="translate(0 27.853)">
            <rect id="Rectangle_112" data-name="Rectangle 112" class="cls-12" width="1.5" height="12.434" transform="translate(5.009 0.752)"/>
            <rect id="Rectangle_113" data-name="Rectangle 113" class="cls-12" width="12.435" height="1.5" transform="translate(0 9.429) rotate(-30.005)"/>
            <rect id="Rectangle_114" data-name="Rectangle 114" class="cls-12" width="1.5" height="8.793" transform="matrix(0.5, -0.866, 0.866, 0.5, 1.576, 5.42)"/>
            <rect id="Rectangle_115" data-name="Rectangle 115" class="cls-12" width="15.229" height="1.5" transform="translate(1.301 13.188) rotate(-59.995)"/>
          </g>
          <g id="Group_2104" data-name="Group 2104" transform="translate(25.568 13.927)">
            <rect id="Rectangle_116" data-name="Rectangle 116" class="cls-12" width="1.5" height="12.435" transform="translate(5.009 0.752)"/>
            <rect id="Rectangle_117" data-name="Rectangle 117" class="cls-12" width="12.434" height="1.5" transform="translate(0 9.428) rotate(-30.005)"/>
            <rect id="Rectangle_118" data-name="Rectangle 118" class="cls-12" width="1.5" height="8.792" transform="matrix(0.5, -0.866, 0.866, 0.5, 1.577, 5.42)"/>
            <rect id="Rectangle_119" data-name="Rectangle 119" class="cls-12" width="15.229" height="1.5" transform="translate(1.302 13.188) rotate(-59.995)"/>
          </g>
          <g id="Group_2105" data-name="Group 2105" transform="translate(51.138)">
            <rect id="Rectangle_120" data-name="Rectangle 120" class="cls-12" width="1.5" height="12.434" transform="translate(5.009 0.752)"/>
            <rect id="Rectangle_121" data-name="Rectangle 121" class="cls-12" width="12.435" height="1.5" transform="matrix(0.866, -0.5, 0.5, 0.866, 0, 9.429)"/>
            <rect id="Rectangle_122" data-name="Rectangle 122" class="cls-12" width="1.5" height="8.792" transform="matrix(0.5, -0.866, 0.866, 0.5, 1.577, 5.421)"/>
            <rect id="Rectangle_123" data-name="Rectangle 123" class="cls-12" width="15.229" height="1.5" transform="matrix(0.5, -0.866, 0.866, 0.5, 1.302, 13.188)"/>
          </g>
        </g>
      </g>
      <g id="Group_2108" data-name="Group 2108" transform="translate(23.906 171.786)">
        <path id="Path_979" data-name="Path 979" class="cls-3" d="M227.254,261.843c1.037,0,1.5,1.551,1.5,3.088v11.748c0,3.572-2.2,7.862-4.809,9.366L146.4,330.817a2.751,2.751,0,0,1-1.306.43c-1.038,0-1.5-1.552-1.5-3.089V316.41c0-3.572,2.2-7.861,4.809-9.366l77.547-44.772a2.749,2.749,0,0,1,1.307-.429m0-2a4.658,4.658,0,0,0-2.306.7L147.4,305.312c-3.208,1.852-5.809,6.821-5.809,11.1v11.748c0,3.185,1.442,5.089,3.5,5.089a4.663,4.663,0,0,0,2.306-.7l77.547-44.772c3.208-1.852,5.809-6.821,5.809-11.1V264.931c0-3.185-1.442-5.088-3.5-5.088Z" transform="translate(-141.591 -259.843)"/>
      </g>
    </g>
  </g>
  <g id="Icons" transform="translate(253.135 34.867)">
    <g id="Group_2110" data-name="Group 2110" transform="translate(0 28.801)">
      <path id="Path_980" data-name="Path 980" class="cls-8" d="M341.391,128.31a5,5,0,0,0,2.311,3.928c1.276.723,2.311.136,2.311-1.31A4.994,4.994,0,0,0,343.7,127C342.426,126.277,341.391,126.863,341.391,128.31Z" transform="translate(-294.313 -119.358)"/>
      <path id="Path_981" data-name="Path 981" class="cls-8" d="M310.417,137.625a11.83,11.83,0,0,1-5.746-1.722l-7.332-4.154a.5.5,0,1,1,.492-.87l7.332,4.154c3.162,1.792,6.1,2.08,8.272.814,2.125-1.239,3.3-3.851,3.3-7.355,0-3.876,1.347-6.8,3.793-8.221,2.494-1.452,5.785-1.165,9.267.809l11.849,6.713a.5.5,0,0,1-.492.87L329.3,121.95c-3.162-1.791-6.1-2.08-8.271-.814-2.126,1.238-3.3,3.851-3.3,7.356,0,3.875-1.346,6.794-3.792,8.219A6.9,6.9,0,0,1,310.417,137.625Z" transform="translate(-294.313 -119.358)"/>
      <path id="Path_982" data-name="Path 982" class="cls-8" d="M294.313,129.506a4.038,4.038,0,0,0,1.869,3.177c1.032.585,1.868.111,1.868-1.059a4.039,4.039,0,0,0-1.868-3.177C295.149,127.863,294.313,128.337,294.313,129.506Z" transform="translate(-294.313 -119.358)"/>
    </g>
    <g id="Group_2111" data-name="Group 2111" transform="translate(0 69.674)">
      <path id="Path_983" data-name="Path 983" class="cls-8" d="M341.391,215.717a5,5,0,0,0,2.311,3.928c1.276.723,2.311.137,2.311-1.309a5,5,0,0,0-2.311-3.928C342.426,213.684,341.391,214.271,341.391,215.717Z" transform="translate(-294.313 -160.231)"/>
      <path id="Path_984" data-name="Path 984" class="cls-8" d="M341.48,216.811a.5.5,0,0,1-.246-.065l-11.848-6.713c-6.93-3.927-12.567-13.512-12.567-21.366,0-7.533-5.41-16.727-12.059-20.5l-7.421-4.2a.5.5,0,1,1,.492-.87l7.421,4.2c6.93,3.927,12.567,13.512,12.567,21.366,0,7.533,5.41,16.728,12.059,20.5l11.849,6.713a.5.5,0,0,1-.247.935Z" transform="translate(-294.313 -160.231)"/>
      <path id="Path_985" data-name="Path 985" class="cls-8" d="M294.313,161.541a4.038,4.038,0,0,0,1.869,3.177c1.032.584,1.868.11,1.868-1.059a4.04,4.04,0,0,0-1.868-3.177C295.149,159.9,294.313,160.371,294.313,161.541Z" transform="translate(-294.313 -160.231)"/>
    </g>
    <g id="Group_2114" data-name="Group 2114" transform="translate(60.233)">
      <g id="Group_2112" data-name="Group 2112">
        <path id="Path_987" data-name="Path 987" class="cls-16" d="M412.594,118.884l-48.98-27.741a2.986,2.986,0,0,0-3.558-.007l-4.232,2.927,2.886,3.568v51.625c0,3.611,2.2,7.806,4.9,9.37l47.764,27.039.225,3.845,4.458-3.056a4.608,4.608,0,0,0,1.436-3.794V128.254C417.5,124.642,415.3,120.448,412.594,118.884Z" transform="translate(-354.546 -90.557)"/>
        <path id="Path_986" data-name="Path 986" class="cls-17" d="M412.594,118.884l-48.98-27.741a2.986,2.986,0,0,0-3.558-.007l-4.232,2.927,2.886,3.568v51.625c0,3.611,2.2,7.806,4.9,9.37l47.764,27.039.225,3.845,4.458-3.056a4.608,4.608,0,0,0,1.436-3.794V128.254C417.5,124.642,415.3,120.448,412.594,118.884Z" transform="translate(-354.546 -90.557)"/>
        <path id="Path_988" data-name="Path 988" class="cls-18" d="M408.43,189.233l-48.98-27.741c-2.708-1.564-4.9-5.759-4.9-9.37V97.716c0-3.611,2.2-5.271,4.9-3.707l48.98,27.741c2.708,1.564,4.9,5.758,4.9,9.369v54.407C413.334,189.137,411.138,190.8,408.43,189.233Z" transform="translate(-354.546 -90.557)"/>
      </g>
      <g id="Group_2113" data-name="Group 2113" transform="translate(13.518 28.272)">
        <path id="Path_989" data-name="Path 989" class="cls-4" d="M398.138,142.154a.5.5,0,0,1-.484-.371,39.98,39.98,0,0,0-4.8-10.92.5.5,0,0,1,.844-.536,41.019,41.019,0,0,1,4.918,11.2.5.5,0,0,1-.352.613A.534.534,0,0,1,398.138,142.154Z" transform="translate(-368.064 -118.83)"/>
        <path id="Path_990" data-name="Path 990" class="cls-4" d="M399.263,152.316h-.034a.5.5,0,0,1-.466-.531c.035-.538.053-1.094.053-1.664a30.216,30.216,0,0,0-.451-5.1.5.5,0,0,1,.987-.169,31.372,31.372,0,0,1,.464,5.273q0,.89-.055,1.729A.5.5,0,0,1,399.263,152.316Z" transform="translate(-368.064 -118.83)"/>
        <path id="Path_991" data-name="Path 991" class="cls-4" d="M368.675,135.722a.5.5,0,0,1-.5-.456c-.076-.868-.114-1.733-.114-2.571,0-4.851,1.307-8.858,3.681-11.284a.5.5,0,1,1,.715.7c-2.19,2.239-3.4,6-3.4,10.585,0,.809.037,1.645.11,2.484a.5.5,0,0,1-.454.541A.347.347,0,0,1,368.675,135.722Z" transform="translate(-368.064 -118.83)"/>
        <path id="Path_992" data-name="Path 992" class="cls-4" d="M390.789,127.633a.5.5,0,0,1-.387-.183,24.319,24.319,0,0,0-6.708-5.879c-3.322-1.882-6.439-2.244-9.01-1.049a.5.5,0,0,1-.422-.907c2.878-1.336,6.308-.963,9.924,1.086a25.347,25.347,0,0,1,6.99,6.116.5.5,0,0,1-.387.816Z" transform="translate(-368.064 -118.83)"/>
        <path id="Path_993" data-name="Path 993" class="cls-4" d="M372.122,136.1a.5.5,0,0,1-.5-.478c-.013-.311-.018-.62-.018-.926,0-3.553.87-6.451,2.515-8.382a.5.5,0,0,1,.762.648c-1.49,1.748-2.277,4.423-2.277,7.734,0,.293.005.588.018.883a.5.5,0,0,1-.479.521Z" transform="translate(-368.064 -118.83)"/>
        <path id="Path_994" data-name="Path 994" class="cls-4" d="M376.045,125.807a.5.5,0,0,1-.262-.926,6.685,6.685,0,0,1,4.245-.925.5.5,0,1,1-.1.995,5.68,5.68,0,0,0-3.624.782A.5.5,0,0,1,376.045,125.807Z" transform="translate(-368.064 -118.83)"/>
        <path id="Path_995" data-name="Path 995" class="cls-4" d="M398.138,158.749a.5.5,0,0,1-.464-.312l-.586-1.45a23.84,23.84,0,0,1-1.812-8.836c0-8.481-5.2-18.295-11.582-21.913a.5.5,0,0,1,.492-.87c6.668,3.777,12.09,13.981,12.09,22.746a22.863,22.863,0,0,0,1.74,8.5l.586,1.45a.5.5,0,0,1-.277.651A.493.493,0,0,1,398.138,158.749Z" transform="translate(-368.064 -118.83)"/>
        <path id="Path_996" data-name="Path 996" class="cls-4" d="M375.181,153a.5.5,0,0,1-.47-.328,62.1,62.1,0,0,1-3.107-14.607.5.5,0,0,1,.462-.534.521.521,0,0,1,.536.462,60.983,60.983,0,0,0,3.048,14.336.5.5,0,0,1-.469.671Z" transform="translate(-368.064 -118.83)"/>
        <path id="Path_997" data-name="Path 997" class="cls-4" d="M395.2,162.122a.5.5,0,0,1-.468-.327l-1.333-3.591a32.2,32.2,0,0,1-2.152-10.993v-3.932c0-4.666-3.35-10.36-7.469-12.693-1.923-1.089-3.7-1.271-5-.511-1.274.742-1.975,2.323-1.975,4.452V138a46.9,46.9,0,0,0,3.345,16.494l1.651,4.3a.5.5,0,0,1-.934.359l-1.651-4.3A47.93,47.93,0,0,1,375.8,138v-3.471c0-2.5.878-4.388,2.472-5.317,1.625-.946,3.754-.765,6,.506,4.4,2.492,7.976,8.576,7.976,13.563v3.932a31.223,31.223,0,0,0,2.089,10.645l1.333,3.592a.5.5,0,0,1-.3.642A.486.486,0,0,1,395.2,162.122Z" transform="translate(-368.064 -118.83)"/>
        <path id="Path_998" data-name="Path 998" class="cls-4" d="M390.789,163.554a.5.5,0,0,1-.479-.358l-.7-2.352a45.2,45.2,0,0,1-1.995-12.779v-6.083a8.691,8.691,0,0,0-4.015-6.822,2.566,2.566,0,0,0-2.542-.284,2.473,2.473,0,0,0-.981,2.268c0,6.752,2.057,14.544,5.791,21.939l1.4,2.783a.5.5,0,1,1-.892.451l-1.4-2.783c-3.8-7.532-5.9-15.484-5.9-22.39a3.412,3.412,0,0,1,1.478-3.133,3.5,3.5,0,0,1,3.537.279,9.792,9.792,0,0,1,4.523,7.692v6.083a44.2,44.2,0,0,0,1.954,12.495l.7,2.352a.5.5,0,0,1-.337.622A.509.509,0,0,1,390.789,163.554Z" transform="translate(-368.064 -118.83)"/>
        <path id="Path_999" data-name="Path 999" class="cls-4" d="M385.183,153a.5.5,0,0,1-.489-.4l-.46-2.139a29.887,29.887,0,0,1-.664-6.255v-5.636a.5.5,0,0,1,1,0v5.636a28.77,28.77,0,0,0,.643,6.045l.46,2.14a.5.5,0,0,1-.384.593A.484.484,0,0,1,385.183,153Z" transform="translate(-368.064 -118.83)"/>
        <path id="Path_1000" data-name="Path 1000" class="cls-4" d="M369.76,142.154a.5.5,0,0,1-.5-.451l-.291-2.925a.5.5,0,0,1,.447-.547.493.493,0,0,1,.547.449l.291,2.925a.5.5,0,0,1-.448.546Z" transform="translate(-368.064 -118.83)"/>
      </g>
    </g>
    <g id="Group_2119" data-name="Group 2119" transform="translate(60.233 92.652)">
      <g id="Group_2115" data-name="Group 2115">
        <path id="Path_1001" data-name="Path 1001" class="cls-17" d="M412.594,211.536l-48.98-27.742a2.987,2.987,0,0,0-3.558-.006l-4.232,2.926,2.886,3.569v51.625c0,3.611,2.2,7.806,4.9,9.37l47.764,27.039.225,3.845,4.458-3.056a4.607,4.607,0,0,0,1.436-3.794V220.9C417.5,217.294,415.3,213.1,412.594,211.536Z" transform="translate(-354.546 -183.209)"/>
        <path id="Path_1003" data-name="Path 1003" class="cls-18" d="M408.43,281.885l-48.98-27.741c-2.708-1.564-4.9-5.759-4.9-9.37V190.368c0-3.611,2.2-5.271,4.9-3.708L408.43,214.4c2.708,1.563,4.9,5.758,4.9,9.369v54.407C413.334,281.789,411.138,283.448,408.43,281.885Z" transform="translate(-354.546 -183.209)"/>
      </g>
      <g id="Group_2116" data-name="Group 2116" transform="translate(10.403 16.556)">
        <path id="Path_1004" data-name="Path 1004" class="cls-4" d="M365.449,205.548a.5.5,0,0,1-.5-.5v-3.373a1.884,1.884,0,0,1,.949-1.641,1.938,1.938,0,0,1,1.948-.013l3.535,2a.5.5,0,0,1-.492.87l-3.535-2a.948.948,0,0,0-.952.006.882.882,0,0,0-.453.777v3.373A.5.5,0,0,1,365.449,205.548Z" transform="translate(-364.949 -199.765)"/>
        <path id="Path_1005" data-name="Path 1005" class="cls-4" d="M371.135,251.925a.5.5,0,0,1-.246-.065l-3.3-1.872a5.174,5.174,0,0,1-2.637-4.486v-3.109a.5.5,0,1,1,1,0V245.5a4.174,4.174,0,0,0,2.129,3.616l3.3,1.872a.5.5,0,0,1-.246.935Z" transform="translate(-364.949 -199.765)"/>
        <path id="Path_1006" data-name="Path 1006" class="cls-4" d="M401,268.631a1.952,1.952,0,0,1-.963-.257l-3.535-2a.5.5,0,0,1,.492-.87l3.535,2a.947.947,0,0,0,.952-.006.881.881,0,0,0,.453-.777v-3.373a.5.5,0,0,1,1,0v3.373a1.883,1.883,0,0,1-.95,1.641A1.949,1.949,0,0,1,401,268.631Z" transform="translate(-364.949 -199.765)"/>
        <path id="Path_1007" data-name="Path 1007" class="cls-4" d="M402.431,226.5a.5.5,0,0,1-.5-.5v-3.108a4.174,4.174,0,0,0-2.129-3.616l-3.3-1.872a.5.5,0,1,1,.492-.87l3.3,1.872a5.174,5.174,0,0,1,2.637,4.486V226A.5.5,0,0,1,402.431,226.5Z" transform="translate(-364.949 -199.765)"/>
      </g>
      <g id="Group_2117" data-name="Group 2117" transform="translate(15.336 28.634)">
        <path id="Path_1008" data-name="Path 1008" class="cls-4" d="M369.884,222.371a69.1,69.1,0,0,0,2.412,16.8c3.808,14.331,18.794,23.147,22.912,13.437A38.184,38.184,0,0,0,398,237.558c0-8.8-6.3-19.5-14.061-23.9C376.022,209.175,369.769,213.337,369.884,222.371Z" transform="translate(-369.882 -211.843)"/>
      </g>
      <path id="Path_1009" data-name="Path 1009" class="cls-2" d="M383.439,230.38V239.8l-4.093-3.064Z" transform="translate(-354.546 -183.209)"/>
      <g id="Group_2118" data-name="Group 2118" transform="translate(21.28 40.6)">
        <path id="Path_1010" data-name="Path 1010" class="cls-2" d="M375.826,224.754a2.918,2.918,0,0,0,1.348,2.293c.745.422,1.349.08,1.349-.764a2.916,2.916,0,0,0-1.349-2.293C376.43,223.568,375.826,223.91,375.826,224.754Z" transform="translate(-375.826 -223.809)"/>
        <path id="Path_1011" data-name="Path 1011" class="cls-2" d="M388.355,231.928a2.915,2.915,0,0,0,1.348,2.293c.745.422,1.349.08,1.349-.764a2.916,2.916,0,0,0-1.349-2.293C388.958,230.742,388.355,231.084,388.355,231.928Z" transform="translate(-375.826 -223.809)"/>
      </g>
      <path id="Path_1012" data-name="Path 1012" class="cls-2" d="M382.09,244.413l4.571-.775S385.687,248.522,382.09,244.413Z" transform="translate(-354.546 -183.209)"/>
    </g>
  </g>
  <g id="Character" transform="translate(180.117 153.851)">
    <g id="Group_2121" data-name="Group 2121">
      <path id="Path_1013" data-name="Path 1013" class="cls-19" d="M308.378,253.2s7.289-.491,11.424,9.64c2.57,6.3,5.7,16.03,7.7,22.494a10.437,10.437,0,0,1-3.26,11.084l-12.71,10.665-4.548-8.27a86.15,86.15,0,0,1,8.683-9.924l-8.683-26.049Z" transform="translate(-221.294 -209.541)"/>
      <path id="Path_1014" data-name="Path 1014" class="cls-5" d="M311.739,284.138s11.577,1.531,14.472-7.4c0,0-4.962-13.066-7.236-17.408s-6.929-7.5-10.6-6.125S311.739,284.138,311.739,284.138Z" transform="translate(-221.294 -209.541)"/>
      <path id="Path_1016" data-name="Path 1016" class="cls-7" d="M304.013,401.4s-5.505-4.714-7.641-4.935-5.84,3.442-2.712,9.8c.87,1.768,4.406,3.683,6.616,7.071s4.2,5.935,7.586,5.472,3.83-2.378,3.609-4.588a52.3,52.3,0,0,0-1.215-6Z" transform="translate(-221.294 -209.541)"/>
      <path id="Path_1017" data-name="Path 1017" class="cls-9" d="M308.043,417.789c-3.492.478-5.542-2.147-7.82-5.64s-5.922-5.466-6.819-7.288a13.047,13.047,0,0,1-.88-2.276,11.244,11.244,0,0,0,1.136,3.676c.871,1.768,4.406,3.683,6.616,7.071s4.2,5.935,7.586,5.472c2.6-.355,3.456-1.564,3.62-3.1C311.034,416.738,310.05,417.515,308.043,417.789Z" transform="translate(-221.294 -209.541)"/>
      <path id="Path_1018" data-name="Path 1018" class="cls-13" d="M301.077,407.457a.536.536,0,0,1-.471-.786,8.6,8.6,0,0,1,5.176-4.057.534.534,0,1,1,.237,1.042,7.643,7.643,0,0,0-4.47,3.519A.535.535,0,0,1,301.077,407.457Z" transform="translate(-221.294 -209.541)"/>
      <path id="Path_1019" data-name="Path 1019" class="cls-13" d="M299.022,405.563a.526.526,0,0,1-.251-.064.533.533,0,0,1-.22-.722,8.6,8.6,0,0,1,5.176-4.057.534.534,0,1,1,.236,1.042,7.639,7.639,0,0,0-4.47,3.519A.534.534,0,0,1,299.022,405.563Z" transform="translate(-221.294 -209.541)"/>
      <path id="Path_1020" data-name="Path 1020" class="cls-13" d="M296.673,403.669a.536.536,0,0,1-.471-.786,8.59,8.59,0,0,1,5.175-4.056.534.534,0,1,1,.236,1.042,7.632,7.632,0,0,0-4.468,3.518A.536.536,0,0,1,296.673,403.669Z" transform="translate(-221.294 -209.541)"/>
      <path id="Path_1021" data-name="Path 1021" class="cls-7" d="M274.732,416.851s-7.373-2.392-9.574-1.733-4.352,5.8,1.35,10.789c1.586,1.388,5.864,1.826,9.439,4.263s6.585,4.135,9.741,2.285,2.9-3.978,2.336-6.286c-.716-2.94-1.29-5.076-1.29-5.076Z" transform="translate(-221.294 -209.541)"/>
      <path id="Path_1022" data-name="Path 1022" class="cls-9" d="M285.449,431.379c-3.252,1.906-6.356.157-10.04-2.355s-8.1-2.964-9.73-4.395a14.087,14.087,0,0,1-1.8-1.885,12.04,12.04,0,0,0,2.634,3.163c1.586,1.388,5.864,1.826,9.439,4.263s6.585,4.135,9.741,2.285c2.417-1.417,2.77-2.965,2.3-4.552C287.971,429.11,287.318,430.283,285.449,431.379Z" transform="translate(-221.294 -209.541)"/>
      <path id="Path_1023" data-name="Path 1023" class="cls-13" d="M272.973,423.658a.467.467,0,0,1-.053,0,.533.533,0,0,1-.48-.582,9.148,9.148,0,0,1,3.427-6.106.534.534,0,1,1,.619.871,8.2,8.2,0,0,0-2.982,5.338A.534.534,0,0,1,272.973,423.658Z" transform="translate(-221.294 -209.541)"/>
      <path id="Path_1024" data-name="Path 1024" class="cls-13" d="M276.018,424.655a.462.462,0,0,1-.053,0,.534.534,0,0,1-.481-.582,9.159,9.159,0,0,1,3.428-6.107.534.534,0,1,1,.619.871,8.209,8.209,0,0,0-2.982,5.338A.535.535,0,0,1,276.018,424.655Z" transform="translate(-221.294 -209.541)"/>
      <path id="Path_1025" data-name="Path 1025" class="cls-13" d="M270.164,422.633l-.053,0a.534.534,0,0,1-.48-.582,9.151,9.151,0,0,1,3.428-6.106.534.534,0,0,1,.619.871,8.2,8.2,0,0,0-2.983,5.338A.534.534,0,0,1,270.164,422.633Z" transform="translate(-221.294 -209.541)"/>
      <g id="Group_2120" data-name="Group 2120" transform="translate(72.366 100.773)">
        <path id="Path_1026" data-name="Path 1026" class="cls-8" d="M310.6,402.8c.66-7.3,2.091-18.742,2.686-24.091a69.218,69.218,0,0,0-.577-20.311,16.66,16.66,0,0,1-.23-4.8c1.445-14.542,2.394-38.11,1.593-43.289l-20.413,4.319s2.5,33.066,3.6,44.065c1.1,11.072,5.207,44.2,5.207,44.2A7.4,7.4,0,0,0,310.6,402.8Z" transform="translate(-293.66 -310.314)"/>
        <path id="Path_1027" data-name="Path 1027" class="cls-19" d="M307.659,410.312a3.856,3.856,0,0,0,2.6-2.1c0-1.151.134-3.072.345-5.408a7.4,7.4,0,0,1-8.139.1l.723,6.142A5.288,5.288,0,0,0,307.659,410.312Z" transform="translate(-293.66 -310.314)"/>
      </g>
      <path id="Path_1028" data-name="Path 1028" class="cls-8" d="M287.637,415.635c.832-11.05,2.441-32.468,2.655-35.831a53.024,53.024,0,0,0-.7-11.114,16.978,16.978,0,0,1,.033-5.994l8.971-49.774-24.667-.361-1.614,52.145a14.638,14.638,0,0,0,.077,2.019l5.232,48.6h0S282.722,419.605,287.637,415.635Z" transform="translate(-221.294 -209.541)"/>
      <path id="Path_1029" data-name="Path 1029" class="cls-19" d="M283.524,424.761a4.656,4.656,0,0,0,3.616-2.541l.5-6.585c-4.915,3.97-10.017-.31-10.017-.31h0l.784,7.288S279.564,425.132,283.524,424.761Z" transform="translate(-221.294 -209.541)"/>
      <path id="Path_1030" data-name="Path 1030" class="cls-3" d="M285.323,256.519l-5.818,1.988-6.261,29.61.3,26.256s4.471,3.562,21.934,3.562c9.8,0,16.184-3.691,18.592-7.621l-1.57-15.863s1.57-15.63,1.57-23.356.344-14.061-5.7-17.891l-5.377.442Z" transform="translate(-221.294 -209.541)"/>
      <path id="Path_1032" data-name="Path 1032" class="cls-20" d="M279,231.073l-2.914,5.766a.655.655,0,0,0,.377.916l3.458,1.151Z" transform="translate(-221.294 -209.541)"/>
      <path id="Path_1033" data-name="Path 1033" class="cls-19" d="M283.04,221.4s-4.419,2.381-4.419,16.043c0,7.512.515,12.3,4.419,12.006s15.136-1.768,15.136-1.768V221.4Z" transform="translate(-221.294 -209.541)"/>
      <path id="Path_1034" data-name="Path 1034" class="cls-20" d="M283.04,249.448c1.372-.1,3.651-.354,6.027-.633v-1.393a31.267,31.267,0,0,1-6.679,2.022A4.155,4.155,0,0,0,283.04,249.448Z" transform="translate(-221.294 -209.541)"/>
      <path id="Path_1035" data-name="Path 1035" class="cls-19" d="M288.4,246.839v8.575h11.73V243.365Z" transform="translate(-221.294 -209.541)"/>
      <path id="Path_1036" data-name="Path 1036" class="cls-21" d="M288.4,252.148s4.217,1.5,7.606.909,4.124-2.652,4.124-2.652,1.105-.084,2.873,3.241a8.608,8.608,0,0,1-6.85,4.419,26.567,26.567,0,0,1-10.828-1.546S286.953,251.722,288.4,252.148Z" transform="translate(-221.294 -209.541)"/>
      <path id="Path_1037" data-name="Path 1037" class="cls-22" d="M288.4,252.148s4.217,1.5,7.606.909,4.124-2.652,4.124-2.652,1.105-.084,2.873,3.241a8.608,8.608,0,0,1-6.85,4.419,26.567,26.567,0,0,1-10.828-1.546S286.953,251.722,288.4,252.148Z" transform="translate(-221.294 -209.541)"/>
      <path id="Path_1038" data-name="Path 1038" class="cls-19" d="M262.232,277.586l-3.151,4.847s-7.649-3.412-13.024-5.479a30.136,30.136,0,0,1-8.58-4.939,46,46,0,0,1,1.033-6.2c.621-2.1.827-3.852-1.033-2.922s-3.1,4.549-3.205,4.962c0,0-10.751-10.8-12.1-10.57s-1.032,1.86,1.861,5.2l2.894,3.335s-6.6,3.8-5.519,7.932,9.758,6,9.758,6,25.424,19.537,31.061,16.023,13.6-13.646,13.6-13.646Z" transform="translate(-221.294 -209.541)"/>
      <path id="Path_1039" data-name="Path 1039" class="cls-5" d="M281.812,257.752s4.694,3.859,1.635,11.838-10.865,17.617-10.865,17.617-8.186-2.544-11.343-9.156L271.558,261.9a8.688,8.688,0,0,1,6.756-4C279.287,257.843,280.445,257.788,281.812,257.752Z" transform="translate(-221.294 -209.541)"/>
      <path id="Path_1041" data-name="Path 1041" class="cls-9" d="M281.346,213.356s-4.636-.616-5.819,2.578c-.736,1.989,1.621,3.536,1.621,3.536s-2.991,2.815,1.473,3.682a2.94,2.94,0,0,0,3.609,3.315s-.516,3.037,3.388,4.1c0,0-1.973,5.257,1.739,5.331h3.475l-1.4,4.051s2.6,6.261,10.7,6.261a53.49,53.49,0,0,1,3.02-5.525c.958-1.252,5.966-7.66,5.966-12.742s-1.955-8.093-4.66-8.76a11.6,11.6,0,0,0-3.884-4.645c-2.725-1.842-8.47-3.484-11.711-1.227,0,0-2.873-3.767-4.861-3.767S281.346,211.588,281.346,213.356Z" transform="translate(-221.294 -209.541)"/>
      <path id="Path_1042" data-name="Path 1042" class="cls-19" d="M287.357,235.9s-.34-5.331,4.154-5.331,3.426,9.382-2.08,9.382Z" transform="translate(-221.294 -209.541)"/>
    </g>
  </g>
</svg>
