<svg id="Group_2152" data-name="Group 2152" xmlns="http://www.w3.org/2000/svg" xmlns:xlink="http://www.w3.org/1999/xlink" width="1544.343" height="475.267" viewBox="0 0 1544.343 475.267">
  <defs>
    <style>
      .cls-1, .cls-2, .cls-8 {
        fill: #2b2716;
      }

      .cls-1 {
        font-size: 28px;
        font-family: ProximaNova-Regular, Proxima Nova;
      }

      .cls-1, .cls-2 {
        letter-spacing: 0.05em;
      }

      .cls-2 {
        font-size: 50px;
        font-family: Oxygen-Bold, Oxygen;
        font-weight: 700;
      }

      .cls-3 {
        fill: #ecf7ff;
      }

      .cls-4 {
        fill: #989898;
      }

      .cls-5 {
        opacity: 0.68;
      }

      .cls-23, .cls-6 {
        fill: #fff;
      }

      .cls-6 {
        mix-blend-mode: soft-light;
        isolation: isolate;
      }

      .cls-7 {
        fill: #7c7a6f;
      }

      .cls-9 {
        fill: #707070;
      }

      .cls-10 {
        fill: url(#linear-gradient);
      }

      .cls-11 {
        fill: url(#linear-gradient-3);
      }

      .cls-12 {
        fill: url(#linear-gradient-4);
      }

      .cls-13 {
        fill: #001164;
      }

      .cls-14 {
        fill: #91b3fa;
      }

      .cls-15 {
        fill: url(#linear-gradient-5);
      }

      .cls-16 {
        fill: url(#linear-gradient-6);
      }

      .cls-17 {
        fill: url(#linear-gradient-7);
      }

      .cls-18 {
        fill: url(#linear-gradient-8);
      }

      .cls-19 {
        fill: url(#linear-gradient-9);
      }

      .cls-20 {
        fill: url(#linear-gradient-10);
      }

      .cls-21 {
        fill: url(#linear-gradient-11);
      }

      .cls-22 {
        fill: #0090ff;
      }
    </style>
    <linearGradient id="linear-gradient" y1="0.5" x2="1" y2="0.5" gradientUnits="objectBoundingBox">
      <stop offset="0" stop-color="#febbba"/>
      <stop offset="1" stop-color="#ff928e"/>
    </linearGradient>
    <linearGradient id="linear-gradient-3" x1="0.296" y1="-0.063" x2="2.651" y2="6.426" gradientUnits="objectBoundingBox">
      <stop offset="0" stop-color="#09005d"/>
      <stop offset="1" stop-color="#1a0f91"/>
    </linearGradient>
    <linearGradient id="linear-gradient-4" x1="0.534" y1="0.308" x2="-0.337" y2="1.354" xlink:href="#linear-gradient"/>
    <linearGradient id="linear-gradient-5" x1="0.301" y1="1.478" x2="0.574" y2="0.434" xlink:href="#linear-gradient"/>
    <linearGradient id="linear-gradient-6" x1="0.821" y1="0.35" x2="-0.291" y2="1.106" xlink:href="#linear-gradient"/>
    <linearGradient id="linear-gradient-7" x1="0.28" y1="0.152" x2="1.03" y2="1.129" gradientUnits="objectBoundingBox">
      <stop offset="0" stop-color="#707070"/>
      <stop offset="1" stop-color="#1a0f91"/>
    </linearGradient>
    <linearGradient id="linear-gradient-8" x1="2.74" y1="-0.685" x2="-1.811" y2="1.784" xlink:href="#linear-gradient"/>
    <linearGradient id="linear-gradient-9" x1="2.019" y1="-10.652" x2="0.377" y2="1.165" xlink:href="#linear-gradient"/>
    <linearGradient id="linear-gradient-10" x1="0.579" y1="0.379" x2="1.163" y2="-2.74" xlink:href="#linear-gradient"/>
    <linearGradient id="linear-gradient-11" y1="0.5" x2="1" y2="0.5" gradientUnits="objectBoundingBox">
      <stop offset="0" stop-color="#4f52ff"/>
      <stop offset="1" stop-color="#4042e2"/>
    </linearGradient>
  </defs>
  <g id="Group_645" data-name="Group 645" transform="translate(0 132.634)">
    <text id="Have_multiple_warehouses_offices_or_retail_stores_No_problem._Easily_track_where_all_your_inventory_is_by_organizing_everything_into_locations_and_zones." data-name="Have multiple warehouses, offices, or retail stores? No problem. Easily track where all your inventory is by organizing everything into locations and zones." class="cls-1" transform="translate(0 98)"><tspan x="0" y="26">Have multiple warehouses, offices, or retail stores? No </tspan><tspan x="0" y="58">problem. Easily track where all your inventory is by </tspan><tspan x="0" y="90">organizing everything into locations and zones.</tspan></text>
    <text id="Locations_Zones" data-name="Locations &amp; Zones" class="cls-2" transform="translate(0 62)"><tspan x="0" y="0">Locations &amp; Zones</tspan></text>
  </g>
  <g id="Group_661" data-name="Group 661" transform="translate(1067.343 0)">
    <path id="Path_213" data-name="Path 213" class="cls-3" d="M885.049,855.746c-9.531,10.034-18.55,16.505-25.675,21.618-83.757,60.1-182.864,42.579-203.927,38.3-31.1-6.317-91.226-18.528-134.693-69.645-65.763-77.335-55.522-199.175-4.512-279.6,9.331-14.712,58.617-96.365,158.791-109.46,60.625-7.925,131.293,8.059,182.47,50.934C964.925,597.891,957.278,779.706,885.049,855.746Z" transform="translate(-470.473 -455)"/>
    <g id="Group_647" data-name="Group 647" transform="translate(8.533 17.502)">
      <ellipse id="Ellipse_8" data-name="Ellipse 8" class="cls-4" cx="198.247" cy="213.988" rx="198.247" ry="213.988" transform="translate(0 396.113) rotate(-87.486)"/>
      <g id="Group_646" data-name="Group 646" class="cls-5" transform="translate(27.792 14.187)">
        <path id="Path_214" data-name="Path 214" class="cls-6" d="M1595.474,841.347c-.019,17.5-.66,35-2.022,52.448-1.4,17.446-3.544,34.841-6.648,52.079-3.169,17.214-7.2,34.336-13.306,50.82a119.293,119.293,0,0,1-11.557,23.71,47.5,47.5,0,0,1-8.687,10.109,24.824,24.824,0,0,1-5.7,3.667,17.133,17.133,0,0,1-6.678,1.565,16.9,16.9,0,0,1-6.752-1.236,23.331,23.331,0,0,1-5.839-3.467,45.117,45.117,0,0,1-8.876-9.952,115.443,115.443,0,0,1-11.723-23.629,242.119,242.119,0,0,1-7.83-25.112c-2.187-8.487-4.025-17.057-5.608-25.67-3.16-17.228-5.321-34.62-6.786-52.062s-2.192-34.944-2.3-52.448c-.051-8.75.217-17.5.537-26.242q.512-13.114,1.494-26.2c1.321-17.448,3.282-34.855,6.182-52.12,1.455-8.63,3.15-17.224,5.186-25.741a247.563,247.563,0,0,1,7.348-25.228,114.314,114.314,0,0,1,11.236-23.786,43.273,43.273,0,0,1,8.673-10,22.158,22.158,0,0,1,5.743-3.429,16.232,16.232,0,0,1,6.608-1.164,17.574,17.574,0,0,1,6.527,1.521,25.454,25.454,0,0,1,5.667,3.524,48.231,48.231,0,0,1,8.856,9.819,118.224,118.224,0,0,1,12.144,23.331c6.509,16.3,10.921,33.327,14.4,50.477a495.8,495.8,0,0,1,7.382,51.973C1594.674,806.342,1595.422,823.844,1595.474,841.347Zm-3.328,0c.042-17.412-.609-34.83-2.045-52.182a503.767,503.767,0,0,0-6.74-51.77c-3.214-17.094-7.364-34.077-13.586-50.315a116.767,116.767,0,0,0-11.658-23.2,47.026,47.026,0,0,0-8.487-9.688c-3.266-2.726-7.234-4.82-11.5-4.951a15.017,15.017,0,0,0-6.177,1.172,21.059,21.059,0,0,0-5.408,3.336,42.058,42.058,0,0,0-8.278,9.826,112.855,112.855,0,0,0-10.748,23.619,245.829,245.829,0,0,0-6.938,25.134c-1.9,8.49-3.469,17.058-4.8,25.662-5.254,34.442-6.941,69.354-6.812,104.171q-.1,26.117,1.771,52.194c1.285,17.363,3.264,34.682,6.234,51.831,1.488,8.572,3.229,17.1,5.316,25.541a239.668,239.668,0,0,0,7.5,24.939,113.418,113.418,0,0,0,11.265,23.3,43.231,43.231,0,0,0,8.386,9.609c3.247,2.657,7.225,4.545,11.37,4.4,4.142-.113,8.025-2.167,11.2-4.917a45.593,45.593,0,0,0,8.216-9.777,117.23,117.23,0,0,0,11.1-23.389c5.861-16.344,9.7-33.387,12.67-50.519,2.955-17.151,4.908-34.473,6.21-51.835C1591.545,876.183,1592.156,858.764,1592.146,841.347Z" transform="translate(-1345.752 -647.135)"/>
        <path id="Path_215" data-name="Path 215" class="cls-6" d="M1196.814,835.9a255.306,255.306,0,0,1-9.088,66.862,215.091,215.091,0,0,1-28.051,61.283c-12.576,18.686-28.592,35.261-47.729,47.283a126.8,126.8,0,0,1-30.7,14.02,115.241,115.241,0,0,1-66.748.038,126.861,126.861,0,0,1-30.73-13.991c-19.163-12-35.216-28.569-47.828-47.255A215.494,215.494,0,0,1,907.8,902.832a242.213,242.213,0,0,1-6.819-33.156A248.158,248.158,0,0,1,901,802.137a242.106,242.106,0,0,1,6.848-33.145,215.385,215.385,0,0,1,28.194-61.257c12.62-18.663,28.668-35.205,47.821-47.17a127.518,127.518,0,0,1,30.7-13.924,114.192,114.192,0,0,1,66.614.035,127.392,127.392,0,0,1,30.667,13.956c19.126,11.983,35.138,28.535,47.722,47.2a214.967,214.967,0,0,1,28.1,61.229A255.282,255.282,0,0,1,1196.814,835.9Zm-3.815,0a251.662,251.662,0,0,0-8.621-65.933,213.871,213.871,0,0,0-26.91-60.744,174.175,174.175,0,0,0-20.781-26.04,145.179,145.179,0,0,0-25.726-21.153,124.256,124.256,0,0,0-30.2-13.987,110.568,110.568,0,0,0-65.762.035A124.151,124.151,0,0,0,984.839,662.1a145.037,145.037,0,0,0-25.679,21.174,174.02,174.02,0,0,0-20.727,26.047,213.455,213.455,0,0,0-26.815,60.715,244.444,244.444,0,0,0-6.439,32.654,255.217,255.217,0,0,0,.027,66.425,244.255,244.255,0,0,0,6.468,32.642,213.353,213.353,0,0,0,26.864,60.661,173.874,173.874,0,0,0,20.731,26.009,144.415,144.415,0,0,0,25.669,21.125,124.782,124.782,0,0,0,30.134,13.951,109.57,109.57,0,0,0,65.628.038,124.853,124.853,0,0,0,30.165-13.922,144.606,144.606,0,0,0,25.715-21.1,174.052,174.052,0,0,0,20.784-26,213.749,213.749,0,0,0,26.958-60.69A251.64,251.64,0,0,0,1193,835.9Z" transform="translate(-858.832 -641.693)"/>
        <path id="Path_216" data-name="Path 216" class="cls-6" d="M755.468,1328.208c14.867-.215,29.733-.307,44.6-.463l44.6-.263c14.867-.112,29.733-.1,44.6-.134l44.6-.078,89.2.233,44.6.287c14.867.17,29.733.27,44.6.5a.168.168,0,0,1,0,.337c-14.867.23-29.733.33-44.6.5l-44.6.287-89.2.233-44.6-.078c-14.866-.035-29.733-.022-44.6-.134l-44.6-.263c-14.867-.156-29.733-.248-44.6-.463a.251.251,0,0,1,0-.5Z" transform="translate(-739.721 -1210.901)"/>
        <path id="Path_217" data-name="Path 217" class="cls-6" d="M1060.3,888.115c10.555-.215,21.11-.307,31.665-.463l31.664-.262c10.555-.112,21.11-.1,31.664-.134l31.665-.077,31.664.088c10.555.053,21.11.024,31.665.145l31.664.287c10.555.17,21.11.27,31.664.5a.169.169,0,0,1,0,.337c-10.555.23-21.11.33-31.664.5l-31.664.287c-10.555.121-21.11.092-31.665.145l-31.664.088-31.665-.078c-10.555-.034-21.109-.022-31.664-.134l-31.664-.263c-10.555-.156-21.11-.248-31.665-.463a.251.251,0,0,1,0-.5Z" transform="translate(-992.814 -845.509)"/>
        <path id="Path_218" data-name="Path 218" class="cls-6" d="M664.151,1768.3l48.474-.463,48.474-.262c16.158-.112,32.316-.1,48.474-.134l48.474-.078L955,1767.6l48.474.287c16.158.17,32.316.27,48.474.5a.168.168,0,0,1,0,.337c-16.158.231-32.316.33-48.474.5l-48.474.287-96.949.233-48.474-.078c-16.158-.035-32.316-.023-48.474-.135l-48.474-.262-48.474-.463a.251.251,0,0,1,0-.5Z" transform="translate(-663.903 -1576.294)"/>
        <path id="Path_219" data-name="Path 219" class="cls-6" d="M755.468,2208.394c14.867-.215,29.733-.307,44.6-.463l44.6-.263c14.867-.112,29.733-.1,44.6-.134l44.6-.078,89.2.233,44.6.287c14.867.17,29.733.27,44.6.5a.168.168,0,0,1,0,.337c-14.867.23-29.733.33-44.6.5l-44.6.287-89.2.233-44.6-.077c-14.866-.035-29.733-.022-44.6-.135l-44.6-.262c-14.867-.156-29.733-.248-44.6-.463a.251.251,0,0,1,0-.5Z" transform="translate(-739.721 -1941.686)"/>
        <path id="Path_220" data-name="Path 220" class="cls-6" d="M1348.116,2651.129H1094.8a.879.879,0,1,1,0-1.759h253.316a.879.879,0,1,1,0,1.759Z" transform="translate(-1020.931 -2308.591)"/>
      </g>
    </g>
    <g id="Group_651" data-name="Group 651" transform="translate(0 148.796)">
      <g id="Group_649" data-name="Group 649" transform="translate(0 0)">
        <path id="Path_221" data-name="Path 221" class="cls-7" d="M1053.409,1534.6c-38.982-36.971-104.939-68.953-162.8-69.033l-4.977,60.616q2.326-.069,4.667-.072c48.174,0,94.93,27.167,123.409,61.588,7.889-16.59,24.234-27.5,31.923-44.366Z" transform="translate(-811.672 -1442.832)"/>
        <path id="Path_222" data-name="Path 222" class="cls-7" d="M589.321,1331.62l-93.661,45.511,13.319,9.959h84.569l4.007-52.956Z" transform="translate(-487.892 -1331.62)"/>
        <g id="Group_648" data-name="Group 648" transform="translate(0 0)">
          <path id="Path_223" data-name="Path 223" class="cls-8" d="M551.323,1331.62l-8.983,118.45-92.03-68.065a1.026,1.026,0,0,1,.164-1.749Z" transform="translate(-449.895 -1331.62)"/>
          <path id="Path_224" data-name="Path 224" class="cls-8" d="M965.443,1636.125c8.713-19.768,24.89-59.657,38.807-75.843-39.61-42.088-102.656-73.225-165-73.312l-4.977,60.616q2.326-.069,4.667-.072C889.757,1547.514,956.58,1583.86,965.443,1636.125Z" transform="translate(-769.027 -1460.601)"/>
        </g>
      </g>
      <g id="Group_650" data-name="Group 650" transform="translate(98.018 35.941)">
        <path id="Path_225" data-name="Path 225" class="cls-9" d="M1525.915,1750.827a.535.535,0,0,1-.413-.194c-10.969-13.291-27.54-26.43-47.923-38a.535.535,0,1,1,.528-.93c20.495,11.63,37.17,24.855,48.22,38.246a.535.535,0,0,1-.412.875Z" transform="translate(-1400.935 -1683.074)"/>
        <path id="Path_226" data-name="Path 226" class="cls-9" d="M1248.695,1609.107a.533.533,0,0,1-.249-.062,267.671,267.671,0,0,0-38.727-16.739.535.535,0,0,1,.345-1.012,268.776,268.776,0,0,1,38.882,16.805.535.535,0,0,1-.25,1.008Z" transform="translate(-1178.465 -1583.134)"/>
        <path id="Path_227" data-name="Path 227" class="cls-9" d="M1050.961,1550.042a.535.535,0,0,1-.155-.023,200.985,200.985,0,0,0-23-5.6.535.535,0,0,1,.187-1.053,202.041,202.041,0,0,1,23.124,5.625.535.535,0,0,1-.155,1.047Z" transform="translate(-1027.363 -1543.362)"/>
      </g>
    </g>
    <g id="Group_654" data-name="Group 654" transform="translate(179.291 0.427)">
      <g id="Group_653" data-name="Group 653" transform="translate(0)">
        <path id="Path_228" data-name="Path 228" class="cls-9" d="M1613.377,459.526l-10.89-1.091,2.575,5.315-50.209,86.695h89.99l19.718,5.79,8.593-4.8Z" transform="translate(-1546.591 -458.28)"/>
        <path id="Path_229" data-name="Path 229" class="cls-9" d="M1727.011,954.2v111.5c9.824,8.026,11.035,39.505,19.976,49.294,9.924-9.669,28.819-30.1,41.263-37.507V954.2Z" transform="translate(-1689.527 -869.897)"/>
        <g id="Group_652" data-name="Group 652">
          <path id="Path_230" data-name="Path 230" class="cls-8" d="M1507.294,555.579h116.852l-61.54-97.915a.312.312,0,0,0-.534.01L1506.328,553.9A1.117,1.117,0,0,0,1507.294,555.579Z" transform="translate(-1506.175 -457.518)"/>
          <path id="Path_231" data-name="Path 231" class="cls-8" d="M1661.413,988.931v131.676c11.135,8.026,19.589,19.515,28.53,29.3,9.924-9.669,21.575-29.5,33.692-37.145V988.931Z" transform="translate(-1635.063 -898.73)"/>
        </g>
      </g>
      <path id="Path_232" data-name="Path 232" class="cls-9" d="M1563.226,594.891h-19.605a1.255,1.255,0,0,1-1.094-1.87l47.671-84.975a.535.535,0,1,1,.932.523l-47.671,84.975a.186.186,0,0,0,.162.277h19.605a.535.535,0,0,1,0,1.069Z" transform="translate(-1536.222 -499.243)"/>
    </g>
    <g id="Group_655" data-name="Group 655" transform="translate(193.398 141.53)">
      <path id="Path_233" data-name="Path 233" class="cls-9" d="M1874.787,1476.886c-89.8.123-166.69,50.462-199.938,130.041h0s0,.022,0,.023c-.03.07-.061.149-.091.218l.04.006c-17.447,38.326-6.985,103.2-5.61,169.714l59.807,0h2.554a4.779,4.779,0,0,0,4.772-5.037c-2.718-50.422-5.058-101.148,2.082-143.5a76.411,76.411,0,0,1,16.9-36.465,156.079,156.079,0,0,1,119.8-55.468c1.561,0,3.117-.017,4.667.028Z" transform="translate(-1652.002 -1444.963)"/>
      <path id="Path_234" data-name="Path 234" class="cls-8" d="M1799.359,1445.525a1.473,1.473,0,0,0-1.475-1.353c-89.215.637-165.495,51.519-198.574,132.474h0v0l-.092.212h.041c-17.177,38.434-7.3,103.076-5.681,169.722a3.221,3.221,0,0,0,3.218,3.147h63.184a1.472,1.472,0,0,0,1.468-1.549c-2.865-55.105-6.164-103.567,1.351-149.367a79.384,79.384,0,0,1,17.2-37.824,154.941,154.941,0,0,1,119.556-56.21c1.021,0,2.04,0,3.056.007a1.468,1.468,0,0,0,1.479-1.589Z" transform="translate(-1589.284 -1417.802)"/>
      <path id="Path_235" data-name="Path 235" class="cls-9" d="M2790.956,1379.376l.231-.171-2.219-12.258-.21-.1-.04-.225-.219.1-90.536-43.663,6.245,82.344-1.578.724-7.309,29.57,9.306,7.484,2.315-1.711,0,.039,83.928-62.072.081-.06Z" transform="translate(-2507.585 -1317.247)"/>
      <path id="Path_236" data-name="Path 236" class="cls-8" d="M2642.4,1288.816l8.983,118.45,93.4-69.075Z" transform="translate(-2463.647 -1288.816)"/>
    </g>
    <g id="Group_659" data-name="Group 659" transform="translate(72.569 201.012)">
      <path id="Path_237" data-name="Path 237" class="cls-8" d="M1227.205,3182.417c-5.216.451-14.27,1.184-21.407,1.5-4.29.189-6.76-.231-8.183-.8,0,.16.007.312.013.453a1.476,1.476,0,0,0,1.4,1.394,250.687,250.687,0,0,0,28.03.028,1.051,1.051,0,0,0,.856-1.579A8.593,8.593,0,0,0,1227.205,3182.417Z" transform="translate(-1143.268 -2920.483)"/>
      <path id="Path_238" data-name="Path 238" class="cls-9" d="M1205.79,3132.393c7.137-.314,16.191-1.046,21.407-1.5-5.129-6.292-21.407-10.533-21.407-10.533h-4.6a19.281,19.281,0,0,0-3.585,11.23C1199.03,3132.161,1201.5,3132.582,1205.79,3132.393Z" transform="translate(-1143.259 -2868.961)"/>
      <path id="Path_239" data-name="Path 239" class="cls-10" d="M1214.178,3076.144l.43,8.514a1.944,1.944,0,0,0,1.66,1.829,7.562,7.562,0,0,0,3.454-.286,2.3,2.3,0,0,0,1.547-1.768l1.487-8.288Z" transform="translate(-1157.019 -2832.248)"/>
      <g id="Group_656" data-name="Group 656" transform="translate(0 246.518)">
        <path id="Path_240" data-name="Path 240" class="cls-9" d="M881.228,3222.913a4.488,4.488,0,0,1-3.715-3.55l-.008.044a4.048,4.048,0,0,0,1.981,4.332,10.314,10.314,0,0,0,5.485,1.11,5.074,5.074,0,0,0,4.113-2.452l.013-.022C887.393,3223.465,885,3223.593,881.228,3222.913Z" transform="translate(-877.428 -3197.675)"/>
        <path id="Path_241" data-name="Path 241" class="cls-9" d="M892.308,3091.592h-3.791c-5.775-.152-9.4,15.59-10.589,21.687a4.488,4.488,0,0,0,3.715,3.55c3.772.68,6.165.552,7.869-.538,3.12-5.306,4.667-13.078,5.411-17.613C895.768,3093.519,892.308,3091.592,892.308,3091.592Z" transform="translate(-877.843 -3091.591)"/>
      </g>
      <path id="Path_242" data-name="Path 242" class="cls-10" d="M932.551,3045.042l-2.105,8.374a2.273,2.273,0,0,0,1.183,2.576,8.067,8.067,0,0,0,4.36,1.055,1.9,1.9,0,0,0,1.549-1.266l3.091-8.81Z" transform="translate(-921.389 -2806.426)"/>
      <path id="Path_243" data-name="Path 243" class="cls-8" d="M1009.2,2383.684s-18.814,117.606-18.5,118.252a15.651,15.651,0,0,1-10.861.3s1.7-62.868,5.688-86.974c0,0-32.11,56.192-42.306,84.192a25.489,25.489,0,0,1-9.721-3.531s34.573-101.143,43.8-114.615Z" transform="translate(-923.981 -2255.353)"/>
      <path id="Path_244" data-name="Path 244" class="cls-11" d="M1241.722,2512.282a.549.549,0,0,1-.294-.084.556.556,0,0,1-.176-.766l7.031-11.23a.558.558,0,0,1,.361-.25l5.174-1.041a.556.556,0,1,1,.22,1.09l-4.94.994-6.9,11.027A.556.556,0,0,1,1241.722,2512.282Z" transform="translate(-1179.426 -2352.984)"/>
      <path id="Path_245" data-name="Path 245" class="cls-12" d="M1660.76,1716.841s-12.7,2.8-20.417,6.365a7.051,7.051,0,0,0-3.453,3.472c-2.309,5.059-9.219,17.745-22.619,23.8,1.93,2.561,5.037,7.889,6.39,16.844,8.048-5.99,15-15.994,18.332-32.4a6.546,6.546,0,0,0,5.709-.158c1.674-.813,3.607-1.966,5.058-2.873a6.629,6.629,0,0,0,2.941-3.949c.552-2.167.227-4.072.227-6.115l6.526-2.022A2.321,2.321,0,0,0,1660.76,1716.841Z" transform="translate(-1489.2 -1703.671)"/>
      <path id="Path_246" data-name="Path 246" class="cls-13" d="M1112.469,1927.607c-1.354-8.955-4.461-14.282-6.39-16.844-8.324,3.761-19.152,4.963-32.941.185a14.649,14.649,0,0,0-3.941-.777c-7.34-.43-31.529-1.216-51.545,5.4a15.554,15.554,0,0,0-9.383,8.541c-5.414,12.426-14.18,40.723,10.155,55.009A60.335,60.335,0,0,1,1024.3,1968c-3.919-6.61-5.08-15.639,1.875-27.4,5.071,13.693,7.45,33.672,7.947,42.514a19,19,0,0,1-1.489,8.5l-.125.293a1.007,1.007,0,0,0,.707,1.374c13.7,3.077,27.948,2.241,32.205,1.89a1.756,1.756,0,0,0,1.566-1.341c6.662-28.07,6.677-47.218,5.046-59.322C1078.261,1935.913,1097.316,1938.885,1112.469,1927.607Z" transform="translate(-981.008 -1863.958)"/>
      <path id="Path_247" data-name="Path 247" class="cls-14" d="M1387.323,1969.594a.556.556,0,0,1-.55-.483c-1.565-11.819-4.751-16.976-4.782-17.027a.556.556,0,0,1,.938-.6c.136.214,3.344,5.379,4.945,17.477a.555.555,0,0,1-.478.624A.577.577,0,0,1,1387.323,1969.594Z" transform="translate(-1296.276 -1898.276)"/>
      <path id="Path_248" data-name="Path 248" class="cls-15" d="M1201.624,1815.181s-1.386,14.654-2.606,18.988a1.482,1.482,0,0,0,.7,1.692c2.071,1.183,7.038,3.114,13.833-.216a3.082,3.082,0,0,0,1.711-2.9l-.6-14.16Z" transform="translate(-1144.386 -1785.319)"/>
      <g id="Group_657" data-name="Group 657" transform="translate(44.843 0)">
        <path id="Path_249" data-name="Path 249" class="cls-16" d="M1206.251,1704.736s4.433,10.183,4.73,15.528,1.449,8.813-4.73,9.889-11.386-2-14.206-7.326c0,0-4.419-8.2-3.428-11.563S1206.251,1704.736,1206.251,1704.736Z" transform="translate(-1180.519 -1693.62)"/>
        <path id="Path_250" data-name="Path 250" class="cls-17" d="M1155.254,1664.628l.352-.155a.848.848,0,0,0,.415-1.165c-.871-1.684-2.57-5.542-.376-6.442,2.828-1.16,14.032-3.445,16.449-7.42,2.323-3.821.265-8.753-2.829-10.155a.426.426,0,0,0-.557.182l-.258.488a.42.42,0,0,1-.775-.08.418.418,0,0,0-.756-.108c-.743,1.189-2.749,3.117-8.114,4.108-7.624,1.407-12.664,4.492-12.79,9.76a.421.421,0,0,1-.65.347c-.563-.343-1.464-.5-2.668.508-2.094,1.76-1.237,6.328,3.353,10.084a.417.417,0,0,1-.02.672c-.832.542-2.072,1.831,1.141,3.549a10.823,10.823,0,0,0,6.763,1.474.418.418,0,0,0,.339-.5l-1.02-4.63a.42.42,0,0,1,.41-.51Z" transform="translate(-1141.617 -1639.25)"/>
        <path id="Path_251" data-name="Path 251" class="cls-18" d="M1195.852,1770.045s-1.691-6.5-4.608-4.681,1.513,7.288,3.858,7.532Z" transform="translate(-1182.023 -1743.69)"/>
      </g>
      <path id="Path_252" data-name="Path 252" class="cls-19" d="M1770.8,1763.848a.555.555,0,0,1-.43-.906c.48-.591,4.741-5.8,6.382-6.727.6-.338.953-.686,1.029-1.008a.82.82,0,0,0-.075-.523l-5.006,1-2.836,2.433a.556.556,0,0,1-.723-.843l2.946-2.529a.561.561,0,0,1,.252-.123l5.542-1.111a.554.554,0,0,1,.57.235,2.116,2.116,0,0,1,.411,1.712,2.862,2.862,0,0,1-1.564,1.72c-1.235.7-4.8,4.9-6.067,6.461A.553.553,0,0,1,1770.8,1763.848Z" transform="translate(-1617.62 -1734.111)"/>
      <path id="Path_253" data-name="Path 253" class="cls-20" d="M1118.9,2270.388l19.594.242-6.857-6.455a5.118,5.118,0,0,0-6.274-.588,14.819,14.819,0,0,0-3.484,3.1s-12.223-4.467-18.148-14.461a60.327,60.327,0,0,0-5.873,11.114C1103.17,2266.463,1110.056,2268.915,1118.9,2270.388Z" transform="translate(-1060.443 -2148.185)"/>
      <g id="Group_658" data-name="Group 658" transform="translate(58.454 80.049)">
        <path id="Path_254" data-name="Path 254" class="cls-21" d="M1223.918,2352.289c.038,0,.076,0,.114,0l49.736-.054a2.2,2.2,0,1,0,0-4.405l-49.737.053a2.2,2.2,0,0,0-.109,4.4Z" transform="translate(-1221.804 -2307.608)"/>
        <path id="Path_255" data-name="Path 255" class="cls-22" d="M1460.167,2110.855h-41.421a7.9,7.9,0,0,0-7.14,4.479l-19.149,40.175h51.475a4.8,4.8,0,0,0,4.462-3l14.849-37.176A3.277,3.277,0,0,0,1460.167,2110.855Z" transform="translate(-1363.491 -2110.855)"/>
        <ellipse id="Ellipse_9" data-name="Ellipse 9" class="cls-13" cx="5.254" cy="3.26" rx="5.254" ry="3.26" transform="matrix(0.313, -0.95, 0.95, 0.313, 65.86, 25.558)"/>
      </g>
    </g>
    <g id="Group_660" data-name="Group 660" transform="translate(255.048 331.072)">
      <path id="Path_256" data-name="Path 256" class="cls-22" d="M1968.848,2844.734l1.686,52.427a17.058,17.058,0,0,0,16.985,16.471l125.545.74a12.307,12.307,0,0,0,12.271-10.474c1.963-13.24,4.464-36.929,1.648-59.164Z" transform="translate(-1966.071 -2770.177)"/>
      <path id="Path_257" data-name="Path 257" class="cls-23" d="M2127.474,2909.541a.375.375,0,0,1-.013-.75,11.338,11.338,0,0,0,2.154-.288.375.375,0,0,1,.17.73,12.233,12.233,0,0,1-2.3.307Zm-5.244-.02h0l-2.248-.013a.375.375,0,0,1,0-.749h0l2.248.013a.375.375,0,0,1,0,.75Zm-7.492-.044h0l-2.247-.013a.375.375,0,0,1,0-.749h0l2.248.013a.375.375,0,0,1,0,.749Zm-7.492-.045h0l-2.249-.013a.375.375,0,0,1,0-.749h0l2.248.013a.375.375,0,0,1,0,.749Zm-7.493-.044h0l-2.248-.013a.375.375,0,0,1-.373-.377.4.4,0,0,1,.377-.373l2.248.013a.375.375,0,0,1,0,.749Zm-7.492-.044h0l-2.248-.013a.375.375,0,0,1,0-.75h0l2.248.013a.375.375,0,0,1,0,.749Zm-7.492-.045h0l-2.248-.013a.375.375,0,0,1,0-.749h0l2.248.013a.375.375,0,0,1,0,.749Zm-7.493-.044h0l-2.248-.013a.375.375,0,0,1,0-.749h0l2.248.013a.375.375,0,0,1,0,.749Zm-7.492-.044h0l-2.248-.013a.375.375,0,0,1,0-.749h0l2.248.013a.375.375,0,0,1,0,.75Zm-7.493-.045h0l-2.248-.013a.375.375,0,0,1,0-.749h0l2.248.013a.375.375,0,0,1,0,.749Zm-7.493-.044h0l-2.248-.013a.375.375,0,0,1,0-.749h0l2.249.013a.375.375,0,0,1,0,.749Zm-7.492-.044h0l-2.249-.013a.375.375,0,0,1,0-.749h0l2.248.013a.375.375,0,0,1,0,.749Zm-7.493-.045h0l-2.248-.013a.375.375,0,0,1,0-.75h0l2.248.013a.375.375,0,0,1,0,.749Zm-7.493-.044h0l-2.248-.013a.375.375,0,0,1,0-.749h0l2.248.013a.375.375,0,0,1,0,.749Zm-7.492-.044h0l-2.248-.013a.375.375,0,0,1-.372-.377.413.413,0,0,1,.377-.372l2.248.013a.375.375,0,0,1,0,.75Zm-7.493-.045h0l-2.248-.013a.375.375,0,0,1,0-.749h0l2.248.013a.375.375,0,0,1,0,.749Zm-7.493-.044h0l-2.248-.013a.375.375,0,0,1,0-.749h0l2.248.013a.375.375,0,0,1,0,.749Zm-7.4-.837a.371.371,0,0,1-.117-.019,16.555,16.555,0,0,1-2.126-.871.375.375,0,1,1,.331-.672,15.928,15.928,0,0,0,2.03.831.375.375,0,0,1-.118.73Zm131.941-1.048a.375.375,0,0,1-.235-.667,11.4,11.4,0,0,0,1.559-1.512.374.374,0,1,1,.571.485,12.154,12.154,0,0,1-1.661,1.613A.375.375,0,0,1,2134.378,2906.974Zm-138.27-2.831a.372.372,0,0,1-.263-.108,16.7,16.7,0,0,1-1.519-1.725.375.375,0,1,1,.595-.455,16.11,16.11,0,0,0,1.451,1.647.375.375,0,0,1-.263.641Zm142.277-3.345a.381.381,0,0,1-.094-.012.375.375,0,0,1-.269-.457,11.231,11.231,0,0,0,.239-1.177l.146-.994a.374.374,0,1,1,.741.107l-.146,1a12,12,0,0,1-.255,1.255A.374.374,0,0,1,2138.385,2900.8Zm-146.224-2.946a.374.374,0,0,1-.354-.254,16.284,16.284,0,0,1-.587-2.221.375.375,0,1,1,.736-.141,15.641,15.641,0,0,0,.56,2.121.375.375,0,0,1-.233.476A.388.388,0,0,1,1992.161,2897.852Zm147.314-4.465-.047,0a.375.375,0,0,1-.325-.418q.134-1.088.267-2.229a.375.375,0,1,1,.744.086q-.133,1.144-.268,2.235A.375.375,0,0,1,2139.475,2893.386Zm-148.251-2.929a.374.374,0,0,1-.374-.363l-.072-2.247a.374.374,0,0,1,.362-.386.383.383,0,0,1,.386.363l.073,2.247a.374.374,0,0,1-.362.386Zm149.07-4.52-.036,0a.375.375,0,0,1-.337-.409q.1-1.1.2-2.235a.381.381,0,0,1,.406-.341.374.374,0,0,1,.341.405q-.1,1.138-.2,2.243A.374.374,0,0,1,2140.294,2885.938Zm-149.311-2.969a.375.375,0,0,1-.374-.363l-.072-2.246a.374.374,0,0,1,.362-.386.38.38,0,0,1,.386.363l.072,2.246a.375.375,0,0,1-.362.386Zm149.916-4.5h-.025a.375.375,0,0,1-.349-.4q.074-1.109.137-2.241a.375.375,0,0,1,.748.042q-.064,1.134-.138,2.248A.375.375,0,0,1,2140.9,2878.468Zm-150.157-2.989a.374.374,0,0,1-.374-.363l-.072-2.247a.374.374,0,1,1,.749-.023l.072,2.246a.375.375,0,0,1-.362.386Zm150.533-4.495h-.013a.375.375,0,0,1-.361-.387q.037-1.115.065-2.243a.4.4,0,0,1,.383-.366.375.375,0,0,1,.366.383q-.027,1.133-.065,2.251A.374.374,0,0,1,2141.275,2870.984Zm-150.774-2.993a.375.375,0,0,1-.374-.363l-.072-2.247a.375.375,0,0,1,.362-.386.393.393,0,0,1,.386.363l.072,2.247a.374.374,0,0,1-.362.386Zm150.9-4.5a.375.375,0,0,1-.375-.374q0-1.117-.016-2.244a.375.375,0,0,1,.37-.379.394.394,0,0,1,.379.37q.014,1.129.016,2.252a.375.375,0,0,1-.375.375Zm-151.14-2.99a.374.374,0,0,1-.374-.363l-.072-2.247a.374.374,0,0,1,.362-.386.4.4,0,0,1,.387.363l.072,2.247a.374.374,0,0,1-.362.386Zm150.982-4.5a.375.375,0,0,1-.374-.359q-.047-1.118-.108-2.24a.374.374,0,1,1,.748-.041q.063,1.125.109,2.25a.375.375,0,0,1-.358.39Zm-151.223-2.989a.374.374,0,0,1-.374-.363l-.072-2.246a.374.374,0,0,1,.362-.386.383.383,0,0,1,.386.363l.072,2.246a.374.374,0,0,1-.362.387Zm150.741-4.489a.374.374,0,0,1-.373-.342q-.1-1.116-.215-2.232a.375.375,0,0,1,.745-.078q.116,1.121.216,2.243a.374.374,0,0,1-.34.406Zm-150.982-3a.375.375,0,0,1-.374-.363l-.072-2.246a.375.375,0,0,1,.362-.386.4.4,0,0,1,.386.363l.072,2.246a.375.375,0,0,1-.362.386Zm148.205-2.247h-2.248a.375.375,0,0,1,0-.749h2.248a.375.375,0,1,1,0,.749Zm-7.493,0h-2.248a.375.375,0,0,1,0-.749h2.248a.375.375,0,0,1,0,.749Zm-7.493,0h-2.248a.375.375,0,0,1,0-.749H2123a.375.375,0,1,1,0,.749Zm-7.493,0h-2.248a.375.375,0,0,1,0-.749h2.248a.375.375,0,1,1,0,.749Zm-7.493,0h-2.248a.375.375,0,1,1,0-.749h2.248a.375.375,0,0,1,0,.749Zm-7.493,0h-2.248a.375.375,0,0,1,0-.749h2.248a.375.375,0,1,1,0,.749Zm-7.492,0h-2.248a.375.375,0,1,1,0-.749h2.248a.375.375,0,0,1,0,.749Zm-7.493,0h-2.248a.375.375,0,1,1,0-.749h2.248a.375.375,0,0,1,0,.749Zm-7.493,0h-2.248a.375.375,0,0,1,0-.749h2.248a.375.375,0,1,1,0,.749Zm-7.493,0H2068.3a.375.375,0,1,1,0-.749h2.248a.375.375,0,0,1,0,.749Zm-7.493,0h-2.248a.375.375,0,0,1,0-.749h2.248a.375.375,0,1,1,0,.749Zm-7.493,0h-2.248a.375.375,0,1,1,0-.749h2.248a.375.375,0,0,1,0,.749Zm-7.493,0h-2.248a.375.375,0,1,1,0-.749h2.248a.375.375,0,0,1,0,.749Zm-7.493,0h-2.248a.375.375,0,1,1,0-.749h2.248a.375.375,0,1,1,0,.749Zm-7.493,0h-2.248a.375.375,0,1,1,0-.749h2.248a.375.375,0,0,1,0,.749Zm-7.493,0h-2.248a.375.375,0,1,1,0-.749h2.248a.375.375,0,1,1,0,.749Zm-7.493,0h-2.248a.375.375,0,1,1,0-.749h2.248a.375.375,0,1,1,0,.749Zm-7.493,0h-2.248a.375.375,0,1,1,0-.749h2.248a.375.375,0,1,1,0,.749Zm-7.493,0h-2.248a.375.375,0,0,1,0-.749h2.248a.375.375,0,1,1,0,.749Zm-7.493,0h-2.248a.375.375,0,1,1,0-.749h2.248a.375.375,0,1,1,0,.749Z" transform="translate(-1983.079 -2768.345)"/>
      <path id="Path_258" data-name="Path 258" class="cls-22" d="M2185.611,2588.594l.378-4.043a3.108,3.108,0,0,1,2.358-1.815c3.911-.623,13.612-1.717,18.282,1.773l.7,4.7Z" transform="translate(-2146.041 -2552.096)"/>
      <path id="Path_259" data-name="Path 259" class="cls-22" d="M2235.231,2524.063a5.612,5.612,0,0,1-2.707,0,2.445,2.445,0,0,1-1.865-2.368v-12.661h6.443v12.651A2.454,2.454,0,0,1,2235.231,2524.063Z" transform="translate(-2183.444 -2491.456)"/>
      <path id="Path_260" data-name="Path 260" class="cls-22" d="M2553.272,2588.594l.378-4.043a3.108,3.108,0,0,1,2.357-1.815c3.911-.623,13.611-1.717,18.282,1.773l.7,4.7Z" transform="translate(-2451.296 -2552.096)"/>
      <path id="Path_261" data-name="Path 261" class="cls-22" d="M2602.893,2517.538a5.612,5.612,0,0,1-2.707,0,2.444,2.444,0,0,1-1.865-2.368v-13.994h6.443v13.985A2.454,2.454,0,0,1,2602.893,2517.538Z" transform="translate(-2488.699 -2484.931)"/>
      <path id="Path_262" data-name="Path 262" class="cls-22" d="M2210.427,2426.166l69.292-2.294a3.34,3.34,0,0,0,3.192-2.742,28.242,28.242,0,0,0,.215-8.783,7.992,7.992,0,0,0-7.747-6.764c-12.926-.308-45.834-.3-63.97,6.876a6.335,6.335,0,0,0-3.827,4.4,15.36,15.36,0,0,0-.166,7.036A2.982,2.982,0,0,0,2210.427,2426.166Z" transform="translate(-2163.865 -2405.487)"/>
      <path id="Path_263" data-name="Path 263" class="cls-23" d="M2215.814,2442.14a.749.749,0,0,1-.745-.674,16.753,16.753,0,0,1,.428-5.383,6.225,6.225,0,0,1,4.239-4.309c3.88-1.139,11.3-3.074,17.376-3.245a.75.75,0,0,1,.042,1.5c-5.91.165-13.185,2.066-17,3.185a4.715,4.715,0,0,0-3.214,3.262,15.386,15.386,0,0,0-.384,4.84.749.749,0,0,1-.67.821C2215.865,2442.139,2215.839,2442.14,2215.814,2442.14Z" transform="translate(-2170.453 -2424.618)"/>
      <path id="Path_264" data-name="Path 264" class="cls-9" d="M1959.91,2609.438c22.386-.286,119.225-1.3,147.355,2.09a5.728,5.728,0,0,1,4.923,4.436c1.662,7.515,5.006,24.971,4.61,42.274a5.014,5.014,0,0,1-4.105,4.782l-64.211,12.147h-22.809l-68.418-13.6a5.35,5.35,0,0,1-4.314-4.966c-.445-8.706-1.14-29.132,1.214-42.28A5.92,5.92,0,0,1,1959.91,2609.438Z" transform="translate(-1952.489 -2574.515)"/>
      <path id="Path_265" data-name="Path 265" class="cls-23" d="M2051.46,2695.239a.36.36,0,0,1-.073-.007l-2.2-.438a.375.375,0,1,1,.146-.735l2.185.435a.343.343,0,0,1,.05,0h2.248a.375.375,0,0,1,0,.75h-2.248a.343.343,0,0,0-.1,0Zm17.336,0h-2.248a.375.375,0,0,1,0-.75h2.248a.375.375,0,0,1,0,.75Zm-7.492,0h-2.248a.375.375,0,1,1,0-.75h2.248a.375.375,0,0,1,0,.75Zm12.722-.155a.375.375,0,0,1-.069-.743l2.208-.418a.375.375,0,1,1,.139.736l-2.209.418A.38.38,0,0,1,2074.026,2695.083Zm-29.915-1.305a.346.346,0,0,1-.073-.007l-2.2-.438a.375.375,0,0,1,.146-.735l2.2.438a.375.375,0,0,1-.073.742Zm37.277-.088a.375.375,0,0,1-.069-.743l2.209-.418a.375.375,0,0,1,.139.736l-2.208.417A.362.362,0,0,1,2081.388,2693.69Zm-44.626-1.374a.364.364,0,0,1-.074-.007l-2.2-.438a.375.375,0,1,1,.146-.735l2.2.438a.374.374,0,0,1-.073.742Zm51.988-.019a.375.375,0,0,1-.069-.743l2.209-.418a.375.375,0,1,1,.139.736l-2.208.418A.38.38,0,0,1,2088.75,2692.3Zm7.362-1.393a.375.375,0,0,1-.069-.743l2.209-.418a.375.375,0,0,1,.139.736l-2.208.418A.38.38,0,0,1,2096.113,2690.9Zm-66.7-.048a.343.343,0,0,1-.073-.007l-2.2-.438a.375.375,0,1,1,.146-.735l2.2.438a.375.375,0,0,1-.073.742Zm74.062-1.344a.375.375,0,0,1-.069-.743l2.209-.418a.375.375,0,0,1,.139.736l-2.208.418A.38.38,0,0,1,2103.475,2689.512Zm-81.411-.117a.357.357,0,0,1-.073-.007l-2.2-.438a.374.374,0,1,1,.146-.734l2.2.438a.375.375,0,0,1-.073.742Zm88.773-1.276a.375.375,0,0,1-.069-.743l2.208-.418a.375.375,0,0,1,.139.736l-2.209.418A.4.4,0,0,1,2110.837,2688.119Zm-96.121-.185a.363.363,0,0,1-.074-.007l-2.2-.438a.375.375,0,0,1,.146-.735l2.2.438a.374.374,0,0,1-.073.742Zm103.483-1.208a.374.374,0,0,1-.069-.742l2.208-.418a.375.375,0,1,1,.139.736l-2.209.418A.38.38,0,0,1,2118.2,2686.727Zm-110.832-.252a.364.364,0,0,1-.074-.007l-2.2-.438a.375.375,0,0,1,.146-.735l2.2.438a.375.375,0,0,1-.073.742Zm118.194-1.141a.375.375,0,0,1-.069-.743l2.208-.418a.375.375,0,1,1,.139.736l-2.209.418A.38.38,0,0,1,2125.561,2685.333Zm-125.543-.321a.362.362,0,0,1-.073-.007l-2.2-.438a.375.375,0,1,1,.146-.735l2.2.438a.375.375,0,0,1-.073.742Zm132.906-1.072a.375.375,0,0,1-.069-.743l2.209-.418a.375.375,0,0,1,.139.736l-2.209.418A.378.378,0,0,1,2132.923,2683.941Zm-140.254-.389a.364.364,0,0,1-.074-.007l-2.2-.438a.375.375,0,0,1,.146-.735l2.2.438a.375.375,0,0,1-.073.742Zm-7.349-1.46a.362.362,0,0,1-.073-.007l-1.9-.379-.045-.89a.374.374,0,0,1,.356-.391.357.357,0,0,1,.392.356l.015.305,1.332.265a.375.375,0,0,1-.073.742Zm151.211-2.666a.375.375,0,0,1-.375-.37q-.014-1.123-.047-2.24a.375.375,0,0,1,.364-.386.391.391,0,0,1,.386.364q.033,1.124.047,2.254a.375.375,0,0,1-.37.379Zm-153.075-3.5a.374.374,0,0,1-.374-.362c-.024-.721-.048-1.473-.069-2.249a.375.375,0,0,1,.365-.385.394.394,0,0,1,.385.365c.021.775.044,1.525.068,2.245a.375.375,0,0,1-.362.387Zm152.779-3.989a.374.374,0,0,1-.373-.35q-.073-1.128-.16-2.238a.375.375,0,0,1,.747-.059q.088,1.116.161,2.249a.375.375,0,0,1-.35.4Zm-152.951-3.5a.374.374,0,0,1-.375-.37c-.008-.739-.015-1.491-.018-2.251a.374.374,0,0,1,.373-.376h0a.375.375,0,0,1,.375.373q0,1.138.018,2.245a.375.375,0,0,1-.37.379Zm152.3-3.966a.374.374,0,0,1-.372-.334q-.123-1.129-.255-2.229a.375.375,0,0,1,.327-.416.37.37,0,0,1,.417.327q.133,1.1.256,2.238a.375.375,0,0,1-.332.413Zm-152.292-3.528h-.006a.375.375,0,0,1-.369-.38q.017-1.122.046-2.251a.383.383,0,0,1,.384-.365.375.375,0,0,1,.365.384q-.028,1.124-.045,2.244A.375.375,0,0,1,1983.294,2660.946Zm151.341-3.906a.375.375,0,0,1-.37-.321q-.167-1.136-.338-2.219a.374.374,0,1,1,.74-.117q.172,1.087.34,2.228a.376.376,0,0,1-.316.425A.523.523,0,0,1,2134.635,2657.039Zm-151.1-3.584h-.02a.374.374,0,0,1-.355-.394q.059-1.131.133-2.249a.369.369,0,0,1,.4-.349.375.375,0,0,1,.349.4q-.074,1.112-.133,2.239A.375.375,0,0,1,1983.539,2653.455Zm149.875-3.813a.375.375,0,0,1-.368-.307q-.213-1.161-.417-2.206a.375.375,0,1,1,.735-.143q.2,1.048.418,2.214a.375.375,0,0,1-.3.436A.438.438,0,0,1,2133.414,2649.642Zm-149.288-3.657-.041,0a.375.375,0,0,1-.331-.414c.084-.762.176-1.511.274-2.241a.367.367,0,0,1,.421-.32.374.374,0,0,1,.321.421q-.147,1.087-.272,2.222A.375.375,0,0,1,1984.126,2645.985Zm147.485-3.389-.044,0q-1.041-.122-2.228-.24a.375.375,0,0,1-.336-.41.38.38,0,0,1,.409-.337q1.195.119,2.242.241a.375.375,0,0,1-.043.747Zm-7.462-.675h-.028q-1.08-.078-2.239-.152a.375.375,0,0,1,.048-.748q1.162.074,2.246.152a.375.375,0,0,1-.027.749Zm-7.48-.447h-.019q-1.1-.056-2.243-.108a.374.374,0,1,1,.034-.748q1.15.053,2.247.108a.375.375,0,0,1-.019.749Zm-7.486-.328h-.015l-2.245-.081a.374.374,0,0,1-.362-.387.39.39,0,0,1,.387-.362l2.248.081a.375.375,0,0,1-.014.749Zm-7.489-.25h-.011l-2.246-.063a.375.375,0,0,1-.365-.385.364.364,0,0,1,.385-.364l2.248.063a.375.375,0,0,1-.01.749Zm-7.491-.194h-.009l-2.247-.05a.375.375,0,0,1,.008-.749h.008l2.248.05a.375.375,0,0,1-.008.749Zm-7.492-.151h-.007l-2.247-.039a.375.375,0,0,1,.006-.749h.006l2.249.039a.375.375,0,0,1-.007.749Zm-99.671,0a.375.375,0,0,1,0-.749l2.25-.027h0a.375.375,0,0,1,.006.75l-2.249.027Zm7.5-.086a.375.375,0,0,1,0-.749l2.249-.023h0a.375.375,0,0,1,0,.749l-2.249.023Zm84.682-.031h0l-2.249-.029a.375.375,0,0,1,0-.749h0l2.248.029a.375.375,0,0,1-.005.749Zm-77.186-.041a.375.375,0,0,1,0-.749l2.249-.02h0a.375.375,0,0,1,0,.75l-2.249.02Zm69.693-.047h0l-2.248-.021a.375.375,0,0,1,0-.749h0l2.249.021a.375.375,0,0,1,0,.749Zm-62.2-.013a.375.375,0,0,1,0-.749l2.248-.016h0a.375.375,0,0,1,0,.749l-2.249.016Zm54.706-.05h0l-2.248-.015a.375.375,0,0,1,0-.749h0l2.248.014a.375.375,0,0,1,0,.75Zm-47.21,0a.375.375,0,0,1,0-.75l2.249-.012h0a.375.375,0,0,1,0,.749l-2.248.013Zm7.5-.037a.375.375,0,0,1,0-.749l2.249-.009h0a.375.375,0,0,1,0,.749l-2.249.009Zm32.222-.006h0l-2.248-.009a.375.375,0,0,1,0-.749h0l2.248.009a.375.375,0,0,1,0,.749Zm-24.728-.02a.375.375,0,0,1,0-.749l2.249-.005a.375.375,0,1,1,0,.749l-2.248.005Zm17.234,0h0l-2.248,0a.375.375,0,0,1,0-.749h0l2.248,0a.375.375,0,0,1,0,.749Zm-9.741-.007a.375.375,0,0,1,0-.749h2.241a.378.378,0,0,1,.378.375.371.371,0,0,1-.371.375h-2.248Z" transform="translate(-1977.731 -2599.745)"/>
      <path id="Path_266" data-name="Path 266" class="cls-4" d="M2371.037,2910.483h-19.982a5.163,5.163,0,0,1-5.135-4.536l-2.309-19.228a5.155,5.155,0,0,1,5.135-5.758h24.005a5.157,5.157,0,0,1,5.151,5.6l-1.715,19.229A5.162,5.162,0,0,1,2371.037,2910.483Z" transform="translate(-2277.192 -2800.255)"/>
      <path id="Path_267" data-name="Path 267" class="cls-8" d="M2385.419,2919.321H2368.5a4.371,4.371,0,0,1-4.348-3.841L2362.2,2899.2a4.365,4.365,0,0,1,4.348-4.875h20.326a4.367,4.367,0,0,1,4.362,4.743l-1.452,16.281A4.371,4.371,0,0,1,2385.419,2919.321Z" transform="translate(-2292.628 -2811.349)"/>
    </g>
  </g>
</svg>
