<svg id="Group_2154" data-name="Group 2154" xmlns="http://www.w3.org/2000/svg" xmlns:xlink="http://www.w3.org/1999/xlink" width="1511.22" height="439.775" viewBox="0 0 1511.22 439.775">
  <defs>
    <style>
      .cls-1, .cls-2, .cls-20 {
        fill: #2b2716;
      }

      .cls-1 {
        font-size: 28px;
        font-family: ProximaNova-Regular, Proxima Nova;
      }

      .cls-1, .cls-2 {
        letter-spacing: 0.05em;
      }

      .cls-2 {
        font-size: 50px;
        font-family: Oxygen-Bold, Oxygen;
        font-weight: 700;
      }

      .cls-3 {
        fill: #e4e9ff;
      }

      .cls-4 {
        fill: #0090ff;
      }

      .cls-10, .cls-18, .cls-5, .cls-6 {
        fill: #fff;
      }

      .cls-5, .cls-9 {
        opacity: 0.6;
      }

      .cls-6 {
        opacity: 0.78;
      }

      .cls-7 {
        fill: url(#linear-gradient);
      }

      .cls-8 {
        fill: url(#linear-gradient-2);
      }

      .cls-11 {
        fill: url(#linear-gradient-3);
      }

      .cls-12 {
        fill: url(#linear-gradient-4);
      }

      .cls-13 {
        fill: url(#linear-gradient-5);
      }

      .cls-14 {
        fill: url(#linear-gradient-6);
      }

      .cls-15 {
        fill: #91b3fa;
      }

      .cls-16 {
        fill: url(#linear-gradient-7);
      }

      .cls-17, .cls-19 {
        fill: #646d82;
      }

      .cls-18, .cls-19 {
        opacity: 0.5;
      }

      .cls-21 {
        fill: url(#linear-gradient-8);
      }

      .cls-22 {
        fill: url(#linear-gradient-9);
      }

      .cls-23 {
        fill: #989898;
      }

      .cls-24 {
        fill: #707070;
      }

      .cls-25 {
        fill: url(#linear-gradient-10);
      }

      .cls-26 {
        fill: #ffdd2e;
      }

      .cls-27 {
        fill: url(#linear-gradient-11);
      }

      .cls-28 {
        fill: url(#linear-gradient-12);
      }

      .cls-29 {
        fill: url(#linear-gradient-13);
      }

      .cls-30 {
        fill: url(#linear-gradient-14);
      }

      .cls-31 {
        fill: url(#linear-gradient-15);
      }

      .cls-32 {
        fill: url(#linear-gradient-16);
      }

      .cls-33 {
        fill: url(#linear-gradient-17);
      }

      .cls-34 {
        fill: url(#linear-gradient-18);
      }

      .cls-35 {
        fill: #001164;
      }

      .cls-36 {
        fill: url(#linear-gradient-19);
      }

      .cls-37 {
        fill: url(#linear-gradient-20);
      }

      .cls-38 {
        fill: url(#linear-gradient-21);
      }

      .cls-39 {
        fill: url(#linear-gradient-22);
      }

      .cls-40 {
        fill: #dbb80b;
      }

      .cls-41 {
        fill: url(#linear-gradient-23);
      }
    </style>
    <linearGradient id="linear-gradient" x1="3.614" y1="-3.257" x2="-0.159" y2="2.36" gradientUnits="objectBoundingBox">
      <stop offset="0" stop-color="#fdf53f"/>
      <stop offset="1" stop-color="#d93c65"/>
    </linearGradient>
    <linearGradient id="linear-gradient-2" x1="2.711" y1="-4.664" x2="0.627" y2="1.782" xlink:href="#linear-gradient"/>
    <linearGradient id="linear-gradient-3" x1="7.173" y1="-5.873" x2="3.287" y2="0.341" gradientUnits="objectBoundingBox">
      <stop offset="0" stop-color="#a737d5"/>
      <stop offset="1" stop-color="#ef497a"/>
    </linearGradient>
    <linearGradient id="linear-gradient-4" x1="8.221" y1="-6.977" x2="4.335" y2="-0.764" xlink:href="#linear-gradient-3"/>
    <linearGradient id="linear-gradient-5" x1="9.156" y1="-6.941" x2="4.042" y2="-0.262" xlink:href="#linear-gradient-3"/>
    <linearGradient id="linear-gradient-6" x1="10.317" y1="-9.187" x2="6.43" y2="-2.973" xlink:href="#linear-gradient-3"/>
    <linearGradient id="linear-gradient-7" x1="-2.509" y1="-3.677" x2="-7.471" y2="1.65" xlink:href="#linear-gradient-3"/>
    <linearGradient id="linear-gradient-8" x1="-0.196" y1="-0.712" x2="2.177" y2="3.418" gradientUnits="objectBoundingBox">
      <stop offset="0" stop-color="#ff928e"/>
      <stop offset="1" stop-color="#fe7062"/>
    </linearGradient>
    <linearGradient id="linear-gradient-9" x1="-0.196" y1="-2.376" x2="1.09" y2="3.529" xlink:href="#linear-gradient-8"/>
    <linearGradient id="linear-gradient-10" x1="-0.301" y1="1.165" x2="2.009" y2="-0.739" xlink:href="#linear-gradient-8"/>
    <linearGradient id="linear-gradient-11" x1="-20.07" y1="0.5" x2="-19.051" y2="0.5" gradientUnits="objectBoundingBox">
      <stop offset="0" stop-color="#090056"/>
      <stop offset="1" stop-color="#020039"/>
    </linearGradient>
    <linearGradient id="linear-gradient-12" x1="-0.757" y1="-8.611" x2="1.326" y2="6.389" xlink:href="#linear-gradient-11"/>
    <linearGradient id="linear-gradient-13" x1="-50.677" y1="0.5" x2="-49.677" y2="0.5" xlink:href="#linear-gradient-11"/>
    <linearGradient id="linear-gradient-14" x1="-4.222" y1="-41.411" x2="0.364" y2="-1.05" xlink:href="#linear-gradient-11"/>
    <linearGradient id="linear-gradient-15" x1="-77.341" y1="0.5" x2="-76.341" y2="0.5" gradientUnits="objectBoundingBox">
      <stop offset="0" stop-color="#febbba"/>
      <stop offset="1" stop-color="#ff928e"/>
    </linearGradient>
    <linearGradient id="linear-gradient-16" x1="-80.282" y1="0.5" x2="-79.282" y2="0.5" xlink:href="#linear-gradient-15"/>
    <linearGradient id="linear-gradient-17" x1="3.088" y1="1.345" x2="0.616" y2="0.582" xlink:href="#linear-gradient-11"/>
    <linearGradient id="linear-gradient-18" x1="-109.638" y1="-3.524" x2="-115.375" y2="3.756" gradientUnits="objectBoundingBox">
      <stop offset="0" stop-color="#cb236d"/>
      <stop offset="1" stop-color="#4c246d"/>
    </linearGradient>
    <linearGradient id="linear-gradient-19" x1="-33.221" y1="0.486" x2="-33.001" y2="-0.519" xlink:href="#linear-gradient-15"/>
    <linearGradient id="linear-gradient-20" x1="-22.661" y1="-0.379" x2="-23.713" y2="0.372" xlink:href="#linear-gradient-15"/>
    <linearGradient id="linear-gradient-21" x1="-0.098" y1="0.38" x2="2.001" y2="0.905" xlink:href="#linear-gradient-11"/>
    <linearGradient id="linear-gradient-22" x1="-96.555" y1="-3.424" x2="-100.876" y2="-0.843" xlink:href="#linear-gradient-15"/>
    <linearGradient id="linear-gradient-23" x1="0.031" y1="0.767" x2="1.654" y2="-0.248" xlink:href="#linear-gradient-15"/>
  </defs>
  <text id="With_built-in_CRM_features_you_can_keep_track_of_all_your_customer_accounts_with_ease._Add_multiple_contacts_private_notes_and_review_their_purchase_history." data-name="With built-in CRM features you can keep track of all your customer accounts with ease. Add multiple contacts, private notes, and review their purchase history." class="cls-1" transform="translate(0 186.852)"><tspan x="0" y="26">With built-in CRM features you can keep track of all your </tspan><tspan x="0" y="58">customer accounts with ease. Add multiple contacts, </tspan><tspan x="0" y="90">private notes, and review their purchase history.</tspan></text>
  <text id="Customer_Account" data-name="Customer Account" class="cls-2" transform="translate(0 150.852)"><tspan x="0" y="0">Customer Account</tspan></text>
  <g id="Group_754" data-name="Group 754" transform="translate(1067.343 0)">
    <path id="Path_378" data-name="Path 378" class="cls-3" d="M875.781,832.677c-80.167,84.6-203.308,59.572-221.51,55.55-22.931-5.067-77.488-17.122-118.2-64.718-62.331-72.869-56.037-186.753-7.9-263.532,14.007-22.341,61.144-88.733,149.664-103.168,5.174-.844,97.608-14.4,171.982,48.006a203.662,203.662,0,0,1,40.4,45.838C934.224,619.48,955.05,749.025,875.781,832.677Z" transform="translate(-485.804 -455)"/>
    <g id="Group_719" data-name="Group 719" transform="translate(149.349 16.773)">
      <path id="Path_379" data-name="Path 379" class="cls-4" d="M1465.32,566.349a7.44,7.44,0,0,1,9.788-5.521c28.274,10.081,125.789,43.383,209.879,54.471a6.88,6.88,0,0,1,5.911,7.877l-48.92,313.865a7.917,7.917,0,0,1-9,6.613c-35.238-5.276-180.248-27.522-230.244-43.651a6.273,6.273,0,0,1-4.212-7.232Z" transform="translate(-1398.399 -560.393)"/>
      <path id="Path_380" data-name="Path 380" class="cls-5" d="M1489.877,620.948a7.16,7.16,0,0,1,9.419-5.313c27.209,9.7,121.053,41.749,201.976,52.42a6.621,6.621,0,0,1,5.689,7.581l-47.078,302.046a7.619,7.619,0,0,1-8.657,6.364c-33.911-5.077-173.461-26.485-221.574-42.008a6.036,6.036,0,0,1-4.053-6.959Z" transform="translate(-1421.166 -606.491)"/>
      <path id="Path_381" data-name="Path 381" class="cls-6" d="M1912.12,807.066a4.424,4.424,0,0,0-5.429,3.584l-10.522,64.665a4.161,4.161,0,0,0,3.133,4.716c11.79,2.834,48.555,11.524,69.652,14.834a4.646,4.646,0,0,0,5.232-3.487c2.929-11.926,11.167-46.7,11.51-61.886a5.243,5.243,0,0,0-3.991-5.2Z" transform="translate(-1816.904 -767.698)"/>
      <circle id="Ellipse_10" data-name="Ellipse 10" class="cls-7" cx="14.069" cy="14.069" r="14.069" transform="matrix(0.361, -0.932, 0.932, 0.361, 107.097, 82.384)"/>
      <path id="Path_382" data-name="Path 382" class="cls-8" d="M1985.576,1173.535l43.857,9.243a3.471,3.471,0,0,0,3.956-4.634c-2.5-6.614-8.486-16.821-22.066-19.279-13.088-2.369-22.43,3.741-27.475,8.471A3.627,3.627,0,0,0,1985.576,1173.535Z" transform="translate(-1889.706 -1063.177)"/>
      <g id="Group_707" data-name="Group 707" class="cls-9" transform="translate(186.024 63.487)">
        <path id="Path_383" data-name="Path 383" class="cls-10" d="M2645.247,981.313a2.319,2.319,0,0,0,2.887-1.635,2.541,2.541,0,0,0-2.1-2.732l-76.582-17.571a1.658,1.658,0,0,0-2.154,1.959l.148,1.122a3.87,3.87,0,0,0,2.831,3.057Z" transform="translate(-2567.278 -959.311)"/>
      </g>
      <g id="Group_708" data-name="Group 708" class="cls-9" transform="translate(183.508 75.425)">
        <path id="Path_384" data-name="Path 384" class="cls-10" d="M2553.645,1034.389a1.659,1.659,0,0,0-2.155,1.96l.148,1.122a3.87,3.87,0,0,0,2.83,3.057l74.968,15.8a2.319,2.319,0,0,0,2.887-1.635,2.541,2.541,0,0,0-2.1-2.732Z" transform="translate(-2551.468 -1034.325)"/>
      </g>
      <g id="Group_709" data-name="Group 709" class="cls-9" transform="translate(180.955 87.537)">
        <path id="Path_385" data-name="Path 385" class="cls-10" d="M2537.605,1110.492a1.659,1.659,0,0,0-2.155,1.96l.148,1.122a3.87,3.87,0,0,0,2.831,3.057l74.968,15.8a2.319,2.319,0,0,0,2.887-1.635,2.541,2.541,0,0,0-2.1-2.732Z" transform="translate(-2535.428 -1110.429)"/>
      </g>
      <g id="Group_710" data-name="Group 710" class="cls-9" transform="translate(73.32 125.707)">
        <path id="Path_386" data-name="Path 386" class="cls-10" d="M2039.865,1394.086a2.219,2.219,0,0,0,2.808-1.652,2.626,2.626,0,0,0-2.182-2.724L1860.7,1350.335c-1.371-.3-1.979.481-1.349,1.735l1.082,2.158a6.009,6.009,0,0,0,3.641,2.808Z" transform="translate(-1859.105 -1350.271)"/>
      </g>
      <g id="Group_711" data-name="Group 711" class="cls-9" transform="translate(70.804 137.645)">
        <path id="Path_387" data-name="Path 387" class="cls-10" d="M1844.893,1425.349c-1.371-.3-1.978.481-1.349,1.735l1.082,2.158a6.01,6.01,0,0,0,3.641,2.808l175.788,37.049a2.22,2.22,0,0,0,2.808-1.652,2.627,2.627,0,0,0-2.182-2.724Z" transform="translate(-1843.295 -1425.285)"/>
      </g>
      <path id="Path_388" data-name="Path 388" class="cls-5" d="M1794.614,1549.724c4.4.581,12.541,2.136,17.018,3.014a4.134,4.134,0,0,1,3.342,3.935,67.378,67.378,0,0,1-1.544,16.743,3.671,3.671,0,0,1-4.366,2.753l-16.434-3.649a4.042,4.042,0,0,1-3.14-4.408l1.817-15.8A2.946,2.946,0,0,1,1794.614,1549.724Z" transform="translate(-1727.226 -1392.253)"/>
      <g id="Group_712" data-name="Group 712" class="cls-9" transform="translate(93.719 170.177)">
        <path id="Path_389" data-name="Path 389" class="cls-10" d="M1990.07,1629.773a2.031,2.031,0,0,0-2.623,1.918l-.161,2.74a3.066,3.066,0,0,0,2.348,3.074l40,8.431a2.521,2.521,0,0,0,2.993-1.977l.134-.677a2.734,2.734,0,0,0-1.978-3.134Z" transform="translate(-1987.281 -1629.697)"/>
      </g>
      <path id="Path_390" data-name="Path 390" class="cls-5" d="M2358.458,1668.558c4.4.581,12.541,2.136,17.018,3.014a4.134,4.134,0,0,1,3.342,3.935,67.394,67.394,0,0,1-1.544,16.743,3.671,3.671,0,0,1-4.366,2.753l-16.434-3.649a4.042,4.042,0,0,1-3.139-4.408l1.818-15.8A2.946,2.946,0,0,1,2358.458,1668.558Z" transform="translate(-2201.336 -1492.175)"/>
      <g id="Group_713" data-name="Group 713" class="cls-9" transform="translate(183.453 189.089)">
        <path id="Path_391" data-name="Path 391" class="cls-10" d="M2553.914,1748.608a2.031,2.031,0,0,0-2.623,1.918l-.161,2.74a3.066,3.066,0,0,0,2.348,3.074l40,8.431a2.522,2.522,0,0,0,2.993-1.977l.134-.677a2.733,2.733,0,0,0-1.978-3.134Z" transform="translate(-2551.125 -1748.531)"/>
      </g>
      <g id="Group_718" data-name="Group 718" transform="translate(38.408 197.92)">
        <path id="Path_392" data-name="Path 392" class="cls-10" d="M1787.821,1843.386l-.042-.009-15.168-3.349a4.175,4.175,0,0,1-3.437-4.354l1.352-13.034a2.832,2.832,0,0,1,1.094-1.946,3.411,3.411,0,0,1,2.568-.657h0c1.3.183,3.135.409,5.078.649,4.092.5,9.185,1.134,12.007,1.691a4.342,4.342,0,0,1,3.629,3.874c.175,3.094-1.062,8.621-2.458,14.493A3.838,3.838,0,0,1,1787.821,1843.386Zm-13.8-22.168a2.209,2.209,0,0,0-1.667.415,1.648,1.648,0,0,0-.643,1.129l-1.352,13.034a2.988,2.988,0,0,0,2.509,3.066l15.168,3.349.031.006a2.646,2.646,0,0,0,3.215-1.751c1.374-5.783,2.593-11.216,2.427-14.15a3.206,3.206,0,0,0-2.669-2.771c-2.78-.55-7.849-1.175-11.922-1.678-1.948-.24-3.789-.467-5.1-.651Z" transform="translate(-1748.557 -1817.458)"/>
        <path id="Path_393" data-name="Path 393" class="cls-5" d="M1789.886,1837.954c3.239.455,10.327,1.213,13.627,1.865a3.007,3.007,0,0,1,2.516,2.655c.141,2.483-.93,7.147-1.951,11.445a2.584,2.584,0,0,1-3.16,1.75l-12.122-2.677a2.868,2.868,0,0,1-2.375-2.965l1.08-10.416A2.016,2.016,0,0,1,1789.886,1837.954Z" transform="translate(-1763.065 -1832.533)"/>
        <g id="Group_714" data-name="Group 714" class="cls-9" transform="translate(54.393 16.222)">
          <path id="Path_394" data-name="Path 394" class="cls-10" d="M1981.516,1910a3.856,3.856,0,0,0,3.089,3.587l140.882,28.44a2.916,2.916,0,0,0,1.191-5.71l-140.5-30.281A3.857,3.857,0,0,0,1981.516,1910Z" transform="translate(-1981.511 -1905.948)"/>
        </g>
        <path id="Path_395" data-name="Path 395" class="cls-11" d="M1800.689,1811.577h0a2.384,2.384,0,0,1,3.033,1.554l1.865,6.006a.766.766,0,0,0,1.35.224l10.925-14.987a.848.848,0,0,1,1.511.693,33.4,33.4,0,0,1-14.3,20.741s-4.094-2.673-6.022-11.314A2.5,2.5,0,0,1,1800.689,1811.577Z" transform="translate(-1773.642 -1804.02)"/>
        <path id="Path_396" data-name="Path 396" class="cls-10" d="M1744.681,2048.074l-.042-.009-15.168-3.349a4.175,4.175,0,0,1-3.437-4.354l1.352-13.034a2.83,2.83,0,0,1,1.094-1.946,3.41,3.41,0,0,1,2.568-.658h0c1.3.183,3.135.409,5.078.649,4.092.5,9.185,1.133,12.007,1.691l.062.013a4.332,4.332,0,0,1,3.567,3.862c.175,3.094-1.063,8.621-2.458,14.493A3.838,3.838,0,0,1,1744.681,2048.074Zm-13.8-22.168a2.209,2.209,0,0,0-1.667.416,1.647,1.647,0,0,0-.642,1.129l-1.352,13.034a2.988,2.988,0,0,0,2.508,3.067l15.168,3.349.031.006a2.646,2.646,0,0,0,3.215-1.751c1.374-5.783,2.593-11.216,2.427-14.15a3.188,3.188,0,0,0-2.669-2.771c-2.78-.55-7.849-1.175-11.922-1.677-1.948-.241-3.789-.468-5.1-.651Z" transform="translate(-1712.283 -1989.571)"/>
        <path id="Path_397" data-name="Path 397" class="cls-5" d="M1746.745,2042.643c3.239.455,10.327,1.213,13.627,1.865a3.008,3.008,0,0,1,2.516,2.655c.14,2.483-.931,7.147-1.952,11.444a2.584,2.584,0,0,1-3.16,1.75l-12.121-2.677a2.868,2.868,0,0,1-2.376-2.964l1.08-10.416A2.016,2.016,0,0,1,1746.745,2042.643Z" transform="translate(-1726.79 -2004.647)"/>
        <g id="Group_715" data-name="Group 715" class="cls-9" transform="translate(47.527 48.797)">
          <path id="Path_398" data-name="Path 398" class="cls-10" d="M1938.376,2114.689a3.857,3.857,0,0,0,3.089,3.587l140.882,28.44a2.916,2.916,0,0,0,1.192-5.71l-140.5-30.281A3.857,3.857,0,0,0,1938.376,2114.689Z" transform="translate(-1938.371 -2110.637)"/>
        </g>
        <path id="Path_399" data-name="Path 399" class="cls-12" d="M1757.55,2016.265h0a2.384,2.384,0,0,1,3.033,1.554l1.865,6.006a.765.765,0,0,0,1.35.224l10.925-14.987a.849.849,0,0,1,1.512.693,33.4,33.4,0,0,1-14.3,20.741s-4.093-2.673-6.022-11.314A2.5,2.5,0,0,1,1757.55,2016.265Z" transform="translate(-1737.369 -1976.133)"/>
        <path id="Path_400" data-name="Path 400" class="cls-10" d="M1701.541,2252.763l-.042-.009-15.168-3.349a4.174,4.174,0,0,1-3.437-4.354l1.352-13.034a2.833,2.833,0,0,1,1.094-1.947,3.41,3.41,0,0,1,2.567-.657h0c1.3.182,3.135.409,5.078.649,4.092.5,9.185,1.134,12.007,1.691l.061.012a4.331,4.331,0,0,1,3.567,3.862c.175,3.094-1.062,8.621-2.458,14.492A3.838,3.838,0,0,1,1701.541,2252.763Zm-13.8-22.168a2.21,2.21,0,0,0-1.667.416,1.649,1.649,0,0,0-.642,1.13l-1.352,13.034a2.987,2.987,0,0,0,2.508,3.066l15.169,3.349.031.006a2.646,2.646,0,0,0,3.216-1.751c1.373-5.782,2.593-11.216,2.427-14.15a3.182,3.182,0,0,0-2.669-2.771c-2.78-.55-7.849-1.175-11.922-1.677-1.948-.24-3.789-.468-5.1-.651Z" transform="translate(-1676.008 -2161.684)"/>
        <path id="Path_401" data-name="Path 401" class="cls-5" d="M1703.606,2247.332c3.239.455,10.327,1.213,13.627,1.865a3.007,3.007,0,0,1,2.516,2.655c.14,2.483-.931,7.147-1.952,11.445a2.584,2.584,0,0,1-3.16,1.75l-12.121-2.676a2.868,2.868,0,0,1-2.376-2.965l1.08-10.416A2.016,2.016,0,0,1,1703.606,2247.332Z" transform="translate(-1690.516 -2176.76)"/>
        <g id="Group_716" data-name="Group 716" class="cls-9" transform="translate(40.662 81.373)">
          <path id="Path_402" data-name="Path 402" class="cls-10" d="M1895.237,2319.378a3.857,3.857,0,0,0,3.089,3.587l140.882,28.439a2.917,2.917,0,0,0,1.191-5.71l-140.5-30.281A3.857,3.857,0,0,0,1895.237,2319.378Z" transform="translate(-1895.232 -2315.326)"/>
        </g>
        <path id="Path_403" data-name="Path 403" class="cls-13" d="M1714.41,2220.954h0a2.384,2.384,0,0,1,3.033,1.554l1.865,6.006a.766.766,0,0,0,1.35.224l10.925-14.987a.848.848,0,0,1,1.511.693,33.4,33.4,0,0,1-14.3,20.741s-4.093-2.673-6.022-11.314A2.5,2.5,0,0,1,1714.41,2220.954Z" transform="translate(-1701.094 -2148.246)"/>
        <path id="Path_404" data-name="Path 404" class="cls-10" d="M1658.4,2457.452l-.042-.009-15.168-3.349a4.174,4.174,0,0,1-3.438-4.353l1.352-13.034a2.832,2.832,0,0,1,1.094-1.947,3.412,3.412,0,0,1,2.567-.658h0c1.3.183,3.135.409,5.078.649,4.092.5,9.185,1.133,12.007,1.691l.061.012a4.331,4.331,0,0,1,3.567,3.861c.175,3.094-1.062,8.621-2.457,14.493A3.839,3.839,0,0,1,1658.4,2457.452Zm-13.8-22.168a2.209,2.209,0,0,0-1.667.416,1.647,1.647,0,0,0-.643,1.13l-1.352,13.034a2.987,2.987,0,0,0,2.508,3.066l15.168,3.349.031.007a2.646,2.646,0,0,0,3.215-1.751c1.374-5.782,2.593-11.216,2.427-14.15a3.176,3.176,0,0,0-2.669-2.771c-2.78-.55-7.849-1.176-11.922-1.678-1.949-.24-3.789-.468-5.1-.651Z" transform="translate(-1639.734 -2333.797)"/>
        <path id="Path_405" data-name="Path 405" class="cls-5" d="M1660.467,2452.021c3.239.454,10.327,1.212,13.627,1.865a3.006,3.006,0,0,1,2.516,2.655c.141,2.482-.93,7.147-1.951,11.444a2.585,2.585,0,0,1-3.161,1.75l-12.122-2.677a2.868,2.868,0,0,1-2.375-2.965l1.08-10.416A2.016,2.016,0,0,1,1660.467,2452.021Z" transform="translate(-1654.242 -2348.874)"/>
        <g id="Group_717" data-name="Group 717" class="cls-9" transform="translate(33.796 113.949)">
          <path id="Path_406" data-name="Path 406" class="cls-10" d="M1852.1,2524.066h0a3.857,3.857,0,0,0,3.089,3.587l140.882,28.44a2.916,2.916,0,0,0,1.191-5.709l-140.5-30.281A3.857,3.857,0,0,0,1852.1,2524.066Z" transform="translate(-1852.092 -2520.015)"/>
        </g>
        <path id="Path_407" data-name="Path 407" class="cls-14" d="M1671.27,2425.643h0a2.384,2.384,0,0,1,3.034,1.554l1.865,6.006a.765.765,0,0,0,1.35.224l10.925-14.986a.848.848,0,0,1,1.512.692,33.4,33.4,0,0,1-14.3,20.741s-4.093-2.673-6.022-11.314A2.5,2.5,0,0,1,1671.27,2425.643Z" transform="translate(-1664.82 -2320.36)"/>
      </g>
    </g>
    <g id="Group_732" data-name="Group 732" transform="translate(4.165 22.553)">
      <path id="Path_408" data-name="Path 408" class="cls-4" d="M486.3,639.222a7.44,7.44,0,0,1,6.793-8.952c29.953-1.968,132.676-10.1,214.261-33.3a6.88,6.88,0,0,1,8.552,4.884l79.66,307.5a7.917,7.917,0,0,1-5.632,9.64c-34.438,9.142-176.368,46.273-228.66,51.31a6.273,6.273,0,0,1-6.736-4.966Z" transform="translate(-486.141 -596.709)"/>
      <path id="Path_409" data-name="Path 409" class="cls-5" d="M517.85,692.246a7.16,7.16,0,0,1,6.537-8.615c28.825-1.894,127.68-9.721,206.193-32.042a6.621,6.621,0,0,1,8.23,4.7l76.66,295.925a7.619,7.619,0,0,1-5.42,9.277c-33.141,8.8-169.727,44.53-220.049,49.377a6.036,6.036,0,0,1-6.482-4.779Z" transform="translate(-512.674 -642.64)"/>
      <path id="Path_410" data-name="Path 410" class="cls-6" d="M710.56,928.676l16.006,63.531a4.16,4.16,0,0,0,4.747,3.086c11.946-2.078,49.142-8.692,69.819-14.026a4.646,4.646,0,0,0,3.419-5.277c-2.044-12.109-8.283-47.294-14-61.371a5.244,5.244,0,0,0-5.727-3.189l-70.706,11.8A4.424,4.424,0,0,0,710.56,928.676Z" transform="translate(-674.73 -861.28)"/>
      <circle id="Ellipse_11" data-name="Ellipse 11" class="cls-15" cx="14.069" cy="14.069" r="14.069" transform="matrix(0.068, -0.998, 0.998, 0.068, 65.892, 95.2)"/>
      <path id="Path_411" data-name="Path 411" class="cls-15" d="M891.45,1264.542l43.924-8.921a3.471,3.471,0,0,0,1.792-5.823c-4.917-5.08-14.465-12.071-27.905-8.938-12.954,3.019-19.1,12.335-21.857,18.68A3.627,3.627,0,0,0,891.45,1264.542Z" transform="translate(-823.285 -1137.69)"/>
      <g id="Group_720" data-name="Group 720" class="cls-9" transform="translate(132.817 32.932)">
        <path id="Path_412" data-name="Path 412" class="cls-10" d="M1400.49,808.006a2.318,2.318,0,0,0,2-2.647,2.541,2.541,0,0,0-3.01-1.675l-77.266,14.265a1.659,1.659,0,0,0-1.2,2.654l.581.971a3.87,3.87,0,0,0,3.811,1.682Z" transform="translate(-1320.697 -803.634)"/>
      </g>
      <g id="Group_721" data-name="Group 721" class="cls-9" transform="translate(135.246 44.888)">
        <path id="Path_413" data-name="Path 413" class="cls-10" d="M1337.475,893.077a1.659,1.659,0,0,0-1.2,2.654l.581.971a3.87,3.87,0,0,0,3.811,1.682l75.082-15.25a2.318,2.318,0,0,0,2-2.647,2.541,2.541,0,0,0-3.01-1.675Z" transform="translate(-1335.956 -878.763)"/>
      </g>
      <g id="Group_722" data-name="Group 722" class="cls-9" transform="translate(137.709 57.018)">
        <path id="Path_414" data-name="Path 414" class="cls-10" d="M1352.956,969.3a1.658,1.658,0,0,0-1.2,2.654l.581.971a3.87,3.87,0,0,0,3.811,1.682l75.082-15.25a2.318,2.318,0,0,0,2-2.647,2.541,2.541,0,0,0-3.01-1.676Z" transform="translate(-1351.437 -954.982)"/>
      </g>
      <g id="Group_723" data-name="Group 723" class="cls-9" transform="translate(53.831 114.049)">
        <path id="Path_415" data-name="Path 415" class="cls-10" d="M1007.421,1317.653a2.22,2.22,0,0,0,1.922-2.631,2.626,2.626,0,0,0-3.084-1.634L825.609,1348.6c-1.378.269-1.625,1.226-.55,2.128l1.85,1.552a6.009,6.009,0,0,0,4.456,1.132Z" transform="translate(-824.39 -1313.333)"/>
      </g>
      <g id="Group_724" data-name="Group 724" class="cls-9" transform="translate(56.26 126.005)">
        <path id="Path_416" data-name="Path 416" class="cls-10" d="M840.868,1423.727c-1.378.269-1.625,1.226-.55,2.128l1.85,1.552a6.009,6.009,0,0,0,4.456,1.132l176.055-35.758a2.22,2.22,0,0,0,1.922-2.631,2.627,2.627,0,0,0-3.084-1.634Z" transform="translate(-839.649 -1388.46)"/>
      </g>
      <path id="Path_417" data-name="Path 417" class="cls-5" d="M856.388,1714.963c4.269-1.213,12.359-3.017,16.816-3.987a4.134,4.134,0,0,1,4.629,2.286,67.387,67.387,0,0,1,5.228,15.981,3.671,3.671,0,0,1-2.915,4.26l-16.533,3.173a4.042,4.042,0,0,1-4.631-2.8l-4.6-15.224A2.945,2.945,0,0,1,856.388,1714.963Z" transform="translate(-795.669 -1533.564)"/>
      <g id="Group_725" data-name="Group 725" class="cls-9" transform="translate(90.727 174.907)">
        <path id="Path_418" data-name="Path 418" class="cls-10" d="M1058.018,1702.406a2.031,2.031,0,0,0-1.646,2.8l.94,2.579a3.066,3.066,0,0,0,3.375,1.89l40.064-8.137a2.521,2.521,0,0,0,1.962-3l-.146-.675a2.733,2.733,0,0,0-3.059-2.092Z" transform="translate(-1056.225 -1695.736)"/>
      </g>
      <path id="Path_419" data-name="Path 419" class="cls-5" d="M1421.089,1600.268c4.269-1.213,12.359-3.017,16.816-3.987a4.134,4.134,0,0,1,4.629,2.286,67.386,67.386,0,0,1,5.227,15.981,3.671,3.671,0,0,1-2.915,4.26l-16.533,3.173a4.042,4.042,0,0,1-4.631-2.8l-4.6-15.224A2.945,2.945,0,0,1,1421.089,1600.268Z" transform="translate(-1270.499 -1437.121)"/>
      <g id="Group_726" data-name="Group 726" class="cls-9" transform="translate(180.598 156.654)">
        <path id="Path_420" data-name="Path 420" class="cls-10" d="M1622.719,1587.711a2.031,2.031,0,0,0-1.646,2.8l.94,2.579a3.066,3.066,0,0,0,3.375,1.89l40.064-8.137a2.522,2.522,0,0,0,1.962-3l-.146-.675a2.733,2.733,0,0,0-3.059-2.091Z" transform="translate(-1620.926 -1581.042)"/>
      </g>
      <g id="Group_731" data-name="Group 731" transform="translate(72.264 193.538)">
        <path id="Path_421" data-name="Path 421" class="cls-10" d="M964.448,1984.022l-.042.009-15.252,2.946a4.176,4.176,0,0,1-4.883-2.632l-3.932-12.5a2.831,2.831,0,0,1,.232-2.22,3.411,3.411,0,0,1,2.1-1.623h0c1.265-.348,3.04-.869,4.919-1.42,3.956-1.161,8.88-2.6,11.693-3.213a4.341,4.341,0,0,1,4.868,2.116c1.388,2.771,2.446,8.335,3.5,14.278A3.838,3.838,0,0,1,964.448,1984.022Zm-21.464-14.871a2.209,2.209,0,0,0-1.365,1.043,1.647,1.647,0,0,0-.141,1.292l3.932,12.5a2.988,2.988,0,0,0,3.519,1.819l15.252-2.946.031-.006a2.646,2.646,0,0,0,2.256-2.884c-1.034-5.853-2.071-11.323-3.388-13.951a3.2,3.2,0,0,0-3.549-1.484c-2.77.6-7.671,2.036-11.609,3.191-1.884.553-3.664,1.075-4.938,1.426Z" transform="translate(-940.211 -1939.316)"/>
        <path id="Path_422" data-name="Path 422" class="cls-5" d="M961.084,1986.531c3.154-.868,9.961-2.985,13.249-3.7a3.008,3.008,0,0,1,3.363,1.438c1.114,2.223,1.982,6.929,2.75,11.279a2.584,2.584,0,0,1-2.206,2.861l-12.188,2.354a2.867,2.867,0,0,1-3.357-1.778L959.552,1989A2.016,2.016,0,0,1,961.084,1986.531Z" transform="translate(-956.407 -1955.709)"/>
        <g id="Group_727" data-name="Group 727" class="cls-9" transform="translate(35.484)">
          <path id="Path_423" data-name="Path 423" class="cls-10" d="M1163.576,1846.313a3.857,3.857,0,0,0,4.259,2.067l140.6-29.807a2.916,2.916,0,0,0-1.172-5.714l-140.977,27.964A3.857,3.857,0,0,0,1163.576,1846.313Z" transform="translate(-1163.175 -1812.803)"/>
        </g>
        <path id="Path_424" data-name="Path 424" class="cls-10" d="M1006.085,2189l-.042.009-15.252,2.946a4.176,4.176,0,0,1-4.883-2.632l-3.932-12.5a2.831,2.831,0,0,1,.232-2.22,3.412,3.412,0,0,1,2.1-1.623h0c1.265-.348,3.04-.868,4.918-1.42,3.956-1.16,8.88-2.6,11.693-3.213l.061-.013a4.332,4.332,0,0,1,4.807,2.129c1.388,2.771,2.446,8.335,3.5,14.278A3.838,3.838,0,0,1,1006.085,2189Zm-21.464-14.871a2.21,2.21,0,0,0-1.365,1.043,1.648,1.648,0,0,0-.141,1.292l3.932,12.5a2.988,2.988,0,0,0,3.519,1.819l15.252-2.946.031-.006a2.646,2.646,0,0,0,2.256-2.884c-1.034-5.853-2.071-11.323-3.388-13.951a3.188,3.188,0,0,0-3.55-1.484c-2.77.6-7.671,2.036-11.609,3.192-1.884.552-3.664,1.074-4.937,1.425Z" transform="translate(-975.222 -2111.667)"/>
        <path id="Path_425" data-name="Path 425" class="cls-5" d="M1002.721,2191.531c3.153-.868,9.96-2.985,13.248-3.7a3.007,3.007,0,0,1,3.363,1.438c1.114,2.223,1.982,6.929,2.75,11.279a2.584,2.584,0,0,1-2.206,2.86l-12.188,2.354a2.867,2.867,0,0,1-3.357-1.778l-3.143-9.989A2.016,2.016,0,0,1,1002.721,2191.531Z" transform="translate(-991.417 -2128.084)"/>
        <g id="Group_728" data-name="Group 728" class="cls-9" transform="translate(42.111 32.625)">
          <path id="Path_426" data-name="Path 426" class="cls-10" d="M1205.213,2051.313a3.857,3.857,0,0,0,4.259,2.067l140.6-29.807a2.916,2.916,0,0,0-1.172-5.714l-140.977,27.965A3.857,3.857,0,0,0,1205.213,2051.313Z" transform="translate(-1204.812 -2017.803)"/>
        </g>
        <path id="Path_427" data-name="Path 427" class="cls-10" d="M1047.723,2394l-.042.009-15.252,2.946a4.174,4.174,0,0,1-4.883-2.632l-3.932-12.5a2.833,2.833,0,0,1,.232-2.221,3.411,3.411,0,0,1,2.1-1.622h0c1.265-.348,3.04-.869,4.919-1.42,3.956-1.161,8.88-2.6,11.692-3.213l.061-.013a4.332,4.332,0,0,1,4.807,2.129c1.388,2.771,2.446,8.335,3.5,14.278A3.838,3.838,0,0,1,1047.723,2394Zm-21.465-14.871a2.21,2.21,0,0,0-1.365,1.043,1.648,1.648,0,0,0-.141,1.292l3.932,12.5a2.987,2.987,0,0,0,3.519,1.819l15.252-2.946.031-.006a2.647,2.647,0,0,0,2.257-2.884c-1.034-5.853-2.072-11.323-3.388-13.951a3.182,3.182,0,0,0-3.55-1.484c-2.77.6-7.671,2.036-11.608,3.192-1.884.553-3.664,1.074-4.938,1.425Z" transform="translate(-1010.233 -2284.042)"/>
        <path id="Path_428" data-name="Path 428" class="cls-5" d="M1044.358,2396.53c3.153-.868,9.96-2.986,13.248-3.7a3.007,3.007,0,0,1,3.363,1.439c1.114,2.223,1.982,6.929,2.751,11.279a2.584,2.584,0,0,1-2.206,2.861l-12.188,2.354a2.868,2.868,0,0,1-3.357-1.778l-3.142-9.989A2.016,2.016,0,0,1,1044.358,2396.53Z" transform="translate(-1026.428 -2300.458)"/>
        <g id="Group_729" data-name="Group 729" class="cls-9" transform="translate(48.737 65.25)">
          <path id="Path_429" data-name="Path 429" class="cls-10" d="M1246.85,2256.312a3.857,3.857,0,0,0,4.259,2.067l140.6-29.807a2.916,2.916,0,0,0-1.172-5.714l-140.977,27.965A3.857,3.857,0,0,0,1246.85,2256.312Z" transform="translate(-1246.449 -2222.802)"/>
        </g>
        <path id="Path_430" data-name="Path 430" class="cls-10" d="M1089.36,2599l-.042.009-15.252,2.946a4.174,4.174,0,0,1-4.883-2.632l-3.932-12.5a2.831,2.831,0,0,1,.232-2.22,3.409,3.409,0,0,1,2.1-1.623h0c1.265-.348,3.039-.869,4.918-1.42,3.956-1.16,8.88-2.6,11.693-3.212l.061-.013a4.332,4.332,0,0,1,4.807,2.129c1.389,2.771,2.446,8.335,3.5,14.278A3.839,3.839,0,0,1,1089.36,2599Zm-21.464-14.871a2.209,2.209,0,0,0-1.365,1.042,1.65,1.65,0,0,0-.141,1.292l3.932,12.5a2.987,2.987,0,0,0,3.519,1.819l15.252-2.946.031-.006a2.646,2.646,0,0,0,2.256-2.884c-1.034-5.853-2.071-11.323-3.388-13.951a3.178,3.178,0,0,0-3.55-1.484c-2.77.6-7.671,2.036-11.609,3.191-1.884.553-3.664,1.075-4.937,1.426Z" transform="translate(-1045.243 -2456.417)"/>
        <path id="Path_431" data-name="Path 431" class="cls-5" d="M1086,2601.53c3.153-.868,9.96-2.986,13.248-3.7a3.007,3.007,0,0,1,3.363,1.438c1.114,2.223,1.982,6.929,2.75,11.279a2.584,2.584,0,0,1-2.206,2.861l-12.188,2.354a2.868,2.868,0,0,1-3.357-1.779l-3.142-9.989A2.016,2.016,0,0,1,1086,2601.53Z" transform="translate(-1061.438 -2472.833)"/>
        <g id="Group_730" data-name="Group 730" class="cls-9" transform="translate(55.363 97.875)">
          <path id="Path_432" data-name="Path 432" class="cls-10" d="M1288.487,2461.312h0a3.857,3.857,0,0,0,4.259,2.067l140.6-29.807a2.916,2.916,0,0,0-1.172-5.714L1291.2,2455.822A3.857,3.857,0,0,0,1288.487,2461.312Z" transform="translate(-1288.086 -2427.802)"/>
        </g>
        <path id="Path_433" data-name="Path 433" class="cls-16" d="M1096.774,2558.787h0a2.384,2.384,0,0,1,3.4.222l4.1,4.772a.766.766,0,0,0,1.328-.331l4.079-18.092a.848.848,0,0,1,1.662.036,33.4,33.4,0,0,1-4.9,24.714s-4.818-.828-10.018-7.995A2.5,2.5,0,0,1,1096.774,2558.787Z" transform="translate(-1071.162 -2428.219)"/>
      </g>
    </g>
    <g id="Group_735" data-name="Group 735" transform="translate(0 194.572)">
      <g id="Group_733" data-name="Group 733" transform="translate(9.323)">
        <path id="Path_434" data-name="Path 434" class="cls-17" d="M604.742,1814.133a407.1,407.1,0,0,0,8.613,50.71h2.474a276.7,276.7,0,0,1-8.4-79.522c1.392-32.065,9.245-71-5.4-89.594-12.187-15.478-63.9-17.792-80.909-18.133a2.509,2.509,0,0,0-2.019,4.069c6.52,8.2,20.172,27.2,21.361,43.792,1.568,21.866,18.563,39.029,35.449,46.174S601.892,1784.223,604.742,1814.133Z" transform="translate(-518.552 -1677.593)"/>
        <path id="Path_435" data-name="Path 435" class="cls-18" d="M665.829,1762.468a81.54,81.54,0,0,1,29.011,13.963,63.815,63.815,0,0,1,11.655,11.35,55.179,55.179,0,0,1,8.123,14.16l.724,1.918c.237.641.414,1.3.623,1.952.193.653.411,1.311.582,1.958l.517,1.943q1.042,3.884,2.033,7.782,1.979,7.8,3.71,15.654c2.315,10.474,4.307,21.017,5.65,31.678a.467.467,0,0,1-.922.143l0-.014c-.955-5.248-2.011-10.5-3.167-15.713q-1.7-7.836-3.578-15.63l-1.9-7.788-1.99-7.766q-.992-3.884-2.05-7.75l-.521-1.936c-.173-.646-.38-1.258-.569-1.888s-.362-1.26-.586-1.875l-.684-1.842a54.774,54.774,0,0,0-7.7-13.659,60.545,60.545,0,0,0-5.209-5.921l-.694-.7-.721-.676c-.483-.449-.954-.911-1.446-1.35-1-.865-1.983-1.742-3.027-2.554a81.76,81.76,0,0,0-13.329-8.615,85.029,85.029,0,0,0-14.709-6.094l-.023-.007a.375.375,0,0,1,.2-.721Z" transform="translate(-641.998 -1748.951)"/>
      </g>
      <g id="Group_734" data-name="Group 734" transform="translate(0 102.315)">
        <path id="Path_436" data-name="Path 436" class="cls-17" d="M555.971,2374.557c8.845,12.985,7.709,20.251,7.981,26.405.048,1.093.108,2.637.235,4.462H566.6a52.961,52.961,0,0,1-.968-7.509c-.86-17-4.694-46.005-19.352-63.358s-30.708-18.937-50.933-3.161c-16.854,13.146-27.367,19.781-33.533,21.014a2.33,2.33,0,0,0-1.563,3.4c3.954,7.282,15.135,24.01,33.907,22.833C518.106,2377.138,547.126,2361.571,555.971,2374.557Z" transform="translate(-459.969 -2320.49)"/>
        <path id="Path_437" data-name="Path 437" class="cls-19" d="M724.711,2453.531a48.139,48.139,0,0,1,4.176-3.494c1.448-1.093,2.94-2.134,4.493-3.083a45.021,45.021,0,0,1,9.917-4.667,31.131,31.131,0,0,1,5.425-1.22,23.171,23.171,0,0,1,5.627-.022c.467.076.94.12,1.4.224s.935.2,1.382.324l2.639.819,2.583,1,2.5,1.2a31.526,31.526,0,0,1,8.72,6.819,39.174,39.174,0,0,1,6.04,9.183l.6,1.231c.206.407.356.839.537,1.257.34.845.707,1.679,1.025,2.531l.889,2.576c.315.853.515,1.739.77,2.608a94.972,94.972,0,0,1,2.292,10.59.364.364,0,0,1-.713.147l0-.012c-.843-3.484-1.655-6.973-2.814-10.348-.526-1.705-1.193-3.354-1.814-5.019-.334-.822-.715-1.623-1.07-2.435-.187-.4-.345-.817-.557-1.206l-.617-1.173a39.883,39.883,0,0,0-5.983-8.63,30.677,30.677,0,0,0-8.261-6.3l-2.361-1.119-2.446-.936-2.513-.765c-.417-.118-.826-.2-1.24-.3s-.838-.137-1.256-.209a21.088,21.088,0,0,0-5.126-.012,29.337,29.337,0,0,0-5.1,1.035,48.992,48.992,0,0,0-9.712,4.138c-1.55.862-3.086,1.763-4.577,2.738s-2.955,2.009-4.355,3.092l-.009.007a.379.379,0,0,1-.493-.574Z" transform="translate(-682.48 -2421.724)"/>
      </g>
    </g>
    <g id="Group_749" data-name="Group 749" transform="translate(96.5 27.502)">
      <path id="Path_438" data-name="Path 438" class="cls-20" d="M1066.328,935.384c0-13.752,10.786-24.9,24.092-24.9H1295.3c11.3,0,20.623,9.155,21.2,20.821l15.123,306.993c.45,9.13-6.5,16.83-15.348,17l-234.818,4.411a15.1,15.1,0,0,1-15.127-15.352Z" transform="translate(-1066.328 -876.822)"/>
      <g id="Group_748" data-name="Group 748" transform="translate(16.785 42.515)">
        <path id="Path_439" data-name="Path 439" class="cls-4" d="M1171.794,901.994a7,7,0,0,1,7.937-6.98c27.978,3.794,124.188,15.529,203.733,9.422a6.471,6.471,0,0,1,6.969,6.1l15.857,298.362a7.447,7.447,0,0,1-7,7.831c-33.455,1.98-171.234,9.634-220.378,4.486a5.9,5.9,0,0,1-5.279-5.839Z" transform="translate(-1171.794 -894.949)"/>
        <path id="Path_440" data-name="Path 440" class="cls-5" d="M1192.5,950.376a6.734,6.734,0,0,1,7.638-6.717c26.925,3.651,119.512,14.944,196.062,9.067a6.227,6.227,0,0,1,6.706,5.873l15.26,287.127a7.167,7.167,0,0,1-6.733,7.537c-32.2,1.905-164.786,9.271-212.079,4.317a5.678,5.678,0,0,1-5.08-5.619Z" transform="translate(-1189.207 -935.854)"/>
        <path id="Path_441" data-name="Path 441" class="cls-6" d="M1349.093,1102.286l2.86,61.557a3.913,3.913,0,0,0,3.8,3.733c11.4.322,46.925,1.188,66.983.142a4.37,4.37,0,0,0,4.139-4.225c.382-11.544,1.219-45.145-1.411-59.191a4.932,4.932,0,0,0-4.682-4.012l-67.384-2.357A4.161,4.161,0,0,0,1349.093,1102.286Z" transform="translate(-1320.872 -1065.628)"/>
        <circle id="Ellipse_12" data-name="Ellipse 12" class="cls-21" cx="13.233" cy="13.233" r="13.233" transform="translate(51.076 68.505) rotate(-76.717)"/>
        <path id="Path_442" data-name="Path 442" class="cls-22" d="M1448.41,1409.916h42.158a3.265,3.265,0,0,0,2.742-5.032c-3.581-5.6-11.073-13.835-24.049-13.464-12.506.358-19.918,7.794-23.644,13.126A3.411,3.411,0,0,0,1448.41,1409.916Z" transform="translate(-1401.515 -1312.398)"/>
        <g id="Group_736" data-name="Group 736" class="cls-9" transform="translate(121.063 36.527)">
          <path id="Path_443" data-name="Path 443" class="cls-10" d="M2008.233,1129.954a2.181,2.181,0,0,0,2.34-2.065,2.39,2.39,0,0,0-2.46-2.108l-73.892-1.317a1.56,1.56,0,0,0-1.6,2.221l.354,1a3.64,3.64,0,0,0,3.2,2.264Z" transform="translate(-1932.49 -1124.464)"/>
        </g>
        <g id="Group_737" data-name="Group 737" class="cls-9" transform="translate(121.063 48.002)">
          <path id="Path_444" data-name="Path 444" class="cls-10" d="M1934.221,1196.572a1.56,1.56,0,0,0-1.6,2.222l.354,1a3.64,3.64,0,0,0,3.2,2.264h72.063a2.181,2.181,0,0,0,2.34-2.065,2.39,2.39,0,0,0-2.46-2.108Z" transform="translate(-1932.49 -1196.571)"/>
        </g>
        <g id="Group_738" data-name="Group 738" class="cls-9" transform="translate(121.063 59.645)">
          <path id="Path_445" data-name="Path 445" class="cls-10" d="M1934.221,1269.728a1.56,1.56,0,0,0-1.6,2.221l.354,1a3.64,3.64,0,0,0,3.2,2.264h72.063a2.181,2.181,0,0,0,2.34-2.065,2.391,2.391,0,0,0-2.46-2.108Z" transform="translate(-1932.49 -1269.727)"/>
        </g>
        <g id="Group_739" data-name="Group 739" class="cls-9" transform="translate(29.271 115.768)">
          <path id="Path_446" data-name="Path 446" class="cls-10" d="M1530.429,1627.887a2.088,2.088,0,0,0,2.264-2.065,2.47,2.47,0,0,0-2.537-2.084l-173.11-1.365c-1.32-.01-1.728.826-.905,1.859l1.415,1.777a5.653,5.653,0,0,0,3.9,1.878Z" transform="translate(-1355.716 -1622.373)"/>
        </g>
        <g id="Group_740" data-name="Group 740" class="cls-9" transform="translate(29.271 127.243)">
          <path id="Path_447" data-name="Path 447" class="cls-10" d="M1357.046,1694.48c-1.32-.01-1.728.826-.905,1.859l1.415,1.776a5.653,5.653,0,0,0,3.9,1.878h168.977a2.088,2.088,0,0,0,2.264-2.065,2.471,2.471,0,0,0-2.537-2.084Z" transform="translate(-1355.716 -1694.48)"/>
        </g>
        <path id="Path_448" data-name="Path 448" class="cls-23" d="M1345.673,1812.09c4.162-.319,11.957-.467,16.247-.527a3.889,3.889,0,0,1,3.839,2.974,63.392,63.392,0,0,1,1.827,15.709,3.453,3.453,0,0,1-3.484,3.381l-15.833-.17a3.8,3.8,0,0,1-3.745-3.448l-1.392-14.9A2.77,2.77,0,0,1,1345.673,1812.09Z" transform="translate(-1315.853 -1665.686)"/>
        <g id="Group_741" data-name="Group 741" class="cls-9" transform="translate(57.031 152.518)">
          <path id="Path_449" data-name="Path 449" class="cls-10" d="M1532.219,1853.3a1.91,1.91,0,0,0-2.042,2.274l.383,2.553a2.884,2.884,0,0,0,2.757,2.374h38.454a2.372,2.372,0,0,0,2.371-2.4l-.008-.649a2.57,2.57,0,0,0-2.428-2.5Z" transform="translate(-1530.15 -1853.294)"/>
        </g>
        <path id="Path_450" data-name="Path 450" class="cls-23" d="M1887.67,1812.09c4.162-.319,11.957-.467,16.247-.527a3.889,3.889,0,0,1,3.839,2.974,63.387,63.387,0,0,1,1.826,15.709,3.453,3.453,0,0,1-3.484,3.381l-15.833-.17a3.8,3.8,0,0,1-3.745-3.448l-1.392-14.9A2.77,2.77,0,0,1,1887.67,1812.09Z" transform="translate(-1771.593 -1665.686)"/>
        <g id="Group_742" data-name="Group 742" class="cls-9" transform="translate(143.289 152.518)">
          <path id="Path_451" data-name="Path 451" class="cls-10" d="M2074.215,1853.3a1.911,1.911,0,0,0-2.042,2.274l.384,2.553a2.884,2.884,0,0,0,2.757,2.374h38.453a2.372,2.372,0,0,0,2.371-2.4l-.008-.649a2.57,2.57,0,0,0-2.428-2.5Z" transform="translate(-2072.147 -1853.294)"/>
        </g>
        <g id="Group_747" data-name="Group 747" transform="translate(32.203 180.528)">
          <path id="Path_452" data-name="Path 452" class="cls-10" d="M1394.1,2080.507h-.04l-14.61-.14a3.927,3.927,0,0,1-4.008-3.341l-1.284-12.258a2.663,2.663,0,0,1,.629-2,3.208,3.208,0,0,1,2.235-1.1h0c1.231-.084,2.964-.232,4.8-.388,3.864-.329,8.673-.738,11.379-.772a4.083,4.083,0,0,1,4.091,2.862c.761,2.814.694,8.141.549,13.815A3.61,3.61,0,0,1,1394.1,2080.507Zm-17-17.726a2.078,2.078,0,0,0-1.453.706,1.551,1.551,0,0,0-.372,1.164l1.284,12.259a2.811,2.811,0,0,0,2.9,2.336l14.61.14h.029a2.489,2.489,0,0,0,2.62-2.235c.143-5.589.211-10.825-.511-13.494a3.015,3.015,0,0,0-2.994-2.032c-2.666.033-7.452.441-11.3.769-1.84.157-3.578.3-4.818.389Z" transform="translate(-1374.139 -2055.535)"/>
          <path id="Path_453" data-name="Path 453" class="cls-5" d="M1392.637,2077.881c3.069-.21,9.74-.887,12.9-.927a2.828,2.828,0,0,1,2.831,1.955c.611,2.258.53,6.758.424,10.912a2.431,2.431,0,0,1-2.569,2.223l-11.675-.112a2.7,2.7,0,0,1-2.762-2.268l-1.026-9.8A1.9,1.9,0,0,1,1392.637,2077.881Z" transform="translate(-1388.11 -2069.37)"/>
          <g id="Group_743" data-name="Group 743" class="cls-9" transform="translate(32.668 12.279)">
            <path id="Path_454" data-name="Path 454" class="cls-10" d="M1579.528,2111.008a3.628,3.628,0,0,0,3.539,2.7l135.18-1.152a2.743,2.743,0,0,0-.011-5.486l-135.184-.617A3.628,3.628,0,0,0,1579.528,2111.008Z" transform="translate(-1579.406 -2106.455)"/>
          </g>
          <path id="Path_455" data-name="Path 455" class="cls-24" d="M1400.381,2039.73h0a2.243,2.243,0,0,1,3.093.842l2.882,5.166a.72.72,0,0,0,1.286-.056l7.147-15.913a.8.8,0,0,1,1.526.345,31.417,31.417,0,0,1-9.142,21.864s-4.286-1.666-7.737-9.245A2.352,2.352,0,0,1,1400.381,2039.73Z" transform="translate(-1395.231 -2029.297)"/>
          <path id="Path_456" data-name="Path 456" class="cls-10" d="M1394.1,2277.262h-.04l-14.61-.14a3.927,3.927,0,0,1-4.008-3.34l-1.284-12.259a2.664,2.664,0,0,1,.629-2,3.209,3.209,0,0,1,2.235-1.1h0c1.231-.084,2.964-.231,4.8-.388,3.864-.329,8.673-.738,11.379-.772h.059a4.074,4.074,0,0,1,4.032,2.862c.761,2.814.694,8.141.549,13.815A3.61,3.61,0,0,1,1394.1,2277.262Zm-17-17.726a2.079,2.079,0,0,0-1.453.705,1.551,1.551,0,0,0-.372,1.164l1.284,12.258a2.811,2.811,0,0,0,2.9,2.336l14.61.14h.029a2.489,2.489,0,0,0,2.62-2.235c.143-5.589.211-10.825-.511-13.494a3,3,0,0,0-2.994-2.032c-2.665.033-7.452.441-11.3.769-1.84.157-3.578.3-4.818.39Z" transform="translate(-1374.139 -2220.977)"/>
          <path id="Path_457" data-name="Path 457" class="cls-5" d="M1392.637,2274.639c3.069-.209,9.74-.887,12.9-.926a2.828,2.828,0,0,1,2.831,1.955c.611,2.258.53,6.758.424,10.912a2.431,2.431,0,0,1-2.569,2.224l-11.675-.112a2.7,2.7,0,0,1-2.762-2.268l-1.026-9.8A1.9,1.9,0,0,1,1392.637,2274.639Z" transform="translate(-1388.11 -2234.814)"/>
          <g id="Group_744" data-name="Group 744" class="cls-9" transform="translate(32.668 43.593)">
            <path id="Path_458" data-name="Path 458" class="cls-10" d="M1579.528,2307.766a3.628,3.628,0,0,0,3.539,2.7l135.18-1.152a2.743,2.743,0,0,0-.011-5.486l-135.184-.617A3.628,3.628,0,0,0,1579.528,2307.766Z" transform="translate(-1579.406 -2303.212)"/>
          </g>
          <path id="Path_459" data-name="Path 459" class="cls-24" d="M1400.381,2236.489h0a2.242,2.242,0,0,1,3.093.842l2.882,5.166a.72.72,0,0,0,1.286-.056l7.147-15.912a.8.8,0,0,1,1.526.344,31.417,31.417,0,0,1-9.142,21.864s-4.286-1.666-7.737-9.245A2.352,2.352,0,0,1,1400.381,2236.489Z" transform="translate(-1395.231 -2194.741)"/>
          <path id="Path_460" data-name="Path 460" class="cls-10" d="M1394.1,2474.019h-.04l-14.61-.14a3.926,3.926,0,0,1-4.008-3.34l-1.284-12.259a2.664,2.664,0,0,1,.629-2,3.208,3.208,0,0,1,2.235-1.1h0c1.231-.083,2.964-.232,4.8-.388,3.864-.329,8.673-.738,11.379-.772h.059a4.075,4.075,0,0,1,4.032,2.862c.761,2.814.694,8.141.549,13.815A3.61,3.61,0,0,1,1394.1,2474.019Zm-17-17.726a2.078,2.078,0,0,0-1.453.705,1.552,1.552,0,0,0-.372,1.165l1.284,12.258a2.81,2.81,0,0,0,2.9,2.335l14.61.14h.029a2.489,2.489,0,0,0,2.62-2.235c.143-5.589.211-10.825-.511-13.495a2.994,2.994,0,0,0-2.994-2.032c-2.665.033-7.452.441-11.3.769-1.84.156-3.578.3-4.818.39Z" transform="translate(-1374.139 -2386.42)"/>
          <path id="Path_461" data-name="Path 461" class="cls-5" d="M1392.637,2471.4c3.069-.21,9.74-.887,12.9-.927a2.829,2.829,0,0,1,2.831,1.956c.611,2.258.53,6.758.424,10.912a2.431,2.431,0,0,1-2.569,2.224l-11.675-.112a2.7,2.7,0,0,1-2.762-2.268l-1.026-9.8A1.9,1.9,0,0,1,1392.637,2471.4Z" transform="translate(-1388.11 -2400.258)"/>
          <g id="Group_745" data-name="Group 745" class="cls-9" transform="translate(32.668 74.906)">
            <path id="Path_462" data-name="Path 462" class="cls-10" d="M1579.528,2504.523a3.628,3.628,0,0,0,3.539,2.7l135.18-1.153a2.743,2.743,0,0,0-.011-5.486l-135.184-.617A3.628,3.628,0,0,0,1579.528,2504.523Z" transform="translate(-1579.406 -2499.97)"/>
          </g>
          <path id="Path_463" data-name="Path 463" class="cls-24" d="M1400.381,2433.246h0a2.242,2.242,0,0,1,3.093.841l2.882,5.166a.72.72,0,0,0,1.286-.056l7.147-15.913a.8.8,0,0,1,1.526.345,31.416,31.416,0,0,1-9.142,21.864s-4.286-1.666-7.737-9.245A2.352,2.352,0,0,1,1400.381,2433.246Z" transform="translate(-1395.231 -2360.186)"/>
          <path id="Path_464" data-name="Path 464" class="cls-10" d="M1394.1,2670.777h-.04l-14.61-.14a3.926,3.926,0,0,1-4.008-3.34l-1.284-12.259a2.665,2.665,0,0,1,.629-2,3.208,3.208,0,0,1,2.235-1.1h0c1.231-.084,2.964-.232,4.8-.388,3.864-.329,8.673-.738,11.379-.772h.059a4.074,4.074,0,0,1,4.032,2.863c.761,2.813.694,8.141.549,13.815A3.61,3.61,0,0,1,1394.1,2670.777Zm-17-17.726a2.08,2.08,0,0,0-1.453.706,1.552,1.552,0,0,0-.372,1.165l1.284,12.258a2.809,2.809,0,0,0,2.9,2.335l14.61.14h.029a2.489,2.489,0,0,0,2.62-2.235c.143-5.589.211-10.825-.511-13.494a2.989,2.989,0,0,0-2.994-2.032c-2.665.033-7.452.441-11.3.768-1.84.157-3.578.3-4.818.389Z" transform="translate(-1374.139 -2551.865)"/>
          <path id="Path_465" data-name="Path 465" class="cls-5" d="M1392.637,2668.154c3.069-.21,9.74-.887,12.9-.927a2.827,2.827,0,0,1,2.831,1.956c.611,2.257.53,6.758.424,10.912a2.431,2.431,0,0,1-2.569,2.223l-11.675-.112a2.7,2.7,0,0,1-2.762-2.268l-1.026-9.8A1.9,1.9,0,0,1,1392.637,2668.154Z" transform="translate(-1388.11 -2565.703)"/>
          <g id="Group_746" data-name="Group 746" class="cls-9" transform="translate(32.668 106.22)">
            <path id="Path_466" data-name="Path 466" class="cls-10" d="M1579.528,2701.281h0a3.628,3.628,0,0,0,3.539,2.7l135.18-1.152a2.743,2.743,0,0,0-.011-5.486l-135.184-.617A3.628,3.628,0,0,0,1579.528,2701.281Z" transform="translate(-1579.406 -2696.729)"/>
          </g>
          <path id="Path_467" data-name="Path 467" class="cls-24" d="M1400.381,2630h0a2.242,2.242,0,0,1,3.093.841l2.882,5.166a.72.72,0,0,0,1.286-.056l7.147-15.913a.8.8,0,0,1,1.526.345,31.417,31.417,0,0,1-9.142,21.864s-4.286-1.666-7.737-9.245A2.352,2.352,0,0,1,1400.381,2630Z" transform="translate(-1395.231 -2525.63)"/>
        </g>
      </g>
      <path id="Path_468" data-name="Path 468" class="cls-20" d="M1810.093,632.3c-7.4-5.148-13.835-5.046-18.365-3.71a9.035,9.035,0,0,0-6.418,9.5l1.954,21.323,23.246,2.063S1824.606,642.394,1810.093,632.3Zm-10.223,17.2a5.8,5.8,0,1,1,5.8-5.8A5.8,5.8,0,0,1,1799.87,649.5Z" transform="translate(-1670.854 -627.809)"/>
      <path id="Path_469" data-name="Path 469" class="cls-10" d="M1804.769,666.936a.561.561,0,0,1-.558-.51l-.311-3.4a.561.561,0,1,1,1.117-.1l.311,3.4a.561.561,0,0,1-.507.61Zm-.61-6.655a.561.561,0,0,1-.558-.51l-.236-2.578a8.624,8.624,0,0,1,6.115-9.049,17.372,17.372,0,0,1,8.5-.349.561.561,0,0,1-.225,1.1,16.283,16.283,0,0,0-7.954.326,7.5,7.5,0,0,0-5.315,7.871l.236,2.578a.561.561,0,0,1-.507.61Z" transform="translate(-1686.037 -644.306)"/>
      <path id="Path_470" data-name="Path 470" class="cls-20" d="M1598.432,821.745v-10.72a6.542,6.542,0,0,1,6.766-6.538l73.912,2.532a6.362,6.362,0,0,1,6.133,5.978l.618,10.3Z" transform="translate(-1513.749 -776.366)"/>
      <path id="Path_471" data-name="Path 471" class="cls-10" d="M1751.847,823.962h-3.178a.561.561,0,0,1,0-1.122h3.178a.561.561,0,1,1,0,1.122Z" transform="translate(-1639.605 -791.801)"/>
      <path id="Path_472" data-name="Path 472" class="cls-10" d="M1620.606,833.814a.561.561,0,0,1-.561-.561v-4.337a6.083,6.083,0,0,1,6.077-6.077h11.686a.561.561,0,0,1,0,1.122h-11.686a4.961,4.961,0,0,0-4.955,4.955v4.337A.561.561,0,0,1,1620.606,833.814Z" transform="translate(-1531.922 -791.801)"/>
      <path id="Path_473" data-name="Path 473" class="cls-25" d="M2086.88,1026.714l-17.4-14.188-17.4,14.188a298.093,298.093,0,0,0,1.3-44.391q-.351-7.719-1.058-14.943a2.2,2.2,0,0,1,2.2-2.413h30.276a2.2,2.2,0,0,1,2.2,2.085q.58,11.088.721,22.933C2087.852,1002.858,2087.531,1015.122,2086.88,1026.714Z" transform="translate(-1895.201 -911.309)"/>
      <path id="Path_474" data-name="Path 474" class="cls-26" d="M1407.657,894.5a6.786,6.786,0,0,1,6.957-6.221l129.249,0a9.4,9.4,0,0,1,9.413,7.434l.109.593c.868,4.706-2.994,9.01-8.084,9.01H1412.7a5.158,5.158,0,0,1-5.328-5.245Z" transform="translate(-1353.09 -846.261)"/>
    </g>
    <g id="Group_752" data-name="Group 752" transform="translate(303.619 177.878)">
      <path id="Path_475" data-name="Path 475" class="cls-27" d="M2733.493,3115.387c-6.771.311-13.325.116-17.7-.109,3.984-2.836,13.163-9.006,20.844-11.462l5.272-.315s1.786,2.717,2.424,8.935C2743.459,3113.526,2740.905,3115.046,2733.493,3115.387Z" transform="translate(-2660.404 -2859.877)"/>
      <path id="Path_476" data-name="Path 476" class="cls-28" d="M2713.388,3162.525l.055-.039c4.376.225,10.929.42,17.7.109,7.412-.341,9.966-1.862,10.84-2.952.029.286.06.571.084.872a2.469,2.469,0,0,1-2.268,2.666c-5.545.419-19.294,1.369-25.924,1.021A.925.925,0,0,1,2713.388,3162.525Z" transform="translate(-2658.053 -2907.085)"/>
      <path id="Path_477" data-name="Path 477" class="cls-29" d="M3131.132,3115.2c.5-3.179,1.291-7.774,1.9-8.948.964-1.843,4.263,0,4.263,0a8.764,8.764,0,0,1,3.382,2.88c.679,1.147,2.559,4.412,3.832,6.629a1.481,1.481,0,0,1,.2.789l-13.211.462A2.638,2.638,0,0,1,3131.132,3115.2Z" transform="translate(-3009.616 -2861.499)"/>
      <path id="Path_478" data-name="Path 478" class="cls-30" d="M3146.846,3175.285a1.5,1.5,0,0,1-1.464,1.462l-9.412.259a2.656,2.656,0,0,1-2.335-1.259Z" transform="translate(-3011.749 -2920.237)"/>
      <path id="Path_479" data-name="Path 479" class="cls-31" d="M3124.959,3035.478c.114.381,1.821,8.656,2.568,12.288a2.075,2.075,0,0,0,2.135,1.657c.559-.028,1.209-.078,1.891-.167a2.5,2.5,0,0,0,2.178-2.386c.121-3.181.181-9.29-.987-11.656C3131.132,3031.949,3124.959,3035.478,3124.959,3035.478Z" transform="translate(-3004.452 -2801.293)"/>
      <path id="Path_480" data-name="Path 480" class="cls-32" d="M2847.507,3045.168c-.732-.023.292,3.78-.816,7.519a1.922,1.922,0,0,1-1.76,1.516c-.57.007-1.245,0-1.931-.059a2.122,2.122,0,0,1-1.956-1.913l-.9-9.7Z" transform="translate(-2764.965 -2808.614)"/>
      <path id="Path_481" data-name="Path 481" class="cls-33" d="M2757.728,2386.543c.327,1.591,11.861,68.869,12.561,103.681a1.185,1.185,0,0,0,1.019,1.154,23.293,23.293,0,0,0,7.081-.046.834.834,0,0,0,.688-.767c.4-6.487,3.645-61.338-.325-87.16,0,0,32.8,69.024,37.767,88.056a1,1,0,0,0,1.024.749,24.775,24.775,0,0,0,6.645-1.18,1.736,1.736,0,0,0,1.095-2.041c-2.777-11.39-22.243-89.865-35.459-107.155Z" transform="translate(-2695.665 -2253.063)"/>
      <path id="Path_482" data-name="Path 482" class="cls-34" d="M2864.354,2491.8a.431.431,0,0,0,.307-.732l-4.391-4.49a.43.43,0,1,0-.615.6l4.391,4.49A.429.429,0,0,0,2864.354,2491.8Z" transform="translate(-2781.268 -2341.028)"/>
      <path id="Path_483" data-name="Path 483" class="cls-35" d="M2639.942,1855.559c9.812-1.475,29.069-3.589,41.63.1l-1.362,38.823-45.509-4.906-3.86-5.487S2632.63,1856.659,2639.942,1855.559Z" transform="translate(-2588.972 -1808.898)"/>
      <path id="Path_484" data-name="Path 484" class="cls-36" d="M2751.654,1735.294s.909,15.442.737,20.245c0,0-12.642,2.069-15.651-.094l2.377-18.3Z" transform="translate(-2678.018 -1709.417)"/>
      <g id="Group_750" data-name="Group 750" transform="translate(54.685 0)">
        <path id="Path_485" data-name="Path 485" class="cls-37" d="M2718.032,1638.117s-5.09,8.935-5.894,13.826-2.208,7.969,3.375,9.573,10.68-.715,13.8-5.336c0,0,4.881-7.114,4.3-10.305S2718.032,1638.117,2718.032,1638.117Z" transform="translate(-2711.37 -1627.705)"/>
        <path id="Path_486" data-name="Path 486" class="cls-38" d="M2737.183,1597.434l-.719-.077s3.618-5.759,1.128-7.107-12.576-4.562-14.407-8.461a6.845,6.845,0,0,1,3.639-9.077.385.385,0,0,1,.468.232l.188.474a.389.389,0,0,0,.721,0h0a.387.387,0,0,1,.7-.031c.563,1.168,2.216,3.146,7.065,4.591,6.88,2.051,11.215,5.392,10.807,10.255a.389.389,0,0,0,.564.381c.552-.26,1.4-.319,2.405.732,1.753,1.828.512,5.948-4.086,8.951a.386.386,0,0,0-.048.621c.712.581,1.726,1.891-1.4,3.154-3.2,1.292-4.973.923-5.63.677a.389.389,0,0,1-.25-.431l.729-4.271a.389.389,0,0,0-.341-.452Z" transform="translate(-2720.8 -1572.694)"/>
        <path id="Path_487" data-name="Path 487" class="cls-39" d="M2812.591,1711.182s2.2-5.821,4.706-3.853-2.115,6.56-4.3,6.551Z" transform="translate(-2796.481 -1685.56)"/>
      </g>
      <g id="Group_751" data-name="Group 751" transform="translate(0 68.869)">
        <path id="Path_488" data-name="Path 488" class="cls-20" d="M2470.081,2013.592l1.207-4.744a4.537,4.537,0,0,1,5.3-3.327l113.653,23.187a4.76,4.76,0,0,1,3.707,5.647l-6.929,32.845Z" transform="translate(-2453.796 -2005.429)"/>
        <path id="Path_489" data-name="Path 489" class="cls-10" d="M2402.37,2084.127l8.548-61.437a2.2,2.2,0,0,1,2.653-1.843l116.73,25.922a4.594,4.594,0,0,1,3.48,5.517l-9.8,42.467Z" transform="translate(-2396.861 -2018.349)"/>
        <path id="Path_490" data-name="Path 490" class="cls-10" d="M2421.74,2100.042l3.274-54.837a2.31,2.31,0,0,1,2.784-2.122l117.958,24.961a3.193,3.193,0,0,1,2.493,3.624l-6.283,39.612Z" transform="translate(-2413.148 -2037.048)"/>
        <path id="Path_491" data-name="Path 491" class="cls-20" d="M2367.8,2144.933l7.426-59.4a5.173,5.173,0,0,1,6.092-4.441l120.957,22.83a4.52,4.52,0,0,1,3.6,5.28l-10.216,54.126a4.89,4.89,0,0,1-5.453,3.941l-117.259-15.659A5.989,5.989,0,0,1,2367.8,2144.933Z" transform="translate(-2367.756 -2068.977)"/>
        <path id="Path_492" data-name="Path 492" class="cls-40" d="M2529.294,2076.07h0a4.644,4.644,0,0,1-5.424,3.7l-26.969-5.091a4.643,4.643,0,0,1-3.7-5.424h0a4.643,4.643,0,0,1,5.424-3.7l26.969,5.09A4.643,4.643,0,0,1,2529.294,2076.07Z" transform="translate(-2473.167 -2055.919)"/>
      </g>
      <path id="Path_493" data-name="Path 493" class="cls-35" d="M2869.848,1883.43l12.693-16.929s20.4,21.668,24.311,49.17l-12.724,6.2C2890.179,1912.615,2882.91,1900.069,2869.848,1883.43Z" transform="translate(-2789.941 -1819.742)"/>
      <path id="Path_494" data-name="Path 494" class="cls-41" d="M2971.792,2219.478c1.5-2.516,4.44-7.305,5.868-8.8a6.126,6.126,0,0,0-3.81-.517c-2.5.308-4.466-.914-4.391-2.277l11.949-3.665c.537-1.122,2.9-7.486-3.523-22.551l12.724-6.2a57.319,57.319,0,0,1-4.469,32.51s-3.951,12.272-8.49,14.995C2965.8,2230.074,2971.215,2220.443,2971.792,2219.478Z" transform="translate(-2873.699 -2079.534)"/>
    </g>
    <g id="Group_753" data-name="Group 753" transform="translate(62.351 157.795)">
      <path id="Path_495" data-name="Path 495" class="cls-10" d="M1056.637,1447.3l-2.507,3.175-.01.012a.533.533,0,0,1-.837-.661l.008-.01,2.6-3.137a.485.485,0,0,1,.754.61Z" transform="translate(-1021.114 -1446.501)"/>
      <path id="Path_496" data-name="Path 496" class="cls-10" d="M991.983,1518.666l-4.25,6.78-.021.032a.734.734,0,0,1-1.245-.78l.008-.012,4.42-6.757a.656.656,0,0,1,1.106.707Z" transform="translate(-964.934 -1506.311)"/>
      <path id="Path_497" data-name="Path 497" class="cls-10" d="M936.839,1616.963l-3.409,7.229-.02.044a.9.9,0,1,1-1.624-.766l.007-.014,3.577-7.25a.826.826,0,0,1,1.488.717Z" transform="translate(-918.977 -1588.81)"/>
      <path id="Path_498" data-name="Path 498" class="cls-10" d="M894.62,1721.63l-2.474,7.587-.019.057a1.061,1.061,0,1,1-2.017-.657s0-.014.006-.018l2.646-7.651a.989.989,0,0,1,1.875.629Z" transform="translate(-883.962 -1676.71)"/>
      <path id="Path_499" data-name="Path 499" class="cls-10" d="M866.925,1831.357l-1.476,7.831-.013.069a1.18,1.18,0,1,1-2.32-.437l0-.012,1.588-7.949a1.137,1.137,0,0,1,2.232.432Z" transform="translate(-861.291 -1768.92)"/>
      <path id="Path_500" data-name="Path 500" class="cls-10" d="M854.705,1944.68l-.39,7.951,0,.077a1.28,1.28,0,0,1-2.557-.125v-.014l.485-8.1a1.236,1.236,0,0,1,2.469.134Z" transform="translate(-851.752 -1864.243)"/>
      <path id="Path_501" data-name="Path 501" class="cls-10" d="M855.015,2059.324l.705,7.926.007.083a1.38,1.38,0,0,1-2.749.245v-.015l-.632-8.1a1.336,1.336,0,0,1,2.662-.223Z" transform="translate(-852.247 -1960.703)"/>
      <path id="Path_502" data-name="Path 502" class="cls-10" d="M868.575,2173.107l1.781,7.75.02.085a1.48,1.48,0,1,1-2.884.663l0-.016-1.734-7.939a1.435,1.435,0,0,1,2.8-.629Z" transform="translate(-863.498 -2056.463)"/>
      <path id="Path_503" data-name="Path 503" class="cls-10" d="M897.545,2283.887l2.778,7.448.031.083a1.555,1.555,0,1,1-2.915,1.087l0-.007-2.8-7.629a1.535,1.535,0,1,1,2.882-1.059Z" transform="translate(-887.73 -2149.709)"/>
      <path id="Path_504" data-name="Path 504" class="cls-10" d="M941.28,2390.152l3.714,7.03.042.078a1.589,1.589,0,0,1-2.809,1.484l0-.005-3.771-7.2a1.574,1.574,0,1,1,2.788-1.46Z" transform="translate(-924.503 -2239.202)"/>
      <path id="Path_505" data-name="Path 505" class="cls-10" d="M998.331,2489.947l4.568,6.507.051.073a1.621,1.621,0,1,1-2.654,1.863l0,0-4.645-6.668a1.607,1.607,0,1,1,2.637-1.837Z" transform="translate(-972.504 -2323.25)"/>
      <path id="Path_506" data-name="Path 506" class="cls-10" d="M1067.449,2581.781l5.344,5.882.062.068a1.654,1.654,0,0,1-2.449,2.225l0,0-5.446-6.037a1.64,1.64,0,0,1,2.436-2.2Z" transform="translate(-1030.671 -2400.596)"/>
      <path id="Path_507" data-name="Path 507" class="cls-10" d="M1147.593,2664.124l6.059,5.129.078.066a1.687,1.687,0,0,1-2.18,2.576l0,0-6.194-5.281a1.673,1.673,0,0,1,2.171-2.546Z" transform="translate(-1098.132 -2469.955)"/>
      <path id="Path_508" data-name="Path 508" class="cls-10" d="M1238.025,2734.93l3.36,2.094,1.679,1.048c.563.343,1.111.713,1.688,1.031a1.721,1.721,0,1,1-1.663,3.013l-.006,0-.046-.025c-.595-.331-1.158-.713-1.737-1.069l-1.727-1.085-3.452-2.172a1.706,1.706,0,0,1,1.816-2.887Z" transform="translate(-1174.279 -2529.614)"/>
      <path id="Path_509" data-name="Path 509" class="cls-10" d="M1338.45,2791.091q3.6,1.645,7.307,3.043a1.731,1.731,0,0,1-1.217,3.241q-3.818-1.429-7.535-3.12a1.74,1.74,0,0,1,1.445-3.165Z" transform="translate(-1258.922 -2576.97)"/>
      <path id="Path_510" data-name="Path 510" class="cls-10" d="M1446.346,2830.6l7.7,1.908.1.026a1.707,1.707,0,0,1-.817,3.315l-7.911-1.941a1.717,1.717,0,1,1,.818-3.335h0Z" transform="translate(-1349.837 -2610.259)"/>
      <path id="Path_511" data-name="Path 511" class="cls-10" d="M1559.25,2853.9l7.9.84.095.01a1.681,1.681,0,0,1-.35,3.344l-8.091-.834a1.694,1.694,0,0,1,.347-3.371h.006Z" transform="translate(-1444.997 -2629.904)"/>
      <path id="Path_512" data-name="Path 512" class="cls-10" d="M1674.426,2861.456l7.952-.129h.083a1.612,1.612,0,0,1,.064,3.222l-8.12.193a1.642,1.642,0,1,1-.078-3.283h.1Z" transform="translate(-1542.069 -2636.16)"/>
      <path id="Path_513" data-name="Path 513" class="cls-10" d="M1789.874,2851.07l7.9-1.023.072-.009a1.541,1.541,0,0,1,.408,3.055l-8.036,1.106a1.573,1.573,0,0,1-.429-3.117h.012Z" transform="translate(-1639.36 -2626.657)"/>
      <path id="Path_514" data-name="Path 514" class="cls-10" d="M1904.193,2828.925l7.767-1.809.059-.014a1.406,1.406,0,0,1,.658,2.733l-7.86,1.954a1.465,1.465,0,0,1-.707-2.844l.013,0Z" transform="translate(-1735.695 -2607.352)"/>
      <path id="Path_515" data-name="Path 515" class="cls-10" d="M2016.25,2795.8l7.567-2.549.049-.017a1.271,1.271,0,0,1,.829,2.4l-7.628,2.7a1.33,1.33,0,1,1-.886-2.509l.011,0Z" transform="translate(-1830.118 -2578.85)"/>
      <path id="Path_516" data-name="Path 516" class="cls-10" d="M2125.031,2752.686l7.315-3.223.041-.017a1.135,1.135,0,0,1,.931,2.071l-7.349,3.367a1.195,1.195,0,1,1-1-2.173l.01,0Z" transform="translate(-1921.757 -2542.004)"/>
      <path id="Path_517" data-name="Path 517" class="cls-10" d="M2230.021,2700.893l7.041-3.806.03-.016a.929.929,0,0,1,.9,1.624l-7.009,4.009a1.026,1.026,0,0,1-1.019-1.782l.017-.01Z" transform="translate(-2010.193 -2497.952)"/>
      <path id="Path_518" data-name="Path 518" class="cls-10" d="M2330.816,2640.924l6.716-4.37.021-.013a.708.708,0,0,1,.787,1.177l-6.652,4.561a.805.805,0,1,1-.91-1.328l.012-.009Z" transform="translate(-2095.099 -2447.052)"/>
      <path id="Path_519" data-name="Path 519" class="cls-10" d="M2427,2586.454l3.245-2.431.007-.005a.485.485,0,0,1,.594.767l-3.179,2.545a.551.551,0,1,1-.688-.86l.012-.01Z" transform="translate(-2176.113 -2402.904)"/>
    </g>
  </g>
</svg>
