<svg xmlns="http://www.w3.org/2000/svg" width="267.724" height="59.758" viewBox="0 0 267.724 59.758">
  <defs>
    <style>
      .cls-1 {
        fill: #001164;
      }
    </style>
  </defs>
  <g id="Group_2141" data-name="Group 2141" transform="translate(-826.138 -7023)">
    <path id="linkedin" class="cls-1" d="M29.879,0A29.879,29.879,0,1,0,59.758,29.879,29.882,29.882,0,0,0,29.879,0ZM21.2,45.169H13.92V23.276H21.2ZM17.558,20.286h-.047a3.793,3.793,0,1,1,.1-7.565,3.794,3.794,0,1,1-.048,7.565ZM47.435,45.169H40.159V33.456c0-2.943-1.054-4.951-3.687-4.951a3.984,3.984,0,0,0-3.734,2.661,4.983,4.983,0,0,0-.239,1.776V45.169H25.224s.1-19.839,0-21.893H32.5v3.1a7.224,7.224,0,0,1,6.558-3.614c4.788,0,8.377,3.129,8.377,9.853Zm0,0" transform="translate(1034.104 7023)"/>
    <g id="instagram" transform="translate(924.438 7023.341)">
      <path id="Path_1078" data-name="Path 1078" class="cls-1" d="M218.307,212.654A5.654,5.654,0,1,1,212.654,207,5.654,5.654,0,0,1,218.307,212.654Zm0,0" transform="translate(-183.116 -183.116)"/>
      <path id="Path_1079" data-name="Path 1079" class="cls-1" d="M162.612,139.39a5.617,5.617,0,0,0-3.219-3.219,9.384,9.384,0,0,0-3.149-.584c-1.789-.082-2.325-.1-6.854-.1s-5.065.017-6.854.1a9.39,9.39,0,0,0-3.149.584,5.619,5.619,0,0,0-3.219,3.219,9.388,9.388,0,0,0-.584,3.15c-.082,1.788-.1,2.325-.1,6.854s.018,5.065.1,6.854a9.385,9.385,0,0,0,.584,3.149,5.617,5.617,0,0,0,3.219,3.219,9.372,9.372,0,0,0,3.15.584c1.788.082,2.324.1,6.853.1s5.066-.017,6.854-.1a9.372,9.372,0,0,0,3.15-.584,5.617,5.617,0,0,0,3.219-3.219,9.393,9.393,0,0,0,.584-3.149c.082-1.789.1-2.325.1-6.854s-.017-5.065-.1-6.854A9.373,9.373,0,0,0,162.612,139.39ZM149.39,158.1a8.709,8.709,0,1,1,8.709-8.709A8.709,8.709,0,0,1,149.39,158.1Zm9.054-15.728a2.035,2.035,0,1,1,2.035-2.035A2.035,2.035,0,0,1,158.444,142.375Zm0,0" transform="translate(-119.852 -119.856)"/>
      <path id="Path_1080" data-name="Path 1080" class="cls-1" d="M29.537,0A29.537,29.537,0,1,0,59.075,29.537,29.541,29.541,0,0,0,29.537,0ZM46.4,36.53a12.444,12.444,0,0,1-.788,4.117,8.673,8.673,0,0,1-4.96,4.96,12.453,12.453,0,0,1-4.117.788c-1.809.082-2.386.1-6.993.1s-5.184-.02-6.993-.1a12.453,12.453,0,0,1-4.117-.788,8.673,8.673,0,0,1-4.96-4.96,12.441,12.441,0,0,1-.788-4.117c-.083-1.809-.1-2.387-.1-6.993s.019-5.184.1-6.993a12.445,12.445,0,0,1,.788-4.117,8.678,8.678,0,0,1,4.961-4.96,12.456,12.456,0,0,1,4.117-.788c1.809-.082,2.386-.1,6.993-.1s5.184.02,6.993.1a12.458,12.458,0,0,1,4.117.787,8.675,8.675,0,0,1,4.96,4.961,12.443,12.443,0,0,1,.789,4.117c.082,1.809.1,2.386.1,6.993S46.479,34.721,46.4,36.53Zm0,0" transform="translate(0)"/>
    </g>
    <g id="facebook-circular-logo" transform="translate(826.138 7024.366)">
      <path id="Path_1081" data-name="Path 1081" class="cls-1" d="M28.625.349A28.61,28.61,0,0,0,23.851,57.17V34.946H16.946v-8h6.905v-5.9c0-6.842,4.179-10.571,10.283-10.571A56.987,56.987,0,0,1,40.3,10.8v7.152l-4.234,0c-3.319,0-3.959,1.577-3.959,3.892v5.1h7.92l-1.033,8H32.107V57.361A28.612,28.612,0,0,0,28.625.349Z" transform="translate(0 -0.349)"/>
    </g>
  </g>
</svg>
