<svg id="Group_2081" data-name="Group 2081" xmlns="http://www.w3.org/2000/svg" width="494.01" height="436.333" viewBox="0 0 494.01 436.333">
  <defs>
    <style>
      .cls-1 {
        fill: #f8f9fd;
      }

      .cls-2 {
        fill: #001164;
      }

      .cls-3 {
        fill: #989898;
      }

      .cls-4 {
        fill: #2b2716;
      }

      .cls-5 {
        fill: #2a4387;
      }

      .cls-6 {
        fill: #4d78eb;
      }

      .cls-7 {
        fill: #f7f7f7;
      }

      .cls-8 {
        fill: #ded7d5;
      }

      .cls-9 {
        fill: #88a3eb;
      }

      .cls-10 {
        fill: #aebeeb;
      }

      .cls-11 {
        fill: #646d82;
      }

      .cls-12 {
        fill: #707070;
      }

      .cls-13 {
        fill: #0090ff;
      }

      .cls-14 {
        fill: #243973;
        opacity: 0.15;
        mix-blend-mode: multiply;
        isolation: isolate;
      }

      .cls-15 {
        fill: #202338;
      }

      .cls-16 {
        fill: #81807e;
      }

      .cls-17 {
        fill: #eea886;
      }

      .cls-18 {
        fill: #292c47;
      }

      .cls-19 {
        fill: #cac7d1;
      }

      .cls-20 {
        fill: #1d2033;
      }

      .cls-21 {
        fill: #eea987;
      }

      .cls-22 {
        fill: #353a3d;
      }

      .cls-23 {
        fill: #c78d71;
      }

      .cls-24 {
        fill: #a09ea6;
      }

      .cls-25 {
        fill: #eae6f2;
      }

      .cls-26 {
        fill: #3a4066;
      }

      .cls-27 {
        fill: #eddad3;
      }

      .cls-28 {
        fill: #c1c5db;
      }

      .cls-29 {
        fill: #aebdf2;
      }

      .cls-30 {
        fill: #c3d2fd;
      }

      .cls-31 {
        fill: #004275;
      }
    </style>
  </defs>
  <rect id="Rectangle_94" data-name="Rectangle 94" class="cls-1" width="337.692" height="302.412" transform="translate(155.829 13.38)"/>
  <g id="Group_1999" data-name="Group 1999" transform="translate(155.335)">
    <path id="Path_872" data-name="Path 872" class="cls-2" d="M2632.543,322.562v318.67h338.675V322.562Zm337.69,317.686H2633.528v-316.7h336.705Z" transform="translate(-2632.543 -322.562)"/>
  </g>
  <g id="Group_2002" data-name="Group 2002" transform="translate(402.028 84.003)">
    <g id="Group_2000" data-name="Group 2000" transform="translate(0 0)">
      <rect id="Rectangle_95" data-name="Rectangle 95" class="cls-3" width="53.599" height="209.273"/>
    </g>
    <g id="Group_2001" data-name="Group 2001" transform="translate(0 80.397)">
      <rect id="Rectangle_96" data-name="Rectangle 96" class="cls-4" width="53.599" height="128.877"/>
    </g>
  </g>
  <g id="Group_2005" data-name="Group 2005" transform="translate(303.575 35.894)">
    <g id="Group_2003" data-name="Group 2003" transform="translate(0 0)">
      <rect id="Rectangle_97" data-name="Rectangle 97" class="cls-3" width="53.594" height="257.383" transform="translate(53.594 257.383) rotate(180)"/>
    </g>
    <g id="Group_2004" data-name="Group 2004" transform="translate(0 94.143)">
      <rect id="Rectangle_98" data-name="Rectangle 98" class="cls-4" width="53.594" height="163.24" transform="translate(53.594 163.24) rotate(180)"/>
    </g>
  </g>
  <g id="Group_2008" data-name="Group 2008" transform="translate(204.834 64.235)">
    <g id="Group_2006" data-name="Group 2006" transform="translate(0)">
      <rect id="Rectangle_99" data-name="Rectangle 99" class="cls-3" width="53.594" height="229.042" transform="translate(53.594 229.042) rotate(180)"/>
    </g>
    <g id="Group_2007" data-name="Group 2007" transform="translate(0 83.777)">
      <rect id="Rectangle_100" data-name="Rectangle 100" class="cls-4" width="53.594" height="145.265" transform="translate(53.594 145.265) rotate(180)"/>
    </g>
  </g>
  <g id="Group_2009" data-name="Group 2009" transform="translate(188.614 54.834)">
    <path id="Path_873" data-name="Path 873" class="cls-4" d="M2735.342,513.238h-.984V490.322h21.282v.984h-20.3Z" transform="translate(-2734.358 -490.322)"/>
  </g>
  <g id="Group_2010" data-name="Group 2010" transform="translate(363.174 108.305)">
    <path id="Path_874" data-name="Path 874" class="cls-2" d="M3268.9,668.431l-.5-.5,14.025-14.023h42.455v.7h-42.164Z" transform="translate(-3268.406 -653.911)"/>
  </g>
  <path id="Rectangle_101" data-name="Rectangle 101" class="cls-2" d="M1.994,0H48.081a1.994,1.994,0,0,1,1.994,1.994v0a1.994,1.994,0,0,1-1.994,1.994H1.994A1.994,1.994,0,0,1,0,1.994v0A1.994,1.994,0,0,1,1.994,0Z" transform="translate(432.548 102.632) rotate(180)"/>
  <path id="Rectangle_102" data-name="Rectangle 102" class="cls-2" d="M1.994,0H59.645a1.994,1.994,0,0,1,1.994,1.994v0a1.994,1.994,0,0,1-1.994,1.994H1.994A1.994,1.994,0,0,1,0,1.994v0A1.994,1.994,0,0,1,1.994,0Z" transform="translate(444.112 93.598) rotate(180)"/>
  <path id="Rectangle_103" data-name="Rectangle 103" class="cls-2" d="M1.994,0H44.365a1.994,1.994,0,0,1,1.994,1.994v0a1.994,1.994,0,0,1-1.994,1.994H1.993A1.993,1.993,0,0,1,0,1.994v0A1.994,1.994,0,0,1,1.994,0Z" transform="translate(290.343 134.017) rotate(180)"/>
  <path id="Rectangle_104" data-name="Rectangle 104" class="cls-2" d="M1.994,0h14a1.993,1.993,0,0,1,1.993,1.993v0A1.994,1.994,0,0,1,15.99,3.987h-14A1.993,1.993,0,0,1,0,1.994v0A1.994,1.994,0,0,1,1.994,0Z" transform="translate(261.969 143.051) rotate(180)"/>
  <path id="Rectangle_105" data-name="Rectangle 105" class="cls-2" d="M1.994,0H35.731a1.993,1.993,0,0,1,1.993,1.993v0A1.994,1.994,0,0,1,35.73,3.987H1.993A1.993,1.993,0,0,1,0,1.994v0A1.994,1.994,0,0,1,1.994,0Z" transform="translate(281.709 124.983) rotate(180)"/>
  <g id="Group_2073" data-name="Group 2073" transform="translate(0 159.335)">
    <g id="Group_2053" data-name="Group 2053" transform="translate(101.435 27.625)">
      <g id="Group_2013" data-name="Group 2013" transform="translate(3.525 58.167)">
        <g id="Group_2012" data-name="Group 2012">
          <g id="Group_2011" data-name="Group 2011">
            <path id="Path_875" data-name="Path 875" class="cls-5" d="M2615.389,1426.01l-1.416-.057,7.125-178.846H2497.865l-7.127,178.9-1.416-.057,7.182-180.262h126.069Z" transform="translate(-2489.322 -1245.691)"/>
          </g>
        </g>
      </g>
      <g id="Group_2016" data-name="Group 2016" transform="translate(9.299 58.167)">
        <g id="Group_2015" data-name="Group 2015">
          <g id="Group_2014" data-name="Group 2014">
            <path id="Path_876" data-name="Path 876" class="cls-5" d="M2638.823,1426.01l-7.127-178.9H2508.462l7.125,178.846-1.415.057-7.184-180.319h126.069l7.181,180.262Z" transform="translate(-2506.989 -1245.691)"/>
          </g>
        </g>
      </g>
      <g id="Group_2018" data-name="Group 2018" transform="translate(10.036 0.717)">
        <g id="Group_2017" data-name="Group 2017">
          <path id="Path_877" data-name="Path 877" class="cls-6" d="M2516.4,1249.511h124.651l-7.154-179.582H2509.243Z" transform="translate(-2509.243 -1069.929)"/>
        </g>
      </g>
      <g id="Group_2020" data-name="Group 2020" transform="translate(0.717 0.717)">
        <g id="Group_2019" data-name="Group 2019">
          <path id="Path_878" data-name="Path 878" class="cls-7" d="M2605.383,1249.511H2480.731l7.154-179.582h124.652Z" transform="translate(-2480.731 -1069.929)"/>
        </g>
      </g>
      <g id="Group_2023" data-name="Group 2023" transform="translate(18.841 31.324)">
        <g id="Group_2022" data-name="Group 2022">
          <g id="Group_2021" data-name="Group 2021">
            <path id="Rectangle_106" data-name="Rectangle 106" class="cls-8" d="M3.986,0H34.506a3.986,3.986,0,0,1,3.986,3.986v0a3.986,3.986,0,0,1-3.986,3.986H3.986A3.986,3.986,0,0,1,0,3.986v0A3.986,3.986,0,0,1,3.986,0Z"/>
          </g>
        </g>
      </g>
      <g id="Group_2026" data-name="Group 2026" transform="translate(18.841 17.386)">
        <g id="Group_2025" data-name="Group 2025">
          <g id="Group_2024" data-name="Group 2024">
            <path id="Rectangle_107" data-name="Rectangle 107" class="cls-3" d="M3.986,0h30.52a3.986,3.986,0,0,1,3.986,3.986v0a3.986,3.986,0,0,1-3.986,3.986H3.987A3.987,3.987,0,0,1,0,3.986v0A3.986,3.986,0,0,1,3.986,0Z"/>
          </g>
        </g>
      </g>
      <g id="Group_2029" data-name="Group 2029" transform="translate(25.308 100.413)">
        <g id="Group_2028" data-name="Group 2028">
          <g id="Group_2027" data-name="Group 2027">
            <path id="Rectangle_108" data-name="Rectangle 108" class="cls-3" d="M2.647,0H22.911a2.647,2.647,0,0,1,2.647,2.647v0a2.647,2.647,0,0,1-2.647,2.647H2.647A2.647,2.647,0,0,1,0,2.647v0A2.647,2.647,0,0,1,2.647,0Z"/>
          </g>
        </g>
      </g>
      <g id="Group_2030" data-name="Group 2030" transform="translate(31.678 96.91)">
        <path id="Path_879" data-name="Path 879" class="cls-9" d="M2615.783,1377.684h-40.327v-.8h39.525v-12.661h.8Z" transform="translate(-2575.456 -1364.222)"/>
      </g>
      <g id="Group_2039" data-name="Group 2039" transform="translate(87.888 13.289)">
        <g id="Group_2032" data-name="Group 2032">
          <g id="Group_2031" data-name="Group 2031">
            <path id="Path_880" data-name="Path 880" class="cls-3" d="M2779.213,1119.251a16.369,16.369,0,1,0-30.827,11.023q.185.52.4,1.02a16.37,16.37,0,0,0,30.424-12.043Zm-11.281,17.066a12.259,12.259,0,0,1-15.386-6.657q-.163-.375-.3-.765a12.273,12.273,0,1,1,15.689,7.422Z" transform="translate(-2747.425 -1108.391)"/>
          </g>
        </g>
        <g id="Group_2034" data-name="Group 2034" transform="translate(0.747 0.007)">
          <g id="Group_2033" data-name="Group 2033">
            <path id="Path_881" data-name="Path 881" class="cls-2" d="M2753.623,1121.121l-3.912-1.221a16.394,16.394,0,0,1,15.137-11.486l.123,4.095a12.293,12.293,0,0,0-11.348,8.612Z" transform="translate(-2749.711 -1108.414)"/>
          </g>
        </g>
        <g id="Group_2036" data-name="Group 2036" transform="translate(0 11.493)">
          <g id="Group_2035" data-name="Group 2035">
            <path id="Path_882" data-name="Path 882" class="cls-6" d="M2752.545,1153.328l-3.757,1.635q-.216-.5-.4-1.02a16.293,16.293,0,0,1-.214-10.39l3.911,1.221a12.21,12.21,0,0,0,.16,7.789Q2752.382,1152.953,2752.545,1153.328Z" transform="translate(-2747.425 -1143.553)"/>
          </g>
        </g>
        <g id="Group_2038" data-name="Group 2038" transform="translate(1.364 21.268)">
          <g id="Group_2037" data-name="Group 2037">
            <path id="Path_883" data-name="Path 883" class="cls-6" d="M2754.135,1179.168a16.277,16.277,0,0,1-2.537-4.074l3.757-1.635a12.193,12.193,0,0,0,1.9,3.055Z" transform="translate(-2751.597 -1173.459)"/>
          </g>
        </g>
      </g>
      <g id="Group_2040" data-name="Group 2040">
        <path id="Path_884" data-name="Path 884" class="cls-10" d="M2479.973,1248.063h-1.434l7.181-180.328h127.506v1.434H2487.1Z" transform="translate(-2478.539 -1067.734)"/>
      </g>
      <path id="Path_885" data-name="Path 885" class="cls-11" d="M2862.091,1248.034l7.155-180.3h2.165l7.154,180.3Z" transform="translate(-2736.723 -1067.734)"/>
      <g id="Group_2041" data-name="Group 2041" transform="translate(15.395 107.781)">
        <path id="Path_886" data-name="Path 886" class="cls-12" d="M2526.346,1432.788l-.708-1.247,31.032-17.618,18,12.219,51.763-28.66.695,1.255-52.534,29.087L2556.6,1415.61Z" transform="translate(-2525.638 -1397.481)"/>
      </g>
      <g id="Group_2050" data-name="Group 2050" transform="translate(59.484 53.015)">
        <g id="Group_2043" data-name="Group 2043">
          <g id="Group_2042" data-name="Group 2042">
            <path id="Path_887" data-name="Path 887" class="cls-4" d="M2691.364,1232.008a21.593,21.593,0,1,0-18.473,39.036c.438.208.883.4,1.328.576a21.594,21.594,0,0,0,17.145-39.612Zm5.4,26.442a16.175,16.175,0,0,1-20.565,8.141q-.5-.2-1-.431a16.19,16.19,0,1,1,21.561-7.709Z" transform="translate(-2660.526 -1229.928)"/>
          </g>
        </g>
        <g id="Group_2045" data-name="Group 2045" transform="translate(0 6.788)">
          <g id="Group_2044" data-name="Group 2044">
            <path id="Path_888" data-name="Path 888" class="cls-13" d="M2667.785,1273.022l-4.788,2.509a21.62,21.62,0,0,1,3.405-24.834l3.935,3.706a16.213,16.213,0,0,0-2.552,18.619Z" transform="translate(-2660.526 -1250.697)"/>
          </g>
        </g>
        <g id="Group_2047" data-name="Group 2047" transform="translate(2.472 29.113)">
          <g id="Group_2046" data-name="Group 2046">
            <path id="Path_889" data-name="Path 889" class="cls-13" d="M2681.289,1326.547l-1.979,5.03c-.445-.176-.889-.368-1.328-.576a21.5,21.5,0,0,1-9.893-9.494l4.788-2.509a16.121,16.121,0,0,0,7.417,7.117Q2680.787,1326.349,2681.289,1326.547Z" transform="translate(-2668.088 -1318.998)"/>
          </g>
        </g>
        <g id="Group_2049" data-name="Group 2049" transform="translate(13.693 36.662)">
          <g id="Group_2048" data-name="Group 2048">
            <path id="Path_890" data-name="Path 890" class="cls-13" d="M2708.587,1348.556a21.48,21.48,0,0,1-6.169-1.434l1.979-5.03a16.093,16.093,0,0,0,4.625,1.076Z" transform="translate(-2702.418 -1342.093)"/>
          </g>
        </g>
      </g>
      <g id="Group_2051" data-name="Group 2051" transform="translate(13.432 138.516)">
        <path id="Path_891" data-name="Path 891" class="cls-12" d="M2520.378,1517.914l-.746-1.225,32.661-19.894,13.566,11.93,22.645-6.862,20.118,1.1,12.245-11.452.98,1.048-12.693,11.87-20.476-1.12-23.168,7.02-13.372-11.761Z" transform="translate(-2519.632 -1491.513)"/>
      </g>
      <g id="Group_2052" data-name="Group 2052" transform="translate(28.383 83.328)">
        <path id="Path_892" data-name="Path 892" class="cls-3" d="M2568.373,1328.272a3.148,3.148,0,0,1-1.17-.217,3.015,3.015,0,0,1-.953-.595,2.8,2.8,0,0,1-.641-.886,2.656,2.656,0,0,1,0-2.188,2.915,2.915,0,0,1,1.594-1.5,3.26,3.26,0,0,1,2.339,0,2.916,2.916,0,0,1,1.594,1.5,2.658,2.658,0,0,1,0,2.188,2.818,2.818,0,0,1-.642.886,3.017,3.017,0,0,1-.953.595A3.147,3.147,0,0,1,2568.373,1328.272Zm-2.15,7.225,5.3-6.282,4.981-6.47.981.849-5.207,6.206-5.094,6.565Zm2.15-8.3a1.277,1.277,0,0,0,.594-.141,1.644,1.644,0,0,0,.481-.378,1.842,1.842,0,0,0,.33-.547,1.755,1.755,0,0,0,.123-.651,1.881,1.881,0,0,0-.123-.679,1.829,1.829,0,0,0-.33-.557,1.5,1.5,0,0,0-.491-.368,1.383,1.383,0,0,0-1.669.386,1.892,1.892,0,0,0-.321,1.886,1.835,1.835,0,0,0,.33.547,1.5,1.5,0,0,0,.481.368A1.345,1.345,0,0,0,2568.373,1327.2Zm6.943,9.243a3.146,3.146,0,0,1-1.17-.217,2.918,2.918,0,0,1-1.594-1.5,2.655,2.655,0,0,1,0-2.188,2.807,2.807,0,0,1,.642-.887,3.021,3.021,0,0,1,.953-.594,3.264,3.264,0,0,1,2.34,0,3.024,3.024,0,0,1,.952.594,2.822,2.822,0,0,1,.642.887,2.655,2.655,0,0,1,0,2.188,2.92,2.92,0,0,1-1.594,1.5A3.15,3.15,0,0,1,2575.316,1336.44Zm0-1.075a1.384,1.384,0,0,0,1.084-.509,1.908,1.908,0,0,0,.321-1.9,1.76,1.76,0,0,0-.339-.547,1.634,1.634,0,0,0-.491-.368,1.311,1.311,0,0,0-.575-.132,1.269,1.269,0,0,0-.594.141,1.64,1.64,0,0,0-.481.377,1.832,1.832,0,0,0-.33.547,1.753,1.753,0,0,0-.123.651,1.877,1.877,0,0,0,.123.679,1.8,1.8,0,0,0,.33.557,1.51,1.51,0,0,0,.481.368A1.342,1.342,0,0,0,2575.316,1335.365Z" transform="translate(-2565.373 -1322.67)"/>
      </g>
    </g>
    <path id="Path_893" data-name="Path 893" class="cls-14" d="M2536.356,1223.168c-.6-.19-9.566.1-12.42.2-.012-.051-.038-.114-.051-.165,2.233-.534,8.373-2,9.159-2.207.964-.254.914-.838.14-1.281-.7-.406-9.21,1.332-10.847,1.661-1.6.115-5.2,1.5-4.846.533.406-1.1,3.171-5.8,2.207-6.634s-2.207,2.473-2.893,3.3a12.352,12.352,0,0,0-2.575,4.338,2.62,2.62,0,0,1-.685,1.205l-.025-.215s-2.017.621-5.1,1.23a62.979,62.979,0,0,1-7.257,1.053c-.406.039-.85.076-1.319.127-.546.064-1.117.127-1.713.215-.419.051-.85.1-1.294.166-1.053.139-2.119.291-3.134.418-.254.039-.495.064-.736.1s-.483.064-.711.089l-.444,11.125c.228-.026.469-.051.71-.089s.5-.063.736-.088c1.281-.178,2.626-.393,4.009-.634l.419-.076c.33-.051.66-.114.99-.178.139-.025.292-.051.431-.076.393-.076.774-.152,1.167-.228,7.4-1.459,14.6-3.349,14.6-3.349l-.393-2.817a2.723,2.723,0,0,0,.367-.152c.558-.279,4.593.977,7.942.038l.153-.076v.025s5.24-.241,7.434-.1,2.017-.825,1.853-1.192c-.2-.482-5.557-.748-7.8-.837a.544.544,0,0,0,.025-.14c2.727-.254,10.06-.938,10.771-1.015a.859.859,0,0,0,.786-.9.729.729,0,0,0-.279-.6c-.444-.3-8.374-.089-11.24,0a.16.16,0,0,1-.013-.076c1.585-.152,4.745-.457,7.422-.736,2.347-.228,4.339-.457,4.529-.533C2536.939,1224.424,2536.787,1223.3,2536.356,1223.168Z" transform="translate(-2386.039 -1139.339)"/>
    <g id="Group_2072" data-name="Group 2072">
      <path id="Path_894" data-name="Path 894" class="cls-15" d="M2248.915,1775.51a40.34,40.34,0,0,1-3.445,5.429c-1.361,1.543-6.574,4.3-6.6,8.881-.031,4.968,8.788,3.589,12.236,3.408s3.709-2.835,5.162-5.649,2.916-2.337,3.188-4.6-1.406-7.465-1.406-7.465Z" transform="translate(-2215.772 -1516.541)"/>
      <g id="Group_2054" data-name="Group 2054" transform="translate(32.762 256.633)">
        <path id="Path_895" data-name="Path 895" class="cls-16" d="M2277.834,1769.2a18.957,18.957,0,0,1,.325,2.171c-.078.051-9.774,1.782-9.719.022a8.494,8.494,0,0,1,.895-3.028Z" transform="translate(-2268.439 -1768.365)"/>
      </g>
      <g id="Group_2055" data-name="Group 2055" transform="translate(130.948 73.045)">
        <path id="Path_896" data-name="Path 896" class="cls-17" d="M2568.832,1208.453s10.17-2.141,10.931-1.7.808,1.017-.137,1.257-9.785,2.362-9.785,2.362,12.332-.45,13.04-.234c.414.126.57,1.23.073,1.407s-12.735,1.35-12.735,1.35,11.514-.4,12.043-.031a.856.856,0,0,1-.5,1.476c-.854.091-11.556,1.089-11.556,1.089s8.368.259,8.625.855c.157.365.335,1.309-1.818,1.172s-7.3.1-7.3.1Z" transform="translate(-2568.832 -1206.694)"/>
      </g>
      <g id="Group_2056" data-name="Group 2056" transform="translate(75.106 257.395)">
        <path id="Path_897" data-name="Path 897" class="cls-15" d="M2408.559,1771.533s4.25,4.744,8.564,5.737,7.332,2.262,7.365,4.984-12.416,4.516-17.353,1.771c-7.368-4.1-8.117-2.861-8.934-4.908s.981-7.522.928-8.173C2399.063,1770.14,2408.559,1771.533,2408.559,1771.533Z" transform="translate(-2397.987 -1770.695)"/>
      </g>
      <g id="Group_2057" data-name="Group 2057" transform="translate(76.241 254.627)">
        <path id="Path_898" data-name="Path 898" class="cls-16" d="M2410.418,1763.563a19.634,19.634,0,0,1,.478,2.27c-.083.047-9.722,1.195-9.43-.588.237-1.446.573-3.018.573-3.018Z" transform="translate(-2401.458 -1762.226)"/>
      </g>
      <g id="Group_2058" data-name="Group 2058" transform="translate(29.392 112.699)">
        <path id="Path_899" data-name="Path 899" class="cls-18" d="M2305.174,1338.237s3.506,34.036,5.329,45.689c2.131,13.623,2.854,24.88,3.448,31.931.748,8.869.892,52.5,1.416,55.089s-11.611.717-11.611.717-5.969-57-8.2-66.449c-2.073-8.795-9.769-46.66-11.661-44.258s-4.238,44.187-5.639,51.124-5.663,61.241-5.663,61.241-9.658,1.922-12.226-.251c0,0-1.169-46.8-.276-59.8.34-4.956-5.808-59.424,2.075-81.351C2266.335,1320.325,2305.174,1338.237,2305.174,1338.237Z" transform="translate(-2258.13 -1328.011)"/>
      </g>
      <g id="Group_2059" data-name="Group 2059" transform="translate(15.156 37.822)">
        <path id="Path_900" data-name="Path 900" class="cls-19" d="M2215.776,1188.868s5.911,1.794,8.385,1.34,1.224-30.821,1.322-37.14c.075-5.125,2.88-18.656,2.88-18.656a.111.111,0,0,0,0,.022.022.022,0,0,1,0,.015c0,.007,0,.015,0,.023.278,1.013,4.063,15.055,4.194,21.8.139,7-.912,33.787-.912,33.787l10.433,1.016,29.985.735,6.255-.737s-.747-11.454-1.025-16.894c-.173-3.458-.845-9.649-.672-15.679,0,0-.109-6.356.521-9.093.068-12.082.8-24.048.8-24.048q.608-8.217.848-15.378c-1.322-.7-2.91-1.517-4.183-2.121-3.935-1.874-9.417-4.4-12.937-6.011-2.061-.946-4.077-1.637-4.077-1.637s-14.063-1.348-15.205-1.277a35.849,35.849,0,0,0-4.423,1.513c-4.987,1.892-14.6,5.745-16.132,6.845-2.246,1.607-6.992,39.8-7.206,42.471C2214.251,1154.582,2215.776,1188.868,2215.776,1188.868Z" transform="translate(-2214.576 -1098.933)"/>
      </g>
      <path id="Path_901" data-name="Path 901" class="cls-20" d="M2327.358,1366.191s-20.581,1.752-38.6,0v5.914s27.07,3.908,39.508-1.128Z" transform="translate(-2249.351 -1241.013)"/>
      <g id="Group_2060" data-name="Group 2060" transform="translate(60.454 39.961)">
        <path id="Path_902" data-name="Path 902" class="cls-2" d="M2353.16,1105.475s3.348,7.864,5.86,25.439c.965,6.751,2.753,18.115,4.053,29.712v0c1.025,9.142,3.364,18.525,4.108,25.523.77,7.25,3.09,28.609,3.09,28.609l5.629-3.548c.8-.743,1.93-1.708,1.6-2.752-1.548-5-4.51-21.517-6.26-35.916,0-.011,0-.019,0-.03q-.124-1.042-.244-2.065c0-.034-.007-.072-.011-.109-.33-2.88-.6-5.639-.8-8.166a25.715,25.715,0,0,1,.252-5.681c.784-12.924,1.173-26.55,1.173-26.55.414-5.579.649-10.791.807-15.649a30.607,30.607,0,0,0-4.336-2.444S2355.513,1106.156,2353.16,1105.475Z" transform="translate(-2353.16 -1105.475)"/>
      </g>
      <path id="Path_903" data-name="Path 903" class="cls-19" d="M2324.506,1116.6s.375,5.381-4.178,5.506-8.167-4.246-8.167-4.246l7.557,1.949,4.6-3.9Z" transform="translate(-2265.108 -1072.542)"/>
      <g id="Group_2062" data-name="Group 2062" transform="translate(119.529 68.626)">
        <g id="Group_2061" data-name="Group 2061">
          <path id="Path_904" data-name="Path 904" class="cls-17" d="M2533.9,1203.7s3.316-.923,3.759-2.906a12.248,12.248,0,0,1,2.524-4.255c.676-.81,1.9-4.049,2.843-3.229s-1.777,5.426-2.169,6.5,4.2-.812,5.265-.484,3.205,8.257-.07,9.18-7.238-.311-7.79-.031a20.9,20.9,0,0,1-2.363.768Z" transform="translate(-2533.895 -1193.175)"/>
        </g>
      </g>
      <g id="Group_2063" data-name="Group 2063" transform="translate(40.59 2.722)">
        <path id="Path_905" data-name="Path 905" class="cls-21" d="M2305.049,991.664s10.441,1.761,8.671,18.107-10.988,14.9-11.605,14.88-9.271.2-9.727-19.788C2292.388,1004.863,2292.254,990.088,2305.049,991.664Z" transform="translate(-2292.388 -991.547)"/>
      </g>
      <g id="Group_2064" data-name="Group 2064" transform="translate(44.112 29.198)">
        <path id="Path_906" data-name="Path 906" class="cls-21" d="M2316.878,1074.437s0,6.734.275,8.191c.3,1.568-8.385,6.1-13.99.82,0,0,1.134-7.353.781-9.95S2316.878,1074.437,2316.878,1074.437Z" transform="translate(-2303.164 -1072.546)"/>
      </g>
      <g id="Group_2065" data-name="Group 2065" transform="translate(61.281 16.611)">
        <path id="Path_907" data-name="Path 907" class="cls-21" d="M2356.372,1034.567s1.159-1.211,1.565.032-1.469,6.5-1.71,7c0,0-.214.478-.487.21S2356.372,1034.567,2356.372,1034.567Z" transform="translate(-2355.69 -1034.039)"/>
      </g>
      <g id="Group_2066" data-name="Group 2066" transform="translate(39.065 15.318)">
        <path id="Path_908" data-name="Path 908" class="cls-21" d="M2289.368,1030.65s-1.108-1.257-1.565-.032,1.213,6.726,1.421,7.066c0,0,.359.564.642.308S2289.368,1030.65,2289.368,1030.65Z" transform="translate(-2287.723 -1030.081)"/>
      </g>
      <g id="Group_2067" data-name="Group 2067" transform="translate(39.858)">
        <path id="Path_909" data-name="Path 909" class="cls-22" d="M2313.093,998.156c-.36,2.237-.7,3.9-.7,3.9l-1.519,1.984a40.027,40.027,0,0,0-.142-5.077c-.088-.261-.192-.724-.3-1.225-.175-.827-.353-1.76-.476-2.071-.2-.5-8.949-3.053-16.746.536,0,0,.066.675.061,1.429,0,.876-.1,1.857-.5,2-.747.273-.435,5.135-.435,5.135l-1.215-1.4s-.352-2.54-.7-5.459c0,0,0-.007,0-.021-.078-.681-.158-1.381-.234-2.075-.174-2.937.116-8.267,3.94-11.4,2.58-1.1,6.7-2.043,13.568.059a8.1,8.1,0,0,1,2.154.913C2314.124,990.091,2313.093,998.156,2313.093,998.156Z" transform="translate(-2290.149 -983.218)"/>
      </g>
      <path id="Path_910" data-name="Path 910" class="cls-23" d="M2307.746,1086.143a6.65,6.65,0,0,0,5.538,2.227c3.873-.088,5.553-2.106,5.553-2.106s-1.833,3.833-5.571,3.793S2307.746,1086.143,2307.746,1086.143Z" transform="translate(-2262.137 -1052.501)"/>
      <path id="Path_911" data-name="Path 911" class="cls-24" d="M2339.177,1104.951l-3.9,2.881s3.273-6.937,3.34-9.715Z" transform="translate(-2280.671 -1060.561)"/>
      <path id="Path_912" data-name="Path 912" class="cls-25" d="M2345.5,1098.117l2.65,2.464,2.788,8.313-4.882-3.942Z" transform="translate(-2287.551 -1060.561)"/>
      <g id="Group_2068" data-name="Group 2068" transform="translate(69.777 47.469)">
        <path id="Path_913" data-name="Path 913" class="cls-2" d="M2435.821,1167.817s-22.994,6.052-28.615,4.67c-2.6-.639-6.021-4.225-9.273-8.442-1.072-1.388-2.123-2.846-3.124-4.288a.009.009,0,0,1,0-.006c-3.99-5.76-7.117-11.281-7.117-11.281s-11.794-13.82-2.33-19.98c0,0,3.989-.4,6.257,1.271,2.095,1.545,7.191,11.274,8.019,13.078s9.79,18.549,10.391,18.926,8.285-1,12.344-1.334a64.8,64.8,0,0,0,12.121-2.235Z" transform="translate(-2381.682 -1128.446)"/>
      </g>
      <path id="Path_914" data-name="Path 914" class="cls-21" d="M2326.8,1105.7a45.917,45.917,0,0,1-2.839,7.236s-4.089-3.582-5.375-4.858S2326.8,1105.7,2326.8,1105.7Z" transform="translate(-2269.354 -1065.666)"/>
      <path id="Path_915" data-name="Path 915" class="cls-24" d="M2318.643,1115.592l4.277,4s-5.057-.336-6-1.178Z" transform="translate(-2268.311 -1072.324)"/>
      <path id="Path_916" data-name="Path 916" class="cls-25" d="M2296.169,1093.023s3.422,5.562,5.675,7.377l-3.8,6.3-6.086-11.053Z" transform="translate(-2251.512 -1057.132)"/>
      <g id="Group_2069" data-name="Group 2069" transform="translate(13.64 38.515)">
        <path id="Path_917" data-name="Path 917" class="cls-2" d="M2222.79,1154.782c-.436,5.864,2.045,38.312-.431,38.768s-11.575-1.545-11.575-1.545-1.141-34.991-.775-38.659c.267-2.67,4.518-42.716,6.762-44.324,1.3-.93,10.9-4.334,15.615-6.192.861-.341,3.59-1.486,4.362-1.779,1,1.113,9.709,21.548,10.538,37.487.252,4.853-.885,15.1-1.75,23.466-.923,8.928-1.945,15.9-2.694,23.364-1.476,14.712-2.508,26.417-2.508,26.417l-14.644-6.519c-2.369-1.186-5.65-6.049-4.76-8.544,3.386-9.48,7.648-25.677,7.653-34,0,0-1.633-20.37-2.928-24.848A125.534,125.534,0,0,0,2222.79,1154.782Z" transform="translate(-2209.936 -1101.051)"/>
      </g>
      <rect id="Rectangle_109" data-name="Rectangle 109" class="cls-26" width="9.7" height="7.211" transform="translate(53.658 125.541)"/>
      <g id="Group_2070" data-name="Group 2070" transform="translate(0 142.369)">
        <path id="Path_918" data-name="Path 918" class="cls-27" d="M2200.12,1440.034h-31.913l7.488-21.249h31.914Z" transform="translate(-2168.207 -1418.785)"/>
        <path id="Path_919" data-name="Path 919" class="cls-7" d="M2200.12,1440.034h-31.913l7.488-21.249h31.914Z" transform="translate(-2168.207 -1418.785)"/>
        <path id="Path_920" data-name="Path 920" class="cls-28" d="M2175.7,1505.044h31.914l-7.489-21.249h-31.913Z" transform="translate(-2168.207 -1462.545)"/>
        <path id="Path_921" data-name="Path 921" class="cls-7" d="M2200.12,1570.053h-31.913l7.488-21.249h31.914Z" transform="translate(-2168.207 -1506.306)"/>
        <path id="Path_922" data-name="Path 922" class="cls-28" d="M2175.7,1635.063h31.914l-7.489-21.249h-31.913Z" transform="translate(-2168.207 -1550.067)"/>
        <path id="Path_923" data-name="Path 923" class="cls-29" d="M2215.041,1430.43h-18.2l.256-.787h18.2Z" transform="translate(-2187.481 -1426.094)"/>
        <path id="Path_924" data-name="Path 924" class="cls-29" d="M2211.73,1439.157h-18.2l.256-.787h18.2Z" transform="translate(-2185.252 -1431.969)"/>
        <path id="Path_925" data-name="Path 925" class="cls-29" d="M2204.642,1447.885h-14.725l.256-.787H2204.9Z" transform="translate(-2182.821 -1437.843)"/>
        <path id="Path_926" data-name="Path 926" class="cls-29" d="M2215.041,1559.99h-18.2l.256-.787h18.2Z" transform="translate(-2187.481 -1513.306)"/>
        <path id="Path_927" data-name="Path 927" class="cls-29" d="M2202.63,1568.718h-9.1l.256-.787h9.1Z" transform="translate(-2185.252 -1519.181)"/>
      </g>
      <path id="Path_928" data-name="Path 928" class="cls-17" d="M2224.048,1378.6s.171.543.471,1.452c.517,1.571,2.186,3.364,1.158,5.508s-8.75.8-9.925-.2-.69-4.282,2.007-8.493S2224.048,1378.6,2224.048,1378.6Z" transform="translate(-2199.807 -1247.184)"/>
      <path id="Path_929" data-name="Path 929" class="cls-17" d="M2224.677,1396.679a68.538,68.538,0,0,1-.644,7.46c-.5,3.443-1.6,7.648-2.469,7.533-1.318-.175-.021-3.519.243-6.965.243-3.174-.343-2.588-.343-2.588s.176-.157-.769,3.25c-1.016,3.663-2.26,7.556-2.973,7.476-.884-.1-.985-.187-.836-1.577-.259.781-.512.821-.851.744-1.756-.4-1.112-6.011-.855-8.241-.208,1.711-.546,2.945-1.464,2.009-1.049-1.072.224-8.97.406-11.842C2214.32,1390.806,2224.677,1396.679,2224.677,1396.679Z" transform="translate(-2198.565 -1259.072)"/>
      <g id="Group_2071" data-name="Group 2071" transform="translate(13.995 95.224)">
        <path id="Path_930" data-name="Path 930" class="cls-2" d="M2223.908,1287.972l-.15,25.787a44.885,44.885,0,0,1-12.242-2.848l-.492-36.364Z" transform="translate(-2211.024 -1274.547)"/>
      </g>
    </g>
  </g>
  <path id="Path_931" data-name="Path 931" class="cls-3" d="M2762.889,1052.674a7.357,7.357,0,1,1-7.357-7.356A7.357,7.357,0,0,1,2762.889,1052.674Z" transform="translate(-2555.044 -809.078)"/>
  <path id="Path_932" data-name="Path 932" class="cls-2" d="M2858.167,506.226a7.357,7.357,0,1,1-7.357-7.356A7.356,7.356,0,0,1,2858.167,506.226Z" transform="translate(-2619.18 -441.242)"/>
  <g id="Group_2074" data-name="Group 2074" transform="translate(98.863 50.529)">
    <path id="Path_933" data-name="Path 933" class="cls-30" d="M2560.016,668.58l-1.849-1.849.231-.231,1.849,1.849Zm-3.7-3.7-1.849-1.849.231-.231,1.849,1.849Zm-3.7-3.7-1.849-1.849.231-.231,1.849,1.849Zm-3.7-3.7-1.85-1.849.231-.231,1.85,1.849Zm-3.7-3.7-1.849-1.849.231-.231,1.849,1.849Zm-3.7-3.7-1.849-1.849.231-.231,1.849,1.849Zm-3.7-3.7-1.849-1.849.231-.231,1.849,1.849Zm-3.7-3.7-1.258-1.258v-.971h.327v.836l1.162,1.162Zm-.931-4.844h-.327v-2.615h.327Zm0-5.23h-.327v-2.615h.327Zm0-5.23h-.327v-2.615h.327Zm0-5.23h-.327v-2.615h.327Zm0-5.23h-.327v-2.615h.327Zm0-5.23h-.327v-2.615h.327Zm0-5.23h-.327v-2.615h.327Zm0-5.23h-.327v-2.615h.327Zm0-5.23h-.327V593.4h.327Zm0-5.23h-.327v-2.615h.327Zm0-5.23h-.327v-2.615h.327Zm0-5.23h-.327v-2.615h.327Zm0-5.23h-.327v-2.615h.327Zm0-5.23h-.327V567.25h.327Zm0-5.23h-.327V562.02h.327Zm0-5.23h-.327V556.79h.327Zm0-5.23h-.327V551.56h.327Zm-1.308-4.688-1.849-1.849.231-.231,1.849,1.849Zm-3.7-3.7-1.849-1.849.231-.231,1.849,1.849Zm-3.7-3.7-1.849-1.849.231-.231,1.849,1.849Zm-3.7-3.7-1.849-1.849.231-.231,1.849,1.849Zm-3.7-3.7-1.849-1.849.231-.231,1.85,1.849Zm-3.7-3.7-1.849-1.849.231-.231,1.849,1.849Zm-3.7-3.7-1.85-1.849.231-.231,1.849,1.849Zm-3.7-3.7-1.849-1.849.231-.231,1.849,1.849Zm-3.7-3.7-1.849-1.849.231-.231,1.85,1.849Zm-3.7-3.7-1.849-1.849.231-.231,1.849,1.849Zm-3.7-3.7-1.85-1.849.231-.231,1.849,1.849Zm-3.7-3.7-1.849-1.849.231-.231,1.849,1.849Zm-3.7-3.7-1.849-1.849.231-.231,1.849,1.849Zm-3.7-3.7-1.849-1.849.231-.231,1.849,1.849Zm-3.7-3.7-1.849-1.849.231-.231,1.849,1.849Zm-3.7-3.7-1.85-1.849.231-.231,1.849,1.849Zm-3.7-3.7-1.85-1.849.231-.231,1.849,1.849Zm-3.7-3.7-1.85-1.849.231-.231,1.849,1.849Zm-3.7-3.7-1.849-1.849.231-.231,1.849,1.849Zm-3.7-3.7-1.849-1.849.231-.231,1.849,1.849Z" transform="translate(-2459.772 -477.151)"/>
  </g>
  <g id="Group_2075" data-name="Group 2075" transform="translate(327.349 119.019)">
    <path id="Path_934" data-name="Path 934" class="cls-31" d="M3183.371,735.819a24.564,24.564,0,1,1,24.568-24.564A24.593,24.593,0,0,1,3183.371,735.819Zm0-47.721a23.157,23.157,0,1,0,23.16,23.157A23.185,23.185,0,0,0,3183.371,688.1Z" transform="translate(-3158.803 -686.691)"/>
  </g>
  <path id="Path_1083" data-name="Path 1083" class="cls-2" d="M0,0H337.692V19.69H0Z" transform="translate(155.829 0.497)"/>
  <path id="Rectangle_111" data-name="Rectangle 111" class="cls-7" d="M2,0H40.821a2,2,0,0,1,2,2V2a2,2,0,0,1-2,2H2A2,2,0,0,1,0,2V2A2,2,0,0,1,2,0Z" transform="translate(170.436 8.246)"/>
  <g id="Group_2076" data-name="Group 2076" transform="translate(102.238 16.087)">
    <path id="Path_935" data-name="Path 935" class="cls-30" d="M2596.4,417.115l-.566-.566.231-.231.566.566Zm-2.415-2.415-1.849-1.849.231-.231,1.849,1.849Zm-3.7-3.7-1.849-1.849.231-.231,1.849,1.849Zm-3.7-3.7-1.849-1.849.231-.231,1.849,1.849Zm-3.7-3.7-1.849-1.849.231-.231,1.849,1.849Zm-49.7-.146-.231-.231,1.849-1.849.231.231Zm-62.87-.383-.231-.231,1.849-1.849.231.231Zm60.79-.895-1.849-1.849.231-.231,1.849,1.849Zm48.078-2.274-1.849-1.849.231-.231,1.849,1.849Zm-42.3-.147-.231-.231,1.849-1.849.231.231Zm-62.871-.383-.231-.231,1.849-1.849.231.231Zm53.394-.895-1.849-1.849.231-.231,1.849,1.849Zm48.078-2.274-1.849-1.849.231-.231,1.849,1.849Zm-34.9-.146-.231-.232,1.849-1.849.231.231Zm-62.871-.383-.231-.231,1.849-1.849.231.231Zm46-.895-1.849-1.849.231-.231,1.849,1.849Zm48.078-2.274-1.849-1.849.231-.231,1.849,1.849Zm-27.506-.146-.231-.231,1.849-1.849.231.231Zm-62.871-.383-.231-.231,1.849-1.849.231.231Zm38.6-.895-1.849-1.849.231-.231,1.849,1.849Zm48.078-2.274-1.849-1.849.231-.231,1.849,1.849Zm-20.11-.146-.231-.231,1.849-1.849.231.231Zm-62.871-.383-.232-.231,1.85-1.849.231.231Zm31.2-.895-1.849-1.849.231-.231,1.849,1.849Zm48.078-2.274-1.849-1.849.231-.231,1.849,1.849Zm-12.713-.146-.231-.231,1.849-1.849.231.231Zm-62.871-.383-.231-.231,1.849-1.849.231.231Zm23.808-.895-1.849-1.849.231-.231,1.849,1.849Zm48.078-2.274-1.85-1.849.232-.231,1.849,1.849Zm-5.316-.146-.231-.231,1.849-1.849.231.231Zm-62.871-.383-.231-.231,1.849-1.849.231.231Zm16.411-.895-1.849-1.849.231-.231,1.849,1.849Zm-12.713-2.8-.231-.231,1.849-1.849.231.231Zm9.014-.895-1.849-1.849.231-.231,1.849,1.849Zm-5.317-2.8-.231-.231,1.488-1.487.593.593-.231.231-.362-.362Z" transform="translate(-2470.095 -371.778)"/>
  </g>
  <g id="Group_2077" data-name="Group 2077" transform="translate(417.012 62.308)">
    <path id="Path_936" data-name="Path 936" class="cls-4" d="M3487.483,637.86h-.327V513.513H3433.12v-.327h54.363Z" transform="translate(-3433.12 -513.187)"/>
  </g>
  <g id="Group_2080" data-name="Group 2080" transform="translate(289.414 228.3)">
    <g id="Group_2079" data-name="Group 2079" transform="translate(0)">
      <g id="Group_2078" data-name="Group 2078">
        <path id="Path_937" data-name="Path 937" class="cls-13" d="M3042.921,1021.027l52.74.243-.176,38.22-.037,8.051-8.014-8.088-44.688-.206Z" transform="translate(-3042.745 -1021.027)"/>
      </g>
    </g>
  </g>
</svg>
