<svg id="Group_257" data-name="Group 257" xmlns="http://www.w3.org/2000/svg" width="631.494" height="414.661" viewBox="0 0 631.494 414.661">
  <defs>
    <style>
      .cls-1 {
        fill: #fafafa;
      }

      .cls-2 {
        fill: #263238;
      }

      .cls-3 {
        fill: #191919;
      }

      .cls-4 {
        fill: #001164;
      }

      .cls-5 {
        fill: #6476cd;
      }

      .cls-6 {
        opacity: 0.6;
      }

      .cls-7 {
        fill: #ffdd2d;
      }

      .cls-8 {
        fill: #e8505b;
      }

      .cls-9 {
        fill: #ffa357;
      }
    </style>
  </defs>
  <g id="Group_108" data-name="Group 108">
    <g id="Group_104" data-name="Group 104" transform="translate(0.613 0.614)">
      <g id="Group_103" data-name="Group 103">
        <rect id="Rectangle_16" data-name="Rectangle 16" class="cls-1" width="630.392" height="413.484"/>
      </g>
    </g>
    <g id="Group_107" data-name="Group 107">
      <g id="Group_106" data-name="Group 106">
        <g id="Group_105" data-name="Group 105">
          <path id="Path_97" data-name="Path 97" class="cls-2" d="M1235.923-142.714c0-3.981-.189-161.3-.488-413.485l.488.488-630.341.127h-.049l.613-.615c-.017,147.047-.033,286.984-.049,413.485l-.564-.564c370.916.33,625.339.559,630.391.564l-630.391.564h-.564v-.564c-.017-126.5-.033-266.438-.049-413.485v-.613h.663c237.966.047,457.348.092,630.341.125h.49l0,.488C1236.114-304.009,1235.927-146.692,1235.923-142.714Z" transform="translate(-604.919 556.812)"/>
        </g>
      </g>
    </g>
  </g>
  <g id="Group_133" data-name="Group 133" transform="translate(47.438 159.139)">
    <g id="Group_120" data-name="Group 120" transform="translate(145.467 69.812)">
      <g id="Group_110" data-name="Group 110">
        <g id="Group_109" data-name="Group 109">
          <path id="Path_98" data-name="Path 98" class="cls-3" d="M687.089-459.721l62,.854c-.474,33.042-28.316,59.974-62,59.974-.123,0-.243,0-.365,0Z" transform="translate(-686.724 459.721)"/>
        </g>
      </g>
      <g id="Group_113" data-name="Group 113" transform="translate(21.85 36.723)">
        <g id="Group_112" data-name="Group 112">
          <g id="Group_111" data-name="Group 111">
            <path id="Path_99" data-name="Path 99" class="cls-2" d="M777.029-396.917a6.314,6.314,0,0,1-1.328.106l-3.79.1-13.854.16-.174,0-.113-.142c-5.532-6.971-12.67-15.962-20.454-25.772-6.046-7.709-11.7-14.917-16.49-21.025l.321.156c-7.466-.071-13.717-.127-18.249-.17l-5.1-.113a9.961,9.961,0,0,1-1.8-.125,9.979,9.979,0,0,1,1.8-.125l5.1-.111c4.532-.042,10.784-.1,18.249-.17l.2,0,.123.156c4.82,6.084,10.51,13.262,16.6,20.942,7.72,9.859,14.8,18.9,20.285,25.906l-.288-.139,13.854.16c1.554.04,2.811.073,3.79.1A6.164,6.164,0,0,1,777.029-396.917Z" transform="translate(-695.99 444.148)"/>
          </g>
        </g>
      </g>
      <g id="Group_116" data-name="Group 116" transform="translate(85.007 90.627)">
        <g id="Group_115" data-name="Group 115">
          <g id="Group_114" data-name="Group 114">
            <path id="Path_100" data-name="Path 100" class="cls-2" d="M762.9-420.815c0,.264-8.982.476-20.06.476s-20.063-.212-20.063-.476,8.98-.474,20.063-.474S762.9-421.077,762.9-420.815Z" transform="translate(-722.773 421.289)"/>
          </g>
        </g>
      </g>
      <g id="Group_119" data-name="Group 119" transform="translate(85.007 98.055)">
        <g id="Group_118" data-name="Group 118">
          <g id="Group_117" data-name="Group 117">
            <path id="Path_101" data-name="Path 101" class="cls-2" d="M762.9-417.663c0,.262-8.982.474-20.06.474s-20.063-.212-20.063-.474,8.98-.476,20.063-.476S762.9-417.924,762.9-417.663Z" transform="translate(-722.773 418.139)"/>
          </g>
        </g>
      </g>
    </g>
    <g id="Group_132" data-name="Group 132">
      <g id="Group_122" data-name="Group 122" transform="translate(74.014 0.158)">
        <g id="Group_121" data-name="Group 121">
          <path id="Path_102" data-name="Path 102" class="cls-4" d="M718.434-428.429l-.872,60.82c-33.686-.465-61.139-27.774-61.139-60.82,0-33.37,27.993-60.83,62.011-60.83s62.009,27.46,62.009,60.83Z" transform="translate(-656.423 489.259)"/>
        </g>
      </g>
      <g id="Group_125" data-name="Group 125" transform="translate(55.826 3.15)">
        <g id="Group_124" data-name="Group 124">
          <g id="Group_123" data-name="Group 123">
            <path id="Path_103" data-name="Path 103" class="cls-2" d="M704.7-450.046a4.029,4.029,0,0,1-1.075.252l-3.084.493c-2.846.4-6.631.929-11.14,1.563l-.184.026-.137-.134c-4.24-4.124-9.347-9.093-14.856-14.455-7.138-7-13.561-13.375-18.176-18.023-2.2-2.247-4.03-4.11-5.433-5.539a16.482,16.482,0,0,1-1.9-2.125,16.157,16.157,0,0,1,2.16,1.861c1.457,1.372,3.356,3.165,5.643,5.325,4.737,4.525,11.234,10.824,18.372,17.825L689.623-448.4l-.32-.109,11.18-1.231c1.233-.113,2.262-.208,3.11-.283A4.02,4.02,0,0,1,704.7-450.046Z" transform="translate(-648.71 487.99)"/>
          </g>
        </g>
      </g>
      <g id="Group_128" data-name="Group 128">
        <g id="Group_127" data-name="Group 127">
          <g id="Group_126" data-name="Group 126">
            <path id="Path_104" data-name="Path 104" class="cls-2" d="M665.159-488.85c0,.262-8.982.474-20.06.474s-20.063-.212-20.063-.474,8.98-.476,20.063-.476S665.159-489.114,665.159-488.85Z" transform="translate(-625.036 489.326)"/>
          </g>
        </g>
      </g>
      <g id="Group_131" data-name="Group 131" transform="translate(0 7.43)">
        <g id="Group_130" data-name="Group 130">
          <g id="Group_129" data-name="Group 129">
            <path id="Path_105" data-name="Path 105" class="cls-2" d="M665.159-485.7c0,.262-8.982.476-20.06.476s-20.063-.215-20.063-.476,8.98-.474,20.063-.474S665.159-485.963,665.159-485.7Z" transform="translate(-625.036 486.175)"/>
          </g>
        </g>
      </g>
    </g>
  </g>
  <g id="Group_161" data-name="Group 161" transform="translate(353.64 62.162)">
    <g id="Group_145" data-name="Group 145">
      <g id="Group_142" data-name="Group 142">
        <g id="Group_135" data-name="Group 135">
          <g id="Group_134" data-name="Group 134">
            <path id="Path_106" data-name="Path 106" class="cls-5" d="M801.637-492.655l-.248-37.8a48.22,48.22,0,0,0-31.181,12.156,44.7,44.7,0,0,0-15.028,39.147,53.742,53.742,0,0,0,.882,5.492c.009.045.016.087.026.132l0,0,45.544-10.246Z" transform="translate(-754.886 530.451)"/>
          </g>
        </g>
        <g id="Group_139" data-name="Group 139" class="cls-6" transform="translate(51.58 0.144)">
          <g id="Group_138" data-name="Group 138">
            <path id="Path_108" data-name="Path 108" class="cls-4" d="M818.869-504.373a44.829,44.829,0,0,0-36.758-25.734c-.476-.047-.957-.092-1.443-.127-.307-.021-.608-.052-.917-.068q-1.351-.074-2.743-.08c-.042,0-.082,0-.125,0h-.007l-.116,0v.007l.248,37.8.057,8.881,45.556,9.939.057.014h0a44.855,44.855,0,0,0,1.011-9.8A49.022,49.022,0,0,0,818.869-504.373Z" transform="translate(-776.76 530.39)"/>
          </g>
        </g>
      </g>
      <g id="Group_144" data-name="Group 144" transform="translate(3.647 51.397)">
        <g id="Group_143" data-name="Group 143">
          <path id="Path_110" data-name="Path 110" class="cls-4" d="M801.978-508.655l-45.545,10.248a46.7,46.7,0,0,0,45.545,36.438,46.694,46.694,0,0,0,45.613-36.746l-45.557-9.939" transform="translate(-756.433 508.655)"/>
        </g>
      </g>
    </g>
    <g id="Group_148" data-name="Group 148" transform="translate(121.291 43.979)">
      <g id="Group_147" data-name="Group 147">
        <g id="Group_146" data-name="Group 146">
          <path id="Path_111" data-name="Path 111" class="cls-2" d="M911.5-511.188c0,.339-23.548.615-52.588.615s-52.593-.276-52.593-.615,23.543-.613,52.593-.613S911.5-511.528,911.5-511.188Z" transform="translate(-806.322 511.801)"/>
        </g>
      </g>
    </g>
    <g id="Group_151" data-name="Group 151" transform="translate(121.291 31.99)">
      <g id="Group_150" data-name="Group 150">
        <g id="Group_149" data-name="Group 149">
          <path id="Path_112" data-name="Path 112" class="cls-2" d="M911.5-516.272c0,.34-23.548.613-52.588.613s-52.593-.274-52.593-.613,23.543-.613,52.593-.613S911.5-516.611,911.5-516.272Z" transform="translate(-806.322 516.885)"/>
        </g>
      </g>
    </g>
    <g id="Group_154" data-name="Group 154" transform="translate(121.291 19.999)">
      <g id="Group_153" data-name="Group 153">
        <g id="Group_152" data-name="Group 152">
          <path id="Path_113" data-name="Path 113" class="cls-2" d="M911.5-521.355c0,.337-23.548.613-52.588.613s-52.593-.276-52.593-.613,23.543-.615,52.593-.615S911.5-521.694,911.5-521.355Z" transform="translate(-806.322 521.97)"/>
        </g>
      </g>
    </g>
    <g id="Group_157" data-name="Group 157" transform="translate(121.291 55.133)">
      <g id="Group_156" data-name="Group 156">
        <g id="Group_155" data-name="Group 155">
          <path id="Path_114" data-name="Path 114" class="cls-2" d="M911.5-506.458c0,.34-23.548.613-52.588.613s-52.593-.273-52.593-.613,23.543-.613,52.593-.613S911.5-506.8,911.5-506.458Z" transform="translate(-806.322 507.071)"/>
        </g>
      </g>
    </g>
    <g id="Group_160" data-name="Group 160" transform="translate(121.663 67.272)">
      <g id="Group_159" data-name="Group 159">
        <g id="Group_158" data-name="Group 158">
          <path id="Path_115" data-name="Path 115" class="cls-2" d="M878.721-501.31c0,.339-16.174.613-36.119.613s-36.122-.274-36.122-.613,16.17-.613,36.122-.613S878.721-501.649,878.721-501.31Z" transform="translate(-806.48 501.923)"/>
        </g>
      </g>
    </g>
  </g>
  <g id="Group_248" data-name="Group 248" transform="translate(359.498 216.831)">
    <g id="Group_164" data-name="Group 164" transform="translate(5.129)">
      <g id="Group_163" data-name="Group 163">
        <g id="Group_162" data-name="Group 162">
          <rect id="Rectangle_17" data-name="Rectangle 17" class="cls-7" width="10.834" height="120.991"/>
        </g>
      </g>
    </g>
    <g id="Group_167" data-name="Group 167" transform="translate(26.045 41.093)">
      <g id="Group_166" data-name="Group 166">
        <g id="Group_165" data-name="Group 165">
          <rect id="Rectangle_18" data-name="Rectangle 18" class="cls-8" width="10.834" height="79.898"/>
        </g>
      </g>
    </g>
    <g id="Group_170" data-name="Group 170" transform="translate(46.96 15.039)">
      <g id="Group_169" data-name="Group 169">
        <g id="Group_168" data-name="Group 168">
          <rect id="Rectangle_19" data-name="Rectangle 19" class="cls-9" width="10.834" height="106.568"/>
        </g>
      </g>
    </g>
    <g id="Group_173" data-name="Group 173" transform="translate(67.876 4.672)">
      <g id="Group_172" data-name="Group 172">
        <g id="Group_171" data-name="Group 171">
          <rect id="Rectangle_20" data-name="Rectangle 20" class="cls-7" width="10.834" height="116.319"/>
        </g>
      </g>
    </g>
    <g id="Group_176" data-name="Group 176" transform="translate(88.791 43.553)">
      <g id="Group_175" data-name="Group 175">
        <g id="Group_174" data-name="Group 174">
          <rect id="Rectangle_21" data-name="Rectangle 21" class="cls-9" width="10.834" height="77.439"/>
        </g>
      </g>
    </g>
    <g id="Group_179" data-name="Group 179" transform="translate(109.707 58.74)">
      <g id="Group_178" data-name="Group 178">
        <g id="Group_177" data-name="Group 177">
          <rect id="Rectangle_22" data-name="Rectangle 22" class="cls-7" width="10.834" height="62.252"/>
        </g>
      </g>
    </g>
    <g id="Group_182" data-name="Group 182" transform="translate(130.622 12.418)">
      <g id="Group_181" data-name="Group 181">
        <g id="Group_180" data-name="Group 180">
          <rect id="Rectangle_23" data-name="Rectangle 23" class="cls-7" width="10.834" height="108.573"/>
        </g>
      </g>
    </g>
    <g id="Group_185" data-name="Group 185" transform="translate(151.538 31.993)">
      <g id="Group_184" data-name="Group 184">
        <g id="Group_183" data-name="Group 183">
          <rect id="Rectangle_24" data-name="Rectangle 24" class="cls-8" width="10.834" height="88.999"/>
        </g>
      </g>
    </g>
    <g id="Group_188" data-name="Group 188" transform="translate(172.453 16.351)">
      <g id="Group_187" data-name="Group 187">
        <g id="Group_186" data-name="Group 186">
          <rect id="Rectangle_25" data-name="Rectangle 25" class="cls-7" width="10.834" height="104.64"/>
        </g>
      </g>
    </g>
    <g id="Group_191" data-name="Group 191" transform="translate(193.369 49.702)">
      <g id="Group_190" data-name="Group 190">
        <g id="Group_189" data-name="Group 189">
          <rect id="Rectangle_26" data-name="Rectangle 26" class="cls-8" width="10.834" height="71.29"/>
        </g>
      </g>
    </g>
    <g id="Group_194" data-name="Group 194" transform="translate(214.284 36.136)">
      <g id="Group_193" data-name="Group 193">
        <g id="Group_192" data-name="Group 192">
          <rect id="Rectangle_27" data-name="Rectangle 27" class="cls-7" width="10.834" height="84.855"/>
        </g>
      </g>
    </g>
    <g id="Group_198" data-name="Group 198" transform="translate(0 128.974)">
      <g id="Group_197" data-name="Group 197">
        <g id="Group_196" data-name="Group 196">
          <g id="Group_195" data-name="Group 195">
            <path id="Path_116" data-name="Path 116" class="cls-2" d="M986.912-409.724c0,.248-51.388.446-114.765.446-63.4,0-114.776-.2-114.776-.446s51.376-.443,114.776-.443C935.524-410.167,986.912-409.969,986.912-409.724Z" transform="translate(-757.371 410.167)"/>
          </g>
        </g>
      </g>
    </g>
    <g id="Group_202" data-name="Group 202" transform="translate(4.504 138.496)">
      <g id="Group_201" data-name="Group 201">
        <g id="Group_200" data-name="Group 200">
          <g id="Group_199" data-name="Group 199">
            <path id="Path_117" data-name="Path 117" class="cls-2" d="M775.359-405.683c0,.245-3.6.446-8.039.446s-8.039-.2-8.039-.446,3.6-.446,8.039-.446S775.359-405.929,775.359-405.683Z" transform="translate(-759.281 406.129)"/>
          </g>
        </g>
      </g>
    </g>
    <g id="Group_206" data-name="Group 206" transform="translate(28.033 138.982)">
      <g id="Group_205" data-name="Group 205">
        <g id="Group_204" data-name="Group 204">
          <g id="Group_203" data-name="Group 203">
            <path id="Path_118" data-name="Path 118" class="cls-2" d="M788.478-405.477c0,.245-4.3.443-9.609.443s-9.609-.2-9.609-.443,4.3-.446,9.609-.446S788.478-405.725,788.478-405.477Z" transform="translate(-769.259 405.923)"/>
          </g>
        </g>
      </g>
    </g>
    <g id="Group_210" data-name="Group 210" transform="translate(50.782 138.982)">
      <g id="Group_209" data-name="Group 209">
        <g id="Group_208" data-name="Group 208">
          <g id="Group_207" data-name="Group 207">
            <path id="Path_119" data-name="Path 119" class="cls-2" d="M798.122-405.477c0,.245-4.3.443-9.609.443s-9.607-.2-9.607-.443,4.3-.446,9.607-.446S798.122-405.725,798.122-405.477Z" transform="translate(-778.906 405.923)"/>
          </g>
        </g>
      </g>
    </g>
    <g id="Group_214" data-name="Group 214" transform="translate(73.528 138.982)">
      <g id="Group_213" data-name="Group 213">
        <g id="Group_212" data-name="Group 212">
          <g id="Group_211" data-name="Group 211">
            <path id="Path_120" data-name="Path 120" class="cls-2" d="M807.768-405.477c0,.245-4.3.443-9.607.443s-9.609-.2-9.609-.443,4.3-.446,9.609-.446S807.768-405.725,807.768-405.477Z" transform="translate(-788.552 405.923)"/>
          </g>
        </g>
      </g>
    </g>
    <g id="Group_218" data-name="Group 218" transform="translate(96.275 138.982)">
      <g id="Group_217" data-name="Group 217">
        <g id="Group_216" data-name="Group 216">
          <g id="Group_215" data-name="Group 215">
            <path id="Path_121" data-name="Path 121" class="cls-2" d="M817.414-405.477c0,.245-4.3.443-9.607.443s-9.609-.2-9.609-.443,4.3-.446,9.609-.446S817.414-405.725,817.414-405.477Z" transform="translate(-798.198 405.923)"/>
          </g>
        </g>
      </g>
    </g>
    <g id="Group_222" data-name="Group 222" transform="translate(119.021 138.982)">
      <g id="Group_221" data-name="Group 221">
        <g id="Group_220" data-name="Group 220">
          <g id="Group_219" data-name="Group 219">
            <path id="Path_122" data-name="Path 122" class="cls-2" d="M827.06-405.477c0,.245-4.3.443-9.607.443s-9.609-.2-9.609-.443,4.3-.446,9.609-.446S827.06-405.725,827.06-405.477Z" transform="translate(-807.844 405.923)"/>
          </g>
        </g>
      </g>
    </g>
    <g id="Group_226" data-name="Group 226" transform="translate(141.767 138.982)">
      <g id="Group_225" data-name="Group 225">
        <g id="Group_224" data-name="Group 224">
          <g id="Group_223" data-name="Group 223">
            <path id="Path_123" data-name="Path 123" class="cls-2" d="M836.706-405.477c0,.245-4.3.443-9.607.443s-9.609-.2-9.609-.443,4.3-.446,9.609-.446S836.706-405.725,836.706-405.477Z" transform="translate(-817.49 405.923)"/>
          </g>
        </g>
      </g>
    </g>
    <g id="Group_230" data-name="Group 230" transform="translate(164.513 138.982)">
      <g id="Group_229" data-name="Group 229">
        <g id="Group_228" data-name="Group 228">
          <g id="Group_227" data-name="Group 227">
            <path id="Path_124" data-name="Path 124" class="cls-2" d="M846.355-405.477c0,.245-4.3.443-9.609.443s-9.609-.2-9.609-.443,4.3-.446,9.609-.446S846.355-405.725,846.355-405.477Z" transform="translate(-827.136 405.923)"/>
          </g>
        </g>
      </g>
    </g>
    <g id="Group_234" data-name="Group 234" transform="translate(187.26 138.982)">
      <g id="Group_233" data-name="Group 233">
        <g id="Group_232" data-name="Group 232">
          <g id="Group_231" data-name="Group 231">
            <path id="Path_125" data-name="Path 125" class="cls-2" d="M856-405.477c0,.245-4.3.443-9.609.443s-9.609-.2-9.609-.443,4.3-.446,9.609-.446S856-405.725,856-405.477Z" transform="translate(-836.782 405.923)"/>
          </g>
        </g>
      </g>
    </g>
    <g id="Group_238" data-name="Group 238" transform="translate(210.008 138.982)">
      <g id="Group_237" data-name="Group 237">
        <g id="Group_236" data-name="Group 236">
          <g id="Group_235" data-name="Group 235">
            <path id="Path_126" data-name="Path 126" class="cls-2" d="M865.645-405.477c0,.245-4.3.443-9.609.443s-9.607-.2-9.607-.443,4.3-.446,9.607-.446S865.645-405.725,865.645-405.477Z" transform="translate(-846.429 405.923)"/>
          </g>
        </g>
      </g>
    </g>
    <g id="Group_241" data-name="Group 241" transform="translate(26.045 41.093)">
      <g id="Group_240" data-name="Group 240">
        <g id="Group_239" data-name="Group 239">
          <rect id="Rectangle_28" data-name="Rectangle 28" class="cls-9" width="10.834" height="79.898"/>
        </g>
      </g>
    </g>
    <g id="Group_244" data-name="Group 244" transform="translate(151.538 31.993)">
      <g id="Group_243" data-name="Group 243">
        <g id="Group_242" data-name="Group 242">
          <rect id="Rectangle_29" data-name="Rectangle 29" class="cls-9" width="10.834" height="88.999"/>
        </g>
      </g>
    </g>
    <g id="Group_247" data-name="Group 247" transform="translate(193.369 49.702)">
      <g id="Group_246" data-name="Group 246">
        <g id="Group_245" data-name="Group 245">
          <rect id="Rectangle_30" data-name="Rectangle 30" class="cls-9" width="10.834" height="71.29"/>
        </g>
      </g>
    </g>
  </g>
  <g id="Group_250" data-name="Group 250" transform="translate(56.347 67.904)">
    <g id="Group_249" data-name="Group 249">
      <path id="Path_127" data-name="Path 127" class="cls-4" d="M649.669-517.588a10.427,10.427,0,0,1-10.428,10.427,10.428,10.428,0,0,1-10.428-10.427,10.427,10.427,0,0,1,10.428-10.428A10.425,10.425,0,0,1,649.669-517.588Z" transform="translate(-628.814 528.016)"/>
    </g>
  </g>
  <g id="Group_253" data-name="Group 253" transform="translate(99.432 69.491)">
    <g id="Group_252" data-name="Group 252">
      <g id="Group_251" data-name="Group 251">
        <path id="Path_128" data-name="Path 128" class="cls-4" d="M804.14-526.727c0,.339-35.159.613-78.523.613-43.38,0-78.532-.273-78.532-.613s35.152-.616,78.532-.616C768.98-527.343,804.14-527.067,804.14-526.727Z" transform="translate(-647.085 527.343)"/>
      </g>
    </g>
  </g>
  <g id="Group_256" data-name="Group 256" transform="translate(100.578 82.102)">
    <g id="Group_255" data-name="Group 255">
      <g id="Group_254" data-name="Group 254">
        <path id="Path_129" data-name="Path 129" class="cls-4" d="M709.476-521.382a9.3,9.3,0,0,1-2.431.241c-1.568.073-3.834.139-6.636.2-5.6.111-13.337.179-21.883.179s-16.287-.068-21.89-.179c-2.8-.057-5.065-.123-6.633-.2a9.3,9.3,0,0,1-2.431-.241A9.384,9.384,0,0,1,650-521.62c1.568-.073,3.834-.139,6.633-.2,5.6-.111,13.34-.179,21.89-.179s16.283.068,21.883.179c2.8.057,5.068.123,6.636.2A9.384,9.384,0,0,1,709.476-521.382Z" transform="translate(-647.571 521.995)"/>
      </g>
    </g>
  </g>
</svg>
