<svg id="Group_706" data-name="Group 706" xmlns="http://www.w3.org/2000/svg" width="663.474" height="418.241" viewBox="0 0 663.474 418.241">
  <defs>
    <style>
      .cls-1 {
        opacity: 0.42;
      }

      .cls-2 {
        fill: #dbe2ef;
      }

      .cls-3 {
        fill: #0090ff;
      }

      .cls-4 {
        fill: #005c52;
      }

      .cls-5 {
        fill: #00796c;
      }

      .cls-6 {
        fill: #001164;
      }

      .cls-7 {
        fill: #002b2b;
      }

      .cls-8 {
        fill: #2b2716;
      }

      .cls-9 {
        fill: #fff;
      }

      .cls-10 {
        fill: #ffab91;
      }

      .cls-11 {
        fill: #3f72af;
      }

      .cls-12 {
        fill: #112d4e;
      }

      .cls-13 {
        fill: #ff8a65;
      }

      .cls-14 {
        fill: #b7b7b7;
      }

      .cls-15 {
        fill: #cfcfcf;
      }

      .cls-16 {
        fill: #3e2723;
      }

      .cls-17 {
        fill: #323026;
      }

      .cls-18 {
        fill: #09121f;
      }

      .cls-19 {
        fill: #bfbfbf;
      }

      .cls-20 {
        fill: #ccc;
      }

      .cls-21 {
        fill: #c7c7c7;
      }

      .cls-22 {
        fill: #212121;
      }

      .cls-23 {
        fill: #2b4e78;
      }

      .cls-24 {
        fill: #bbb;
      }
    </style>
  </defs>
  <g id="BACKGROUND" transform="translate(24.965)">
    <g id="Group_662" data-name="Group 662" class="cls-1">
      <path id="Path_268" data-name="Path 268" class="cls-2" d="M545.608,120.4c2.707,6.656,10.151,10.235,17.284,11.1s14.347-.365,21.53-.237a57.784,57.784,0,0,1,42.537,20.236c4.539,5.381,9.229,12.237,16.268,12.283,5.633.036,10.412-4.836,11.869-10.277s.25-11.242-1.567-16.573a75.58,75.58,0,0,0-46.8-46.543c6.8-1.408,11.153-8.964,10.446-15.87s-5.493-12.871-11.3-16.67-12.6-5.761-19.293-7.6c-6.171-1.7-14.164-2.711-17.7,2.621-2.79,4.2-.894,9.9,1.744,14.195C591.06,100.37,532.66,88.558,545.608,120.4Z" transform="translate(-68.228 -48.883)"/>
      <path id="Path_269" data-name="Path 269" class="cls-2" d="M82.992,462.643A76.407,76.407,0,0,1,109.82,349.358c15.436-7.883,33.929-10.784,46.281-22.942,10.937-10.766,14.849-26.937,14.938-42.284s-3.124-30.512-4.192-45.822c-2.709-38.824,9.331-79.127,35.552-107.886s66.938-44.636,105.276-37.943c46.468,8.114,82.935,45.973,128.792,57.033,26.459,6.382,54.149,3.378,81.251.877s55.086-4.37,80.954,4.095,49.379,29.734,52.349,56.789c3.958,36.071-28.13,72.448-14.215,105.961,5.16,12.428,15.837,21.561,23.892,32.339,24.7,33.056,21.254,83.992-7.68,113.415Z" transform="translate(-68.228 -48.883)"/>
      <path id="Path_270" data-name="Path 270" class="cls-2" d="M148.647,292.491a60.344,60.344,0,0,1-36.824,34.965c-9.092,3-19.484,3.635-27.912-.9s-13.833-15.3-10.156-24.141c3.351-8.056,12.415-11.926,18.272-18.393,5.764-6.365,8.2-15.021,9.9-23.438s2.9-17.107,6.831-24.744,11.334-14.19,19.921-14.265C155.019,221.339,154.454,277.524,148.647,292.491Z" transform="translate(-68.228 -48.883)"/>
      <path id="Path_271" data-name="Path 271" class="cls-2" d="M653.405,287.175c.126,7.718,2.238,15.605,7.127,21.579s12.819,9.715,20.431,8.432,14.223-8.244,13.986-15.959c-.2-6.7-5.063-12.719-4.691-19.408.24-4.3,2.632-8.228,3.041-12.513.787-8.256-6.7-15.878-14.959-16.671C658.738,250.752,653.154,271.908,653.405,287.175Z" transform="translate(-68.228 -48.883)"/>
    </g>
  </g>
  <g id="OBJECTS" transform="translate(0 12.508)">
    <g id="Group_670" data-name="Group 670" transform="translate(112.773 168.882)">
      <g id="Group_669" data-name="Group 669">
        <g id="Group_664" data-name="Group 664" transform="translate(103.1 81.918)">
          <g id="Group_663" data-name="Group 663">
            <path id="Path_272" data-name="Path 272" class="cls-3" d="M286.589,385.742c-1.35-5.644-2.795-11.518-4.073-17.494-1.584,1.4-3.21,2.774-4.714,4.245-11.333,11.083-9.86,60.65-9.86,60.65s.943-.5,2.515-1.362c5.575-12.864,11.44-26.027,18.036-38.7Q287.467,389.416,286.589,385.742Z" transform="translate(-259.136 -312.191)"/>
            <path id="Path_273" data-name="Path 273" class="cls-4" d="M289.288,361.917c1.307,7.257,2.651,14.508,4.361,21.682,7.3-12.9,15.506-25.057,25.146-35.533q-1.236-6.07-2.266-12.186c-1.022-6.082-2.4-12.441-3.439-18.855-9.2,4.4-16.848,11.794-19.441,21.509-1.953,7.318-1.028,15.507-4.588,22.136Q289.175,361.294,289.288,361.917Z" transform="translate(-259.136 -312.191)"/>
            <path id="Path_274" data-name="Path 274" class="cls-4" d="M325.228,313.124c-1.517.267-3.028.626-4.527,1.046.128.766.255,1.534.379,2.309,1.216,7.646,2.121,15.321,3.515,22.942.14.768.294,1.532.44,2.3a105.146,105.146,0,0,1,33.342-21.769,15.476,15.476,0,0,1,9.26-3.5C353.663,313.558,339.282,310.651,325.228,313.124Z" transform="translate(-259.136 -312.191)"/>
            <path id="Path_275" data-name="Path 275" class="cls-5" d="M341.686,369.587c3.163-4.831,4.593-10.859,5.342-16.68.981-7.616,1.111-15.473,3.878-22.635a24.424,24.424,0,0,1,7.471-10.322c-22.3,8.96-39.2,25.252-52.927,44.827A135.432,135.432,0,0,1,341.686,369.587Z" transform="translate(-259.136 -312.191)"/>
            <path id="Path_276" data-name="Path 276" class="cls-6" d="M279.172,412.224c-3.012,6.528-5.908,13.079-8.715,19.557,5.408-2.972,18.431-10.363,27.556-17.464A130.192,130.192,0,0,0,279.172,412.224Z" transform="translate(-259.136 -312.191)"/>
            <path id="Path_277" data-name="Path 277" class="cls-6" d="M304.79,408.2a16.887,16.887,0,0,0,2.1-2.819c3.872-6.86,6.2-14.907,12.106-20.115,4.845-4.27,11.464-6.034,16.757-9.655a132.14,132.14,0,0,0-35.284-3.386,310.718,310.718,0,0,0-17.9,32.788A145.993,145.993,0,0,1,304.79,408.2Z" transform="translate(-259.136 -312.191)"/>
            <path id="Path_278" data-name="Path 278" class="cls-7" d="M312.7,349.78a257.04,257.04,0,0,0-53.563,114.4h4.743a253.156,253.156,0,0,1,52.682-111.832C318.46,350.039,314.576,347.5,312.7,349.78Z" transform="translate(-259.136 -312.191)"/>
          </g>
        </g>
        <g id="Group_666" data-name="Group 666" transform="translate(0 124.135)">
          <g id="Group_665" data-name="Group 665">
            <path id="Path_279" data-name="Path 279" class="cls-3" d="M200.419,359.5a37.627,37.627,0,0,0-10.57-4c-11.106-2.357-22.622-.446-33.813,1.468a12.312,12.312,0,0,1,7.266,3.037c14.093,6.243,25.254,16.179,34.489,28.147A210.48,210.48,0,0,0,200.419,359.5Z" transform="translate(-156.036 -354.408)"/>
            <path id="Path_280" data-name="Path 280" class="cls-3" d="M225.906,404.026c-2.884-3.025-6.409-5.566-8.394-9.244-2.945-5.458-1.872-12.154-3.261-18.2a24.332,24.332,0,0,0-6.637-11.645,219.051,219.051,0,0,1-3.822,31.659c10.931,16.651,18.979,36.11,26.3,54.775,1.226.731,1.962,1.154,1.962,1.154S234.609,413.154,225.906,404.026Z" transform="translate(-156.036 -354.408)"/>
            <path id="Path_281" data-name="Path 281" class="cls-6" d="M171.408,386.526c.567,6.082,2.042,12.484,6.407,16.757,3.387,3.316,8.073,4.939,12.04,7.508,7.348.09,14.71-.136,22.076-.415-11.548-21.634-26.475-40.557-48.629-50.371a19.434,19.434,0,0,1,5.652,8.415C170.956,374.192,170.84,380.443,171.408,386.526Z" transform="translate(-156.036 -354.408)"/>
            <path id="Path_282" data-name="Path 282" class="cls-6" d="M196.626,418.152c1.985,3.557,3.348,7.576,5.239,11.219,3.593,6.92,22.127,18.364,28.231,22-4.407-11.23-9.076-22.75-14.475-33.773C209.286,417.848,202.952,418.082,196.626,418.152Z" transform="translate(-156.036 -354.408)"/>
            <path id="Path_283" data-name="Path 283" class="cls-7" d="M233.157,464.183h3.827A204.412,204.412,0,0,0,191.9,379.147c-1.563-1.757-4.572.385-2.99,2.164A201.341,201.341,0,0,1,233.157,464.183Z" transform="translate(-156.036 -354.408)"/>
          </g>
        </g>
        <g id="Group_668" data-name="Group 668" transform="translate(69.874)">
          <g id="Group_667" data-name="Group 667">
            <path id="Path_284" data-name="Path 284" class="cls-3" d="M257.453,304.683a173.7,173.7,0,0,1,13.2-31.966,174.251,174.251,0,0,1-10.195-30.774c-.8.406-1.589.817-2.372,1.254a54.135,54.135,0,0,0-20.789,20.44A200.329,200.329,0,0,0,257.453,304.683Z" transform="translate(-225.91 -230.273)"/>
            <path id="Path_285" data-name="Path 285" class="cls-3" d="M235.823,311.908a35.665,35.665,0,0,1-4.314,10.4,184.446,184.446,0,0,0,16.948,23.029,306.6,306.6,0,0,1,6.341-31.323,221.667,221.667,0,0,1-21.514-40.082,34.184,34.184,0,0,0-.867,10.389C233.109,293.621,237.626,302.76,235.823,311.908Z" transform="translate(-225.91 -230.273)"/>
            <path id="Path_286" data-name="Path 286" class="cls-3" d="M227.518,329.783C220.129,347.673,240.6,401.3,240.6,401.3s.87-.935,2.3-2.529c1.067-14.429,2.3-29.194,4.2-43.83A196.3,196.3,0,0,1,227.518,329.783Z" transform="translate(-225.91 -230.273)"/>
            <path id="Path_287" data-name="Path 287" class="cls-3" d="M267.227,238.91a163.447,163.447,0,0,0,8.054,25.923,121.821,121.821,0,0,1,22.934-26.969,18.509,18.509,0,0,1,9.085-7.591C293.733,232.057,279.871,233.946,267.227,238.91Z" transform="translate(-225.91 -230.273)"/>
            <path id="Path_288" data-name="Path 288" class="cls-6" d="M298.986,282.826c-.186-1.1-.395-2.192-.622-3.271-1.889-8.987-4.834-17.914-4.525-27.093a29.217,29.217,0,0,1,4.376-14.6c-17.324,15.109-28.887,34.157-36.824,55.245A210.662,210.662,0,0,1,298.986,282.826Z" transform="translate(-225.91 -230.273)"/>
            <path id="Path_289" data-name="Path 289" class="cls-6" d="M281.356,324.206c4.641-6.236,11.537-10.862,15.255-17.737,2.7-5,3.454-10.676,3.186-16.407a190.626,190.626,0,0,0-40.319,11.673,3.974,3.974,0,0,1-1.2.291,253.476,253.476,0,0,0-7.464,29.609C260.939,328.9,271.108,326.318,281.356,324.206Z" transform="translate(-225.91 -230.273)"/>
            <path id="Path_290" data-name="Path 290" class="cls-6" d="M249.378,339.657c-3.292,19.556-5.03,39.641-6.469,59.115,7.149-7.937,28.678-32.611,30.762-44.147,1.317-7.289,1.274-15.025,3.438-21.99C267.815,334.714,258.582,337.14,249.378,339.657Z" transform="translate(-225.91 -230.273)"/>
            <path id="Path_291" data-name="Path 291" class="cls-7" d="M249.766,464.183a302.868,302.868,0,0,1,21.152-184.339c1.481-3.257-3.793-5-5.256-1.778a307.658,307.658,0,0,0-21.554,186.117Z" transform="translate(-225.91 -230.273)"/>
          </g>
        </g>
      </g>
    </g>
    <g id="Group_682" data-name="Group 682" transform="translate(245.077)">
      <path id="Path_292" data-name="Path 292" class="cls-8" d="M559.68,73.751v373.73a12.364,12.364,0,0,1-12.37,12.36H300.71a12.364,12.364,0,0,1-12.37-12.36V73.751a12.364,12.364,0,0,1,12.37-12.36h246.6A12.364,12.364,0,0,1,559.68,73.751Z" transform="translate(-288.34 -61.391)"/>
      <path id="Rectangle_32" data-name="Rectangle 32" class="cls-2" d="M11.164,0H233.788a11.164,11.164,0,0,1,11.164,11.164v337.38a11.165,11.165,0,0,1-11.165,11.165H11.164A11.164,11.164,0,0,1,0,348.545V11.164A11.164,11.164,0,0,1,11.164,0Z" transform="translate(13.196 19.37)"/>
      <g id="Group_672" data-name="Group 672" transform="translate(33.029 217.324)">
        <rect id="Rectangle_33" data-name="Rectangle 33" class="cls-9" width="19.973" height="19.973" rx="4.431"/>
        <g id="Group_671" data-name="Group 671" transform="translate(44.388 2.652)">
          <path id="Path_293" data-name="Path 293" class="cls-9" d="M528.629,286.547H368.347a2.591,2.591,0,0,1-2.59-2.59h0a2.591,2.591,0,0,1,2.59-2.59H528.629a2.591,2.591,0,0,1,2.59,2.59h0A2.591,2.591,0,0,1,528.629,286.547Z" transform="translate(-365.757 -281.367)"/>
          <path id="Path_294" data-name="Path 294" class="cls-9" d="M447.163,296.035H368.347a2.59,2.59,0,0,1-2.59-2.59h0a2.59,2.59,0,0,1,2.59-2.589h78.816a2.589,2.589,0,0,1,2.589,2.589h0A2.589,2.589,0,0,1,447.163,296.035Z" transform="translate(-365.757 -281.367)"/>
        </g>
      </g>
      <g id="Group_674" data-name="Group 674" transform="translate(33.029 273.284)">
        <rect id="Rectangle_34" data-name="Rectangle 34" class="cls-9" width="19.973" height="19.973" rx="4.431"/>
        <g id="Group_673" data-name="Group 673" transform="translate(44.388 2.652)">
          <path id="Path_295" data-name="Path 295" class="cls-9" d="M528.629,342.507H368.347a2.591,2.591,0,0,1-2.59-2.59h0a2.591,2.591,0,0,1,2.59-2.59H528.629a2.591,2.591,0,0,1,2.59,2.59h0A2.591,2.591,0,0,1,528.629,342.507Z" transform="translate(-365.757 -337.327)"/>
          <path id="Path_296" data-name="Path 296" class="cls-9" d="M447.163,352H368.347a2.591,2.591,0,0,1-2.59-2.59h0a2.59,2.59,0,0,1,2.59-2.59h78.816a2.589,2.589,0,0,1,2.589,2.59h0A2.59,2.59,0,0,1,447.163,352Z" transform="translate(-365.757 -337.327)"/>
        </g>
      </g>
      <g id="Group_676" data-name="Group 676" transform="translate(33.029 329.244)">
        <rect id="Rectangle_35" data-name="Rectangle 35" class="cls-9" width="19.973" height="19.973" rx="4.431"/>
        <g id="Group_675" data-name="Group 675" transform="translate(44.388 2.652)">
          <path id="Path_297" data-name="Path 297" class="cls-9" d="M528.629,398.467H368.347a2.59,2.59,0,0,1-2.59-2.59h0a2.591,2.591,0,0,1,2.59-2.59H528.629a2.591,2.591,0,0,1,2.59,2.59h0A2.59,2.59,0,0,1,528.629,398.467Z" transform="translate(-365.757 -393.287)"/>
          <path id="Path_298" data-name="Path 298" class="cls-9" d="M447.163,407.956H368.347a2.591,2.591,0,0,1-2.59-2.59h0a2.59,2.59,0,0,1,2.59-2.59h78.816a2.589,2.589,0,0,1,2.589,2.59h0A2.59,2.59,0,0,1,447.163,407.956Z" transform="translate(-365.757 -393.287)"/>
        </g>
      </g>
      <g id="Group_677" data-name="Group 677" transform="translate(35.641 211.564)">
        <path id="Path_299" data-name="Path 299" class="cls-6" d="M332.354,298.11l-7.641-7.642a2.5,2.5,0,0,1,3.536-3.535l4.105,4.1,17.35-17.351a2.5,2.5,0,1,1,3.536,3.535Z" transform="translate(-323.981 -272.955)"/>
      </g>
      <g id="Group_678" data-name="Group 678" transform="translate(35.641 268.101)">
        <path id="Path_300" data-name="Path 300" class="cls-6" d="M332.354,354.648l-7.641-7.642a2.5,2.5,0,0,1,3.536-3.535l4.105,4.1,17.35-17.351a2.5,2.5,0,0,1,3.536,3.535Z" transform="translate(-323.981 -329.492)"/>
      </g>
      <g id="Group_679" data-name="Group 679" transform="translate(35.641 324.062)">
        <path id="Path_301" data-name="Path 301" class="cls-6" d="M332.354,410.608l-7.641-7.642a2.5,2.5,0,0,1,3.536-3.535l4.105,4.105,17.35-17.351a2.5,2.5,0,1,1,3.536,3.535Z" transform="translate(-323.981 -385.453)"/>
      </g>
      <g id="Group_680" data-name="Group 680" transform="translate(33.029 126.352)">
        <path id="Path_302" data-name="Path 302" class="cls-9" d="M528.629,229.683H323.959a2.589,2.589,0,0,1-2.59-2.59h0a2.589,2.589,0,0,1,2.59-2.589h204.67a2.59,2.59,0,0,1,2.59,2.589h0A2.59,2.59,0,0,1,528.629,229.683Z" transform="translate(-321.369 -187.743)"/>
        <path id="Path_303" data-name="Path 303" class="cls-9" d="M528.629,220.493H323.959a2.589,2.589,0,0,1-2.59-2.59h0a2.59,2.59,0,0,1,2.59-2.59h204.67a2.591,2.591,0,0,1,2.59,2.59h0A2.59,2.59,0,0,1,528.629,220.493Z" transform="translate(-321.369 -187.743)"/>
        <path id="Path_304" data-name="Path 304" class="cls-9" d="M528.629,211.3H323.959a2.589,2.589,0,0,1-2.59-2.59h0a2.59,2.59,0,0,1,2.59-2.59h204.67a2.591,2.591,0,0,1,2.59,2.59h0A2.59,2.59,0,0,1,528.629,211.3Z" transform="translate(-321.369 -187.743)"/>
        <path id="Path_305" data-name="Path 305" class="cls-9" d="M528.629,202.113H323.959a2.589,2.589,0,0,1-2.59-2.59h0a2.59,2.59,0,0,1,2.59-2.59h204.67a2.591,2.591,0,0,1,2.59,2.59h0A2.59,2.59,0,0,1,528.629,202.113Z" transform="translate(-321.369 -187.743)"/>
        <rect id="Rectangle_36" data-name="Rectangle 36" class="cls-9" width="209.85" height="5.18" rx="2.59"/>
        <path id="Path_306" data-name="Path 306" class="cls-9" d="M425.308,239.172H323.959a2.59,2.59,0,0,1-2.59-2.59h0a2.59,2.59,0,0,1,2.59-2.59H425.308a2.59,2.59,0,0,1,2.589,2.59h0A2.59,2.59,0,0,1,425.308,239.172Z" transform="translate(-321.369 -187.743)"/>
      </g>
      <g id="Group_681" data-name="Group 681" transform="translate(33.029 47.837)">
        <path id="Path_307" data-name="Path 307" class="cls-9" d="M528.629,151.168H323.959a2.589,2.589,0,0,1-2.59-2.59h0a2.589,2.589,0,0,1,2.59-2.589h204.67a2.59,2.59,0,0,1,2.59,2.589h0A2.59,2.59,0,0,1,528.629,151.168Z" transform="translate(-321.369 -109.228)"/>
        <path id="Path_308" data-name="Path 308" class="cls-9" d="M528.629,141.978H323.959a2.589,2.589,0,0,1-2.59-2.59h0a2.59,2.59,0,0,1,2.59-2.59h204.67a2.591,2.591,0,0,1,2.59,2.59h0A2.59,2.59,0,0,1,528.629,141.978Z" transform="translate(-321.369 -109.228)"/>
        <path id="Path_309" data-name="Path 309" class="cls-9" d="M528.629,132.788H323.959a2.589,2.589,0,0,1-2.59-2.59h0a2.59,2.59,0,0,1,2.59-2.59h204.67a2.591,2.591,0,0,1,2.59,2.59h0A2.59,2.59,0,0,1,528.629,132.788Z" transform="translate(-321.369 -109.228)"/>
        <path id="Path_310" data-name="Path 310" class="cls-9" d="M528.629,123.6H323.959a2.589,2.589,0,0,1-2.59-2.59h0a2.59,2.59,0,0,1,2.59-2.59h204.67a2.591,2.591,0,0,1,2.59,2.59h0A2.59,2.59,0,0,1,528.629,123.6Z" transform="translate(-321.369 -109.228)"/>
        <path id="Path_311" data-name="Path 311" class="cls-9" d="M528.629,114.408H323.959a2.589,2.589,0,0,1-2.59-2.59h0a2.59,2.59,0,0,1,2.59-2.59h204.67a2.591,2.591,0,0,1,2.59,2.59h0A2.59,2.59,0,0,1,528.629,114.408Z" transform="translate(-321.369 -109.228)"/>
        <rect id="Rectangle_37" data-name="Rectangle 37" class="cls-9" width="106.529" height="5.18" rx="2.59" transform="translate(0 46.249)"/>
      </g>
    </g>
    <g id="Group_696" data-name="Group 696" transform="translate(322.39 115.094)">
      <g id="Group_695" data-name="Group 695">
        <g id="Group_685" data-name="Group 685" transform="translate(0 54.583)">
          <path id="Path_312" data-name="Path 312" class="cls-6" d="M439.108,231.068c-5.309,2.114-8.478,7.531-10.716,12.789a198.161,198.161,0,0,0-10.774,34.281s-8.483-2.283-13.47-1.33a39.52,39.52,0,0,0-4.675,7.592c-.939,1.825-1.9,3.867-1.378,5.85a17.072,17.072,0,0,0,4.736,3.121,185,185,0,0,0,18.346,5.937c5.841-7.223,11.78-14.305,17.089-21.927Z" transform="translate(-365.653 -231.068)"/>
          <path id="Path_313" data-name="Path 313" class="cls-10" d="M370.2,264.113a23.773,23.773,0,0,1,7.417.178c1.509,2.5,4.018,5.829,5.807,8.156a78.4,78.4,0,0,0,21.957,5.271c1.141,2.255.782,4.906-.108,7.271a9.274,9.274,0,0,1-5.149,5.267c-5.189-2.84-13.612-10.1-18.8-12.942a6.087,6.087,0,0,1-4.993.864,6.855,6.855,0,0,1-3.667-2.44c-.053.02-.107.038-.158.059-.748.309-1.183,1.077-1.926,1.328a.784.784,0,0,1-.993-.479c-.269-1.212.815-2.24,1.81-2.767l.032-.016a5.388,5.388,0,0,0-2.6.831,1.012,1.012,0,0,1-1.345-1.475,5.455,5.455,0,0,1,3.883-1.911,10.284,10.284,0,0,1,1.95.031c.008-.045.014-.09.021-.134-2.052-.243-4.242-.928-5.684.77a.859.859,0,0,1-1.493-.7,4,4,0,0,1,3.718-3.016,18.845,18.845,0,0,1,3.324.092c.151.011.3.019.446.025.012-.242.022-.484.026-.722a9.232,9.232,0,0,0-3.076-.727,2.663,2.663,0,0,0-1.454.448,9.3,9.3,0,0,1-1.346.751,1.714,1.714,0,0,1-1.489-.044c-.439-.27-.935-1.085-.481-1.328C367.2,266.019,368.653,264.253,370.2,264.113Z" transform="translate(-365.653 -231.068)"/>
          <g id="Group_683" data-name="Group 683" transform="translate(0.9 25.752)">
            <path id="Path_314" data-name="Path 314" class="cls-11" d="M369.03,274.6l-.9,1.374a.71.71,0,0,1-.931.237h0a.71.71,0,0,1-.316-.907l.65-1.507a.71.71,0,0,1,.988-.344l.248.133A.71.71,0,0,1,369.03,274.6Z" transform="translate(-366.553 -256.82)"/>
            <rect id="Rectangle_38" data-name="Rectangle 38" class="cls-12" width="16.471" height="4.965" transform="matrix(0.473, -0.881, 0.881, 0.473, 0.452, 14.511)"/>
            <path id="Path_315" data-name="Path 315" class="cls-12" d="M370.867,273.405l-1.927,2.433-2.387-1.282.964-2.951Z" transform="translate(-366.553 -256.82)"/>
          </g>
          <g id="Group_684" data-name="Group 684" transform="translate(5.713 33.31)">
            <path id="Path_316" data-name="Path 316" class="cls-10" d="M373.137,265.259a1.086,1.086,0,0,0-1.036.212.982.982,0,0,0-.053.907,3.775,3.775,0,0,0,4.112,2.581,1.417,1.417,0,0,0,.829-2.409,5.021,5.021,0,0,0-1.672-.754A13.715,13.715,0,0,0,373.137,265.259Z" transform="translate(-371.366 -264.378)"/>
            <path id="Path_317" data-name="Path 317" class="cls-13" d="M371.631,264.751a.574.574,0,0,1,.765-.331c.012,0,.022,0,.036,0a26.45,26.45,0,0,1,5.21,1.544c.85.347.149,1.592-.693,1.248a24.407,24.407,0,0,0-4.17-1.262c-.009,1.576,3.129,2.671,4.181,3.015a.7.7,0,0,1,.481.516.719.719,0,0,1,.016.614,3.249,3.249,0,0,0,.182,3.234,2.042,2.042,0,0,0,2.924.475c.75-.534,1.488.689.744,1.218a3.449,3.449,0,0,1-4.575-.554,4.427,4.427,0,0,1-.778-4.348C373.64,269.27,370.417,267.561,371.631,264.751Z" transform="translate(-371.366 -264.378)"/>
          </g>
          <path id="Path_318" data-name="Path 318" class="cls-14" d="M401.016,289.5a9.669,9.669,0,0,0,3.7-4.638c.846-2.04,1.377-4.449.517-6.567-.242-.6.725-.854.965-.264.938,2.312.357,4.952-.553,7.18a10.659,10.659,0,0,1-4.126,5.155C400.968,290.708,400.468,289.842,401.016,289.5Z" transform="translate(-365.653 -231.068)"/>
          <path id="Path_319" data-name="Path 319" class="cls-15" d="M419.164,278.414a2.928,2.928,0,0,1,1.142,1.157q.541.819,1.008,1.686a23.482,23.482,0,0,1,1.542,3.542c.209.609-.757.871-.965.264a21.923,21.923,0,0,0-1.383-3.194q-.4-.756-.861-1.479a2.617,2.617,0,0,0-.978-1.107C418.085,279.014,418.583,278.147,419.164,278.414Z" transform="translate(-365.653 -231.068)"/>
        </g>
        <path id="Path_320" data-name="Path 320" class="cls-16" d="M456.693,215.891c.515-2.754,2.3-5.077,4.026-7.283a11.973,11.973,0,0,1,1.694-1.855c1.151-.961,1.972-1.084,2.2-2.736.871-6.4-.234-15.708-6.118-19.676a10.157,10.157,0,0,0-2.77-1.442c-1.051-.305-1.961.128-2.96-.054-1.444-.263-.96-2.494-1.373-3.492a5.282,5.282,0,0,0-5.837-2.771,9.24,9.24,0,0,0-5.547,3.976,6.928,6.928,0,0,0-1.21,2.5.058.058,0,0,1-.016.031,4.658,4.658,0,0,0-5.234-1.151,9.121,9.121,0,0,0-4.075,4.256c-2.611,5.06-2.132,11.353.382,16.462s6.856,9.132,11.662,12.185a22.258,22.258,0,0,0,7.639,3.331C451.9,218.7,454.383,217.465,456.693,215.891Z" transform="translate(-365.653 -176.485)"/>
        <g id="Group_687" data-name="Group 687" transform="translate(48.79 120.037)">
          <path id="Path_321" data-name="Path 321" class="cls-17" d="M417.812,382.678c-4.174-28.293-.861-58.121,4.788-86.156,8.935.353,16.561.786,25.2,3.091.243,29.841-7.121,60.259-21.759,86.264Z" transform="translate(-414.443 -296.522)"/>
          <path id="Path_322" data-name="Path 322" class="cls-10" d="M466.227,440.789a4.189,4.189,0,0,1-2.152-.241c1.3,4.917,2.556,9.845,3.732,14.795a16.3,16.3,0,0,0,8.029-1.6c.2-5.382.522-11.018.747-16.745A25.976,25.976,0,0,1,466.227,440.789Z" transform="translate(-414.443 -296.522)"/>
          <path id="Path_323" data-name="Path 323" class="cls-8" d="M471.5,400.367a57.717,57.717,0,0,0-19.954-26.789l-2.358,4.294A13.56,13.56,0,0,0,448.6,389.1c6.276,16.463,10.678,40.423,15.194,57.518.4,1.521,4.366.938,6.536.612.944-.142,7.567-1.543,7.606-2.522C478.421,432.355,475.555,411.355,471.5,400.367Z" transform="translate(-414.443 -296.522)"/>
          <path id="Path_324" data-name="Path 324" class="cls-8" d="M448.472,388.984c-6.016-20.255-9.413-57.927-9.413-57.927s-16.981-14.07-16.981-32.991c8.895-.918,34.939,4.562,43.818,5.618,4.471,29.505,1.5,60.66-9.307,88.478Z" transform="translate(-414.443 -296.522)"/>
          <path id="Path_325" data-name="Path 325" class="cls-18" d="M464.755,444.344a33.108,33.108,0,0,0,11.755-2.717c.843-.363,1.228,1.013.395,1.372a34.166,34.166,0,0,1-12.133,2.773C463.854,445.813,463.838,444.385,464.755,444.344Z" transform="translate(-414.443 -296.522)"/>
          <path id="Path_326" data-name="Path 326" class="cls-18" d="M456.217,384.078a14.681,14.681,0,0,0,3.223-6.62c.188-.9,1.569-.535,1.381.363a16.194,16.194,0,0,1-3.583,7.255C456.641,385.776,455.624,384.775,456.217,384.078Z" transform="translate(-414.443 -296.522)"/>
          <path id="Path_327" data-name="Path 327" class="cls-18" d="M457.3,387.5q.9-1.605,1.8-3.209a.714.714,0,0,1,1.241.706l-1.8,3.209A.714.714,0,0,1,457.3,387.5Z" transform="translate(-414.443 -296.522)"/>
          <g id="Group_686" data-name="Group 686" transform="translate(3.058 72.965)">
            <path id="Path_328" data-name="Path 328" class="cls-17" d="M434.495,436.384a4.183,4.183,0,0,1-2.143-.306c1.151,4.954,2.259,9.918,3.285,14.9,3.479.186,5.027.9,8.285-.288.357-5.373.641-12.069,1.039-17.787A25.984,25.984,0,0,1,434.495,436.384Z" transform="translate(-417.501 -369.487)"/>
            <path id="Path_329" data-name="Path 329" class="cls-17" d="M440.842,396.863A57.712,57.712,0,0,0,421.7,369.487l-2.486,4.221a13.56,13.56,0,0,0-.924,11.2c5.779,16.644,10.06,45.122,14.061,62.345.356,1.532,6.3,1.128,8.455.872.948-.113,5.047-.193,5.115-1.171C446.779,434.626,444.566,407.968,440.842,396.863Z" transform="translate(-417.501 -369.487)"/>
            <path id="Path_330" data-name="Path 330" class="cls-17" d="M433.435,444.566a16.678,16.678,0,0,0,10.377-3.086c.747-.527,1.669.563.919,1.093a18.3,18.3,0,0,1-11.437,3.414C432.376,445.954,432.519,444.533,433.435,444.566Z" transform="translate(-417.501 -369.487)"/>
            <path id="Path_331" data-name="Path 331" class="cls-17" d="M424.379,379.621l3.043-4.641c.5-.77,1.668.056,1.165.824l-3.042,4.642C425.04,381.216,423.876,380.389,424.379,379.621Z" transform="translate(-417.501 -369.487)"/>
            <path id="Path_332" data-name="Path 332" class="cls-17" d="M426.432,383.782q.651-2.466,1.3-4.93c.234-.887,1.569-.381,1.337.5q-.651,2.465-1.3,4.93C427.535,385.171,426.2,384.664,426.432,383.782Z" transform="translate(-417.501 -369.487)"/>
          </g>
          <path id="Path_333" data-name="Path 333" class="cls-9" d="M424.091,452.416l8.387-2.151,11.889-.206a28.624,28.624,0,0,1,1.873,9.717h-31.8C414.466,454.928,419.237,452.416,424.091,452.416Z" transform="translate(-414.443 -296.522)"/>
          <path id="Path_334" data-name="Path 334" class="cls-9" d="M457.825,452.416l8.386-2.151,11.89-.206a28.624,28.624,0,0,1,1.873,9.717h-31.8C448.2,454.928,452.971,452.416,457.825,452.416Z" transform="translate(-414.443 -296.522)"/>
        </g>
        <path id="Path_335" data-name="Path 335" class="cls-6" d="M448.185,227.4a35.855,35.855,0,0,1,12.451-1.21c8,.644,18.232,5.526,16.578,15.141-.845,4.911-3.817,9.217-4.795,14.129a202.047,202.047,0,0,0-3.035,55.549c.217,2.867,1.243,6.656-1.485,7.566-12.7,4.238-23.847,4.253-37.233,3.774a26.021,26.021,0,0,1-9.035-1.587,5.884,5.884,0,0,1-3.517-5.955c.81-9.235,1.584-18.356,2.381-27.766.851-10.039,1.726-20.365,2.655-30.853l.019-.217C424.407,241.772,435.146,231.02,448.185,227.4Z" transform="translate(-365.653 -176.485)"/>
        <g id="Group_688" data-name="Group 688" transform="translate(52.488 51.616)">
          <path id="Path_336" data-name="Path 336" class="cls-19" d="M444.57,234.85c1.083,1.073,2.851.78,4.2.515a18.147,18.147,0,0,0,4.271-1.406,18.426,18.426,0,0,0,6.906-5.642c.379-.512,1.252-.023.87.493a19.463,19.463,0,0,1-7.81,6.26,18.977,18.977,0,0,1-4.744,1.395c-1.527.232-3.229.254-4.4-.908A.5.5,0,0,1,444.57,234.85Z" transform="translate(-418.141 -228.1)"/>
          <path id="Path_337" data-name="Path 337" class="cls-20" d="M418.516,311.676q.288-1.909.393-3.836c.266-5.067-.193-10.132.347-15.19.533-5,1.286-9.978,1.944-14.961.662-5.007,1.336-10.016,2.26-14.982.516-2.778,1.112-5.542,1.825-8.276a23.869,23.869,0,0,1,2.767-7.14c.351-.538,1.222-.046.87.493a21.236,21.236,0,0,0-2.483,6.2c-.629,2.338-1.169,4.7-1.645,7.076-.96,4.794-1.657,9.636-2.307,14.481q-.987,7.361-1.945,14.724a65.421,65.421,0,0,0-.59,7.345c-.039,2.479.05,4.957.033,7.436a59.787,59.787,0,0,1-.658,7.94c-.332,2.377-.383,5.184,1.676,6.83.5.4-.21,1.105-.708.707a6.621,6.621,0,0,1-2.154-5.315A24.928,24.928,0,0,1,418.516,311.676Z" transform="translate(-418.141 -228.1)"/>
          <path id="Path_338" data-name="Path 338" class="cls-21" d="M439.587,312.6c7.569-.724,15.621-2.017,21.752-6.874.5-.394,1.212.308.707.708-6.366,5.043-14.59,6.413-22.459,7.166C438.946,313.661,438.951,312.661,439.587,312.6Z" transform="translate(-418.141 -228.1)"/>
        </g>
        <g id="Group_692" data-name="Group 692" transform="translate(67.098 13.068)">
          <g id="Group_691" data-name="Group 691">
            <g id="Group_690" data-name="Group 690">
              <path id="Path_339" data-name="Path 339" class="cls-10" d="M445.939,214.615c1.933,4.9.837,15.875.205,16.558a1.983,1.983,0,0,0-.381,2.516c.62.715,1.765.512,2.66.2a27.8,27.8,0,0,0,11.282-7.383c-.307-.273-.832-.82-1.138-1.092-3.637-3.232-2.318-13.5-1.879-18.342Z" transform="translate(-432.751 -189.553)"/>
              <path id="Path_340" data-name="Path 340" class="cls-13" d="M456.124,217.012c.1-2.049.313-7.794.483-9.663l-10.668,7.266a24.965,24.965,0,0,1,1.09,8.4C450.045,220.991,453.153,219.066,456.124,217.012Z" transform="translate(-432.751 -189.553)"/>
              <g id="Group_689" data-name="Group 689">
                <path id="Path_341" data-name="Path 341" class="cls-10" d="M433.464,196.165c-1.6,7.679-1.283,24.57,9.308,25.823,3.437.407,6.788-1.666,8.865-4.434s3.122-6.153,4.129-9.464a11.283,11.283,0,0,0,3.832-.973,3.647,3.647,0,0,0,1.982-3.066,2.252,2.252,0,0,0-2.516-2.205c-2.476.586-4.492,3.731-4.8,1.147-2.274-18.844-13.358-8.941-16.995-13.439-.06-.074-2.723,3.7-2.94,4.121A9.776,9.776,0,0,0,433.464,196.165Z" transform="translate(-432.751 -189.553)"/>
                <path id="Path_342" data-name="Path 342" class="cls-13" d="M459.713,203.643c-.886-.514-1.941.085-2.66.669-.471.383-1.466,1.4-.977,2.054a.042.042,0,0,0,.04.013c.581-.1.972-.927,1.433-1.272.662-.5,1.487-.506,2.142-.964A.294.294,0,0,0,459.713,203.643Z" transform="translate(-432.751 -189.553)"/>
                <path id="Path_343" data-name="Path 343" class="cls-22" d="M434.692,201.981a.468.468,0,0,0-.731.064,2.272,2.272,0,0,0-.2,1.532,3.851,3.851,0,0,0,.329,1.635.5.5,0,0,0,.911-.078,3.826,3.826,0,0,0,.106-1.666A2.281,2.281,0,0,0,434.692,201.981Z" transform="translate(-432.751 -189.553)"/>
                <path id="Path_344" data-name="Path 344" class="cls-22" d="M444.191,201.324a.467.467,0,0,0-.73.063,2.273,2.273,0,0,0-.2,1.532,3.845,3.845,0,0,0,.329,1.635.5.5,0,0,0,.911-.078,3.825,3.825,0,0,0,.106-1.666A2.272,2.272,0,0,0,444.191,201.324Z" transform="translate(-432.751 -189.553)"/>
              </g>
            </g>
          </g>
          <path id="Path_345" data-name="Path 345" class="cls-16" d="M440.7,197.214a4.065,4.065,0,0,1,5.09-.328c.733.536.037,1.783-.706,1.241a2.644,2.644,0,0,0-3.363.085C441.039,198.822,440.014,197.828,440.7,197.214Z" transform="translate(-432.751 -189.553)"/>
          <path id="Path_346" data-name="Path 346" class="cls-16" d="M433.064,198a2.062,2.062,0,0,1,2.526-.316c.779.483.078,1.727-.706,1.241a.615.615,0,0,0-.8.073C433.436,199.651,432.415,198.655,433.064,198Z" transform="translate(-432.751 -189.553)"/>
          <path id="Path_347" data-name="Path 347" class="cls-22" d="M442.577,214.789a6.018,6.018,0,0,0,4.533-2.281c.582-.712,1.6.291,1.021,1a7.412,7.412,0,0,1-5.537,2.71A.714.714,0,0,1,442.577,214.789Z" transform="translate(-432.751 -189.553)"/>
          <path id="Path_348" data-name="Path 348" class="cls-13" d="M437.881,205.67a.367.367,0,0,1,.524.512,6.027,6.027,0,0,0-1.7,2.651c-.348,1.418.28,3.063,1.951,3.1.471.01.051.744-.422.734a2.822,2.822,0,0,1-2.765-2.495C435.2,208.4,436.715,206.875,437.881,205.67Z" transform="translate(-432.751 -189.553)"/>
        </g>
        <g id="Group_694" data-name="Group 694" transform="translate(90.291 54.08)">
          <path id="Path_349" data-name="Path 349" class="cls-6" d="M464.252,231.859c2.8-1.47,4.406-1.74,7.462-.54a15.963,15.963,0,0,1,9.234,9.472c4.04,11.731,8.408,24.238,12.128,36.074,2.831,9.006-3.864,18.706-7.788,27.293-4.647-1.881-9.085-4.023-13.732-5.9a80.1,80.1,0,0,1,3.432-18.511c-7.055-14.217-9.106-21.515-14.8-36.329" transform="translate(-455.944 -230.565)"/>
          <g id="Group_693" data-name="Group 693" transform="translate(0 65.263)">
            <path id="Path_350" data-name="Path 350" class="cls-10" d="M455.944,329.927v-.087a12.978,12.978,0,0,1,8.649-11.909q.48-.176.953-.337a78.382,78.382,0,0,0,7.422-21.327c2.356-.912,4.959-.292,7.224.828a9.272,9.272,0,0,1,4.731,5.646c-3.341,4.881-11.4,12.544-14.742,17.425a6.084,6.084,0,0,1,.365,5.054,6.844,6.844,0,0,1-2.79,3.408c.014.055.027.11.042.163.234.774.955,1.283,1.131,2.048a.783.783,0,0,1-.575.94c-1.232.148-2.148-1.032-2.574-2.075l-.012-.033a5.383,5.383,0,0,0,.569,2.666,1.013,1.013,0,0,1-1.6,1.193,5.46,5.46,0,0,1-1.516-4.053,10.33,10.33,0,0,1,.224-1.938l-.131-.034c-.445,2.018-1.344,4.129.2,5.732a.859.859,0,0,1-.845,1.417,4,4,0,0,1-2.632-4,18.85,18.85,0,0,1,.421-3.3c.025-.149.047-.3.069-.441-.24-.035-.48-.07-.716-.1a9.2,9.2,0,0,0-1.028,2.989,2.66,2.66,0,0,0,.3,1.491,9.348,9.348,0,0,1,.615,1.414,1.669,1.669,0,0,1-.254,1.552.964.964,0,0,1-1.55-.232C457.193,332.727,455.932,331.3,455.944,329.927Z" transform="translate(-455.944 -295.827)"/>
          </g>
          <path id="Path_351" data-name="Path 351" class="cls-23" d="M477.49,278.842a13.754,13.754,0,0,1,5.873.459c.626.143.459,1.13-.17.986a13.079,13.079,0,0,0-5.617-.448.5.5,0,0,1-.541-.456A.513.513,0,0,1,477.49,278.842Z" transform="translate(-455.944 -230.565)"/>
          <path id="Path_352" data-name="Path 352" class="cls-23" d="M479.145,280.342l1.914.2a.5.5,0,0,1,.408.578.512.512,0,0,1-.578.408l-1.914-.2a.5.5,0,0,1-.408-.578A.512.512,0,0,1,479.145,280.342Z" transform="translate(-455.944 -230.565)"/>
          <path id="Path_353" data-name="Path 353" class="cls-24" d="M464.433,253.923q4.882,12.574,10.8,24.713c.282.577-.661.913-.941.339q-5.908-12.127-10.8-24.713A.5.5,0,0,1,464.433,253.923Z" transform="translate(-455.944 -230.565)"/>
          <path id="Path_354" data-name="Path 354" class="cls-24" d="M463.237,257.648a16.167,16.167,0,0,0,4.251,4.294.5.5,0,1,1-.634.774,16.961,16.961,0,0,1-4.434-4.492C462.061,257.691,462.877,257.112,463.237,257.648Z" transform="translate(-455.944 -230.565)"/>
          <path id="Path_355" data-name="Path 355" class="cls-23" d="M472.659,295.563a9.209,9.209,0,0,1,8,.557,12.007,12.007,0,0,1,5.118,6.1c.238.6-.7.938-.941.339a10.91,10.91,0,0,0-4.591-5.528A8.271,8.271,0,0,0,473,296.5C472.4,296.753,472.066,295.812,472.659,295.563Z" transform="translate(-455.944 -230.565)"/>
        </g>
      </g>
    </g>
    <g id="Group_697" data-name="Group 697" transform="translate(170.592 339.061)">
      <rect id="Rectangle_39" data-name="Rectangle 39" class="cls-12" width="44.725" height="2.59" transform="translate(28.884 4.997)"/>
      <rect id="Rectangle_40" data-name="Rectangle 40" class="cls-12" width="44.725" height="2.59" transform="translate(16.374 22.809)"/>
      <rect id="Rectangle_41" data-name="Rectangle 41" class="cls-12" width="44.725" height="2.59" transform="translate(0 40.62)"/>
      <path id="Path_356" data-name="Path 356" class="cls-12" d="M264.052,403.452a19.1,19.1,0,0,1,18.517,13.264L293.948,450.2a4.7,4.7,0,0,1-4.452,6.215H238.608a4.7,4.7,0,0,1-4.452-6.215l11.379-33.484a19.1,19.1,0,0,1,18.517-13.264m0-3a22.16,22.16,0,0,0-21.358,15.3L229.968,453.2a4.7,4.7,0,0,0,4.452,6.215h59.264a4.7,4.7,0,0,0,4.452-6.215L285.41,415.751a22.16,22.16,0,0,0-21.358-15.3Z" transform="translate(-213.855 -400.452)"/>
    </g>
    <path id="Path_357" data-name="Path 357" class="cls-8" d="M703.063,467.124H46.937a3.674,3.674,0,0,1-3.674-3.674h0a3.674,3.674,0,0,1,3.674-3.674H703.063a3.674,3.674,0,0,1,3.674,3.674h0A3.674,3.674,0,0,1,703.063,467.124Z" transform="translate(-43.263 -61.391)"/>
    <g id="Group_705" data-name="Group 705" transform="translate(450.499 258.559)">
      <g id="Group_704" data-name="Group 704">
        <g id="Group_699" data-name="Group 699" transform="translate(0 47.41)">
          <g id="Group_698" data-name="Group 698">
            <path id="Path_358" data-name="Path 358" class="cls-3" d="M540.668,409.927c.782-3.266,1.618-6.666,2.358-10.124.916.812,1.858,1.6,2.728,2.456,6.559,6.415,5.707,35.1,5.707,35.1s-.546-.289-1.456-.789c-3.226-7.445-6.621-15.063-10.438-22.395Q540.161,412.053,540.668,409.927Z" transform="translate(-493.762 -367.36)"/>
            <path id="Path_359" data-name="Path 359" class="cls-3" d="M539.107,396.139c-.757,4.2-1.535,8.4-2.525,12.548a110.684,110.684,0,0,0-14.552-20.565q.715-3.513,1.311-7.052c.591-3.52,1.389-7.2,1.99-10.912,5.326,2.544,9.751,6.825,11.252,12.447,1.13,4.236.595,8.975,2.655,12.812C539.194,395.658,539.15,395.9,539.107,396.139Z" transform="translate(-493.762 -367.36)"/>
            <path id="Path_360" data-name="Path 360" class="cls-3" d="M518.307,367.9c.877.154,1.752.362,2.619.605q-.111.664-.219,1.337c-.7,4.424-1.227,8.866-2.034,13.277-.081.444-.171.886-.255,1.33a60.873,60.873,0,0,0-19.3-12.6,8.958,8.958,0,0,0-5.36-2.023C501.849,368.15,510.172,366.468,518.307,367.9Z" transform="translate(-493.762 -367.36)"/>
            <path id="Path_361" data-name="Path 361" class="cls-6" d="M508.781,400.578a23.035,23.035,0,0,1-3.091-9.654c-.568-4.408-.643-8.955-2.245-13.1a14.129,14.129,0,0,0-4.323-5.974c12.908,5.185,22.684,14.614,30.631,25.943A78.384,78.384,0,0,0,508.781,400.578Z" transform="translate(-493.762 -367.36)"/>
            <path id="Path_362" data-name="Path 362" class="cls-6" d="M544.961,425.253c1.743,3.778,3.419,7.57,5.044,11.319a135.1,135.1,0,0,1-15.948-10.107A75.29,75.29,0,0,1,544.961,425.253Z" transform="translate(-493.762 -367.36)"/>
            <path id="Path_363" data-name="Path 363" class="cls-6" d="M530.135,422.927a9.706,9.706,0,0,1-1.213-1.631c-2.241-3.97-3.586-8.627-7.006-11.642-2.8-2.471-6.635-3.491-9.7-5.587a76.5,76.5,0,0,1,20.42-1.96A180.044,180.044,0,0,1,543,421.083,84.464,84.464,0,0,0,530.135,422.927Z" transform="translate(-493.762 -367.36)"/>
            <path id="Path_364" data-name="Path 364" class="cls-7" d="M555.374,464.943A146.581,146.581,0,0,0,523.323,390.6c-1.1-1.338,1.149-2.81,2.234-1.488a148.882,148.882,0,0,1,32.531,75.829Z" transform="translate(-493.762 -367.36)"/>
          </g>
        </g>
        <g id="Group_701" data-name="Group 701" transform="translate(73.572 71.842)">
          <g id="Group_700" data-name="Group 700">
            <path id="Path_365" data-name="Path 365" class="cls-3" d="M590.54,394.738a21.722,21.722,0,0,1,6.117-2.313c6.427-1.365,13.092-.259,19.569.849a7.125,7.125,0,0,0-4.205,1.758c-8.156,3.613-14.616,9.364-19.96,16.29A121.492,121.492,0,0,1,590.54,394.738Z" transform="translate(-567.334 -391.792)"/>
            <path id="Path_366" data-name="Path 366" class="cls-3" d="M575.789,420.509c1.669-1.751,3.709-3.221,4.858-5.35,1.7-3.159,1.084-7.034,1.887-10.532a14.081,14.081,0,0,1,3.841-6.74,126.875,126.875,0,0,0,2.212,18.322c-6.326,9.637-10.984,20.9-15.223,31.7-.71.422-1.135.667-1.135.667S570.752,425.792,575.789,420.509Z" transform="translate(-567.334 -391.792)"/>
            <path id="Path_367" data-name="Path 367" class="cls-6" d="M607.33,410.381c-.329,3.52-1.182,7.225-3.709,9.7-1.96,1.919-4.672,2.859-6.968,4.345-4.252.052-8.513-.078-12.776-.24,6.683-12.521,15.322-23.472,28.144-29.152a11.247,11.247,0,0,0-3.271,4.87C607.591,403.243,607.658,406.861,607.33,410.381Z" transform="translate(-567.334 -391.792)"/>
            <path id="Path_368" data-name="Path 368" class="cls-6" d="M592.735,428.684c-1.149,2.059-1.938,4.385-3.032,6.493-2.08,4.006-12.807,10.629-16.339,12.734,2.551-6.5,5.252-13.167,8.377-19.547C585.408,428.508,589.073,428.644,592.735,428.684Z" transform="translate(-567.334 -391.792)"/>
            <path id="Path_369" data-name="Path 369" class="cls-7" d="M569.509,464.943h-2.175a118.441,118.441,0,0,1,28.139-58.832c.9-1.018,2.646.222,1.73,1.252A116.609,116.609,0,0,0,569.509,464.943Z" transform="translate(-567.334 -391.792)"/>
          </g>
        </g>
        <g id="Group_703" data-name="Group 703" transform="translate(34.92)">
          <g id="Group_702" data-name="Group 702">
            <path id="Path_370" data-name="Path 370" class="cls-3" d="M557.531,363.015a100.553,100.553,0,0,0-7.64-18.5,100.823,100.823,0,0,0,5.9-17.81c.461.234.92.473,1.373.726A31.329,31.329,0,0,1,569.2,339.259,115.987,115.987,0,0,1,557.531,363.015Z" transform="translate(-528.682 -319.95)"/>
            <path id="Path_371" data-name="Path 371" class="cls-3" d="M570.049,367.2a20.644,20.644,0,0,0,2.5,6.02,106.673,106.673,0,0,1-9.809,13.328,177.144,177.144,0,0,0-3.669-18.128,128.306,128.306,0,0,0,12.451-23.2,19.826,19.826,0,0,1,.5,6.013C571.62,356.612,569.006,361.9,570.049,367.2Z" transform="translate(-528.682 -319.95)"/>
            <path id="Path_372" data-name="Path 372" class="cls-3" d="M574.856,377.541c4.276,10.354-7.574,41.391-7.574,41.391s-.5-.541-1.334-1.464c-.617-8.351-1.328-16.9-2.429-25.367A113.673,113.673,0,0,0,574.856,377.541Z" transform="translate(-528.682 -319.95)"/>
            <path id="Path_373" data-name="Path 373" class="cls-3" d="M551.874,324.948a94.54,94.54,0,0,1-4.661,15,70.5,70.5,0,0,0-13.273-15.608,10.709,10.709,0,0,0-5.258-4.393C536.534,320.982,544.557,322.075,551.874,324.948Z" transform="translate(-528.682 -319.95)"/>
            <path id="Path_374" data-name="Path 374" class="cls-6" d="M533.494,350.365q.162-.955.36-1.894c1.093-5.2,2.8-10.367,2.619-15.679a16.909,16.909,0,0,0-2.533-8.449c10.026,8.744,16.718,19.768,21.312,31.973A121.879,121.879,0,0,0,533.494,350.365Z" transform="translate(-528.682 -319.95)"/>
            <path id="Path_375" data-name="Path 375" class="cls-6" d="M543.7,374.313c-2.685-3.609-6.677-6.286-8.829-10.265a17.97,17.97,0,0,1-1.844-9.5,110.372,110.372,0,0,1,23.335,6.756,2.291,2.291,0,0,0,.694.169,146.856,146.856,0,0,1,4.319,17.136C555.514,377.03,549.628,375.536,543.7,374.313Z" transform="translate(-528.682 -319.95)"/>
            <path id="Path_376" data-name="Path 376" class="cls-6" d="M562.2,383.255c1.906,11.319,2.911,22.942,3.744,34.213-4.137-4.593-16.6-18.873-17.8-25.55-.762-4.218-.737-8.7-1.99-12.727C551.534,380.395,556.878,381.8,562.2,383.255Z" transform="translate(-528.682 -319.95)"/>
            <path id="Path_377" data-name="Path 377" class="cls-7" d="M559.781,464.943a175.255,175.255,0,0,0-10.043-116.3c-.857-1.885,2.2-2.892,3.042-1.029a178.041,178.041,0,0,1,10.31,117.333Z" transform="translate(-528.682 -319.95)"/>
          </g>
        </g>
      </g>
    </g>
  </g>
</svg>
